<?xml version="1.0" encoding="UTF-8" standalone="no"?>
<svg
   xmlns:dc="http://purl.org/dc/elements/1.1/"
   xmlns:cc="http://creativecommons.org/ns#"
   xmlns:rdf="http://www.w3.org/1999/02/22-rdf-syntax-ns#"
   xmlns:svg="http://www.w3.org/2000/svg"
   xmlns="http://www.w3.org/2000/svg"
   version="1.1"
   id="svg14871"
   viewBox="0 0 38.899335 42.435638"
   height="42.435638"
   width="38.899334">
  <defs
     id="defs14873" />
  <metadata
     id="metadata14876">
    <rdf:RDF>
      <cc:Work
         rdf:about="">
        <dc:format>image/svg+xml</dc:format>
        <dc:type
           rdf:resource="http://purl.org/dc/dcmitype/StillImage" />
        <dc:title></dc:title>
      </cc:Work>
    </rdf:RDF>
  </metadata>
  <g
     transform="translate(-10.458971,3.5652761)"
     id="layer1">
    <g
       transform="matrix(1.6490734,0,0,1.6490734,-4722.0555,-1614.3183)"
       id="g14587"
       style="font-size:30.02185059px;font-family:FontAwesome;-inkscape-font-specification:'FontAwesome, Normal';letter-spacing:0px;word-spacing:0px;display:inline;fill:#ffffff;stroke-width:1px">
      <path
         id="path14589"
         d="m 2878.3799,997.67055 0,-11.7943 q 0,-0.23454 -0.1508,-0.38532 -0.1507,-0.15078 -0.3853,-0.15078 l -1.0722,0 q -0.2345,0 -0.3853,0.15078 -0.1508,0.15078 -0.1508,0.38532 l 0,11.7943 q 0,0.23455 0.1508,0.38533 0.1508,0.15078 0.3853,0.15078 l 1.0722,0 q 0.2346,0 0.3853,-0.15078 0.1508,-0.15078 0.1508,-0.38533 z m 4.2889,0 0,-11.7943 q 0,-0.23454 -0.1508,-0.38532 -0.1508,-0.15078 -0.3854,-0.15078 l -1.0722,0 q -0.2345,0 -0.3853,0.15078 -0.1508,0.15078 -0.1508,0.38532 l 0,11.7943 q 0,0.23455 0.1508,0.38533 0.1508,0.15078 0.3853,0.15078 l 1.0722,0 q 0.2346,0 0.3854,-0.15078 0.1508,-0.15078 0.1508,-0.38533 z m 4.2888,0 0,-11.7943 q 0,-0.23454 -0.1508,-0.38532 -0.1508,-0.15078 -0.3853,-0.15078 l -1.0722,0 q -0.2346,0 -0.3853,0.15078 -0.1508,0.15078 -0.1508,0.38532 l 0,11.7943 q 0,0.23455 0.1508,0.38533 0.1507,0.15078 0.3853,0.15078 l 1.0722,0 q 0.2345,0 0.3853,-0.15078 0.1508,-0.15078 0.1508,-0.38533 z m -9.1138,-16.61924 7.5055,0 -0.8042,-1.96013 q -0.1173,-0.15078 -0.2848,-0.18428 l -5.3108,0 q -0.1675,0.0335 -0.2848,0.18428 l -0.8209,1.96013 z m 15.547,0.53611 0,1.07221 q 0,0.23454 -0.1507,0.38532 -0.1508,0.15078 -0.3854,0.15078 l -1.6083,0 0,15.8821 q 0,1.39047 -0.7874,2.39567 -0.7874,1.022 -1.8931,1.022 l -13.9387,0 q -1.1057,0 -1.8931,-0.9885 -0.7874,-0.9716 -0.7874,-2.36216 l 0,-15.94911 -1.6083,0 q -0.2346,0 -0.3854,-0.15078 -0.1508,-0.15078 -0.1508,-0.38532 l 0,-1.07221 q 0,-0.23455 0.1508,-0.38533 0.1508,-0.15078 0.3854,-0.15078 l 5.1767,0 1.1727,-2.79779 q 0.2513,-0.61987 0.9047,-1.05546 0.6534,-0.43558 1.3235,-0.43558 l 5.3611,0 q 0.6701,0 1.3235,0.43558 0.6534,0.43559 0.9047,1.05546 l 1.1727,2.79779 5.1767,0 q 0.2346,0 0.3854,0.15078 0.1507,0.15078 0.1507,0.38533 z" />
    </g>
  </g>
</svg>
