<?xml version="1.0" encoding="UTF-8" standalone="no"?>
<svg
   xmlns:dc="http://purl.org/dc/elements/1.1/"
   xmlns:cc="http://creativecommons.org/ns#"
   xmlns:rdf="http://www.w3.org/1999/02/22-rdf-syntax-ns#"
   xmlns:svg="http://www.w3.org/2000/svg"
   xmlns="http://www.w3.org/2000/svg"
   version="1.1"
   id="svg14871"
   viewBox="0 0 34.141236 26.945535"
   height="26.945536"
   width="34.141235">
  <defs
     id="defs14873" />
  <metadata
     id="metadata14876">
    <rdf:RDF>
      <cc:Work
         rdf:about="">
        <dc:format>image/svg+xml</dc:format>
        <dc:type
           rdf:resource="http://purl.org/dc/dcmitype/StillImage" />
        <dc:title></dc:title>
      </cc:Work>
    </rdf:RDF>
  </metadata>
  <g
     transform="translate(-12.171374,-14.337135)"
     id="layer1">
    <path
       style="display:inline;fill:#9e9e9e;fill-opacity:1"
       d="m 29.165459,34.546263 2.219926,-2.219927 -2.908912,-2.908912 -2.219926,2.219927 0,1.071744 1.837167,0 0,1.837168 1.071745,0 z m 8.401352,-13.147432 q 0.325383,-0.325384 0.01906,-0.631515 -0.306227,-0.306226 -0.631515,0.01906 l -6.698189,6.698094 q -0.325288,0.325288 -0.01906,0.631514 0.306226,0.306226 0.631609,-0.01906 l 6.698094,-6.698093 z m 1.550098,10.736125 0,3.636117 q 0,2.277397 -1.626631,3.904028 -1.607569,1.607569 -3.884966,1.607569 l -15.92234,0 q -2.277398,0 -3.904029,-1.607569 -1.607569,-1.626631 -1.607569,-3.904028 l 0,-15.92234 q 0,-2.277398 1.607569,-3.884967 1.626631,-1.626631 3.904029,-1.626631 l 15.92234,0 q 1.205748,0 2.239083,0.478354 0.287069,0.134003 0.34454,0.44023 0.05719,0.325288 -0.172222,0.554981 l -0.937741,0.937741 Q 34.81106,17.016353 34.46652,16.901507 34.026385,16.78666 33.605312,16.78666 l -15.92234,0 q -1.263124,0 -2.162551,0.899522 -0.899427,0.899427 -0.899427,2.162551 l 0,15.92234 q 0,1.263124 0.899427,2.16255 0.899427,0.899427 2.162551,0.899427 l 15.92234,0 q 1.263124,0 2.16255,-0.899427 0.899522,-0.899426 0.899522,-2.16255 l 0,-2.411307 q 0,-0.248755 0.172223,-0.421073 l 1.22481,-1.224714 q 0.287069,-0.28707 0.669733,-0.134004 0.382759,0.153065 0.382759,0.554981 z m -1.837167,-14.123486 5.511597,5.511597 -12.860362,12.860458 -5.511598,0 0,-5.511597 12.860363,-12.860458 z m 8.497042,2.526153 -1.760635,1.760634 -5.511597,-5.511597 1.760634,-1.760635 q 0.535825,-0.535824 1.301343,-0.535824 0.765518,0 1.301343,0.535824 l 2.908912,2.908912 q 0.535825,0.535825 0.535825,1.301343 0,0.765518 -0.535825,1.301343 z"
       id="path5465" />
  </g>
</svg>
