<?xml version="1.0" encoding="UTF-8" standalone="no"?>
<svg
   xmlns:dc="http://purl.org/dc/elements/1.1/"
   xmlns:cc="http://creativecommons.org/ns#"
   xmlns:rdf="http://www.w3.org/1999/02/22-rdf-syntax-ns#"
   xmlns:svg="http://www.w3.org/2000/svg"
   xmlns="http://www.w3.org/2000/svg"
   width="19.999844"
   height="15.714163"
   viewBox="0 0 19.999844 15.714163"
   id="svg14871"
   version="1.1">
  <defs
     id="defs14873" />
  <metadata
     id="metadata14876">
    <rdf:RDF>
      <cc:Work
         rdf:about="">
        <dc:format>image/svg+xml</dc:format>
        <dc:type
           rdf:resource="http://purl.org/dc/dcmitype/StillImage" />
        <dc:title></dc:title>
      </cc:Work>
    </rdf:RDF>
  </metadata>
  <g
     id="layer1"
     transform="translate(-16.235462,-14.259211)">
    <g
       id="text5126-9"
       style="font-size:19.9998436px;line-height:125%;font-family:FontAwesome;-inkscape-font-specification:'FontAwesome, Normal';letter-spacing:0px;word-spacing:0px;display:inline;fill:#ffffff;fill-opacity:1;stroke-width:1px">
      <path
         id="path9811"
         style=""
         d="m 36.235306,19.326135 0,8.861538 q 0,0.736601 -0.52455,1.261151 -0.524549,0.524549 -1.261151,0.524549 l -16.428442,0 q -0.736602,0 -1.261151,-0.524549 -0.52455,-0.52455 -0.52455,-1.261151 l 0,-8.861538 q 0.491068,0.546871 1.127224,0.970975 4.040146,2.745514 5.546831,3.850416 0.636156,0.468746 1.026778,0.736601 0.401782,0.256695 1.060259,0.535711 0.658477,0.267855 1.227669,0.267855 l 0.01116,0 0.01116,0 q 0.569192,0 1.227669,-0.267855 0.658477,-0.279016 1.049099,-0.535711 0.401782,-0.267855 1.037938,-0.736601 1.897306,-1.372757 5.557992,-3.850416 0.636156,-0.435265 1.116063,-0.970975 z m 0,-3.281224 q 0,0.881689 -0.546871,1.685255 -0.546871,0.803565 -1.361596,1.372757 -4.196396,2.912923 -5.223174,3.627203 -0.111606,0.07813 -0.479907,0.34598 -0.35714,0.256694 -0.602674,0.424104 -0.234373,0.156249 -0.580352,0.35714 -0.334819,0.200891 -0.636156,0.301337 -0.301337,0.100445 -0.558031,0.100445 l -0.01116,0 -0.01116,0 q -0.256694,0 -0.558031,-0.100445 -0.301337,-0.100446 -0.647316,-0.301337 -0.334819,-0.200891 -0.580353,-0.35714 -0.234373,-0.16741 -0.602674,-0.424104 -0.35714,-0.267855 -0.468746,-0.34598 -1.015617,-0.71428 -2.924084,-2.031234 -1.908468,-1.328114 -2.287929,-1.595969 -0.691959,-0.468747 -1.305793,-1.283472 -0.613835,-0.825887 -0.613835,-1.529006 0,-0.870529 0.457586,-1.450882 0.468746,-0.580352 1.328115,-0.580352 l 16.428442,0 q 0.725441,0 1.249991,0.524549 0.53571,0.52455 0.53571,1.261151 z" />
    </g>
  </g>
</svg>
