<?xml version="1.0" encoding="UTF-8" standalone="no"?>
<svg
   xmlns:dc="http://purl.org/dc/elements/1.1/"
   xmlns:cc="http://creativecommons.org/ns#"
   xmlns:rdf="http://www.w3.org/1999/02/22-rdf-syntax-ns#"
   xmlns:svg="http://www.w3.org/2000/svg"
   xmlns="http://www.w3.org/2000/svg"
   width="19.672029"
   height="32.786716"
   viewBox="0 0 19.67203 32.786716"
   id="svg14871"
   version="1.1">
  <defs
     id="defs14873" />
  <metadata
     id="metadata14876">
    <rdf:RDF>
      <cc:Work
         rdf:about="">
        <dc:format>image/svg+xml</dc:format>
        <dc:type
           rdf:resource="http://purl.org/dc/dcmitype/StillImage" />
        <dc:title></dc:title>
      </cc:Work>
    </rdf:RDF>
  </metadata>
  <g
     id="layer1"
     transform="translate(-20.849134,-10.5589)">
    <g
       id="text5130-0"
       style="font-size:45.90140152px;line-height:125%;font-family:FontAwesome;-inkscape-font-specification:'FontAwesome, Normal';letter-spacing:0px;word-spacing:0px;display:inline;fill:#ffffff;fill-opacity:1;stroke-width:1px">
      <path
         id="path9811"
         style=""
         d="m 32.119568,41.526977 q 0.614751,-0.614751 0.614751,-1.460033 0,-0.845283 -0.614751,-1.434419 -0.589136,-0.614751 -1.434419,-0.614751 -0.845282,0 -1.460033,0.614751 -0.589137,0.589136 -0.589137,1.434419 0,0.845282 0.589137,1.460033 0.614751,0.589137 1.460033,0.589137 0.845283,0 1.434419,-0.589137 z m 5.942592,-5.558373 0,-18.032693 q 0,-0.33299 -0.256146,-0.563522 -0.230532,-0.256146 -0.563522,-0.256146 l -13.114686,0 q -0.33299,0 -0.589136,0.256146 -0.230532,0.230532 -0.230532,0.563522 l 0,18.032693 q 0,0.332991 0.230532,0.589137 0.256146,0.230531 0.589136,0.230531 l 13.114686,0 q 0.33299,0 0.563522,-0.230531 0.256146,-0.256146 0.256146,-0.589137 z M 32.734319,14.657239 q 0.409834,0 0.409834,-0.409834 0,-0.409833 -0.409834,-0.409833 l -4.09834,0 q -0.409834,0 -0.409834,0.409833 0,0.409834 0.409834,0.409834 l 4.09834,0 z m 7.786845,-0.819667 0,26.229372 q 0,1.33196 -0.973356,2.305316 -0.973356,0.973355 -2.305316,0.973355 l -13.114686,0 q -1.33196,0 -2.305316,-0.973355 -0.973356,-0.973356 -0.973356,-2.305316 l 0,-26.229372 q 0,-1.331961 0.973356,-2.305316 0.973356,-0.973356 2.305316,-0.973356 l 13.114686,0 q 1.33196,0 2.305316,0.973356 0.973356,0.973355 0.973356,2.305316 z" />
    </g>
  </g>
</svg>
