<?xml version="1.0" encoding="UTF-8" standalone="no"?>
<svg
   xmlns:dc="http://purl.org/dc/elements/1.1/"
   xmlns:cc="http://creativecommons.org/ns#"
   xmlns:rdf="http://www.w3.org/1999/02/22-rdf-syntax-ns#"
   xmlns:svg="http://www.w3.org/2000/svg"
   xmlns="http://www.w3.org/2000/svg"
   width="19.672056"
   height="19.672056"
   viewBox="0 0 19.672057 19.672056"
   id="svg14871"
   version="1.1">
  <defs
     id="defs14873" />
  <metadata
     id="metadata14876">
    <rdf:RDF>
      <cc:Work
         rdf:about="">
        <dc:format>image/svg+xml</dc:format>
        <dc:type
           rdf:resource="http://purl.org/dc/dcmitype/StillImage" />
        <dc:title></dc:title>
      </cc:Work>
    </rdf:RDF>
  </metadata>
  <g
     id="layer1"
     transform="translate(-18.542292,-11.030203)">
    <g
       id="text5122-8"
       style="font-size:25.03716278px;line-height:125%;font-family:FontAwesome;-inkscape-font-specification:'FontAwesome, Normal';letter-spacing:0px;word-spacing:0px;display:inline;fill:#ffffff;fill-opacity:1;stroke-width:1px">
      <path
         id="path9811"
         style=""
         d="m 38.214348,26.566656 q 0,0.377234 -0.139716,0.991986 -0.139717,0.60078 -0.293404,0.950071 -0.293405,0.698582 -1.704539,1.480993 -1.313334,0.712553 -2.598724,0.712553 -0.377234,0 -0.740496,-0.04192 -0.349291,-0.05589 -0.796383,-0.181631 -0.447092,-0.125745 -0.670639,-0.195603 -0.209574,-0.08383 -0.768439,-0.293404 -0.558865,-0.209575 -0.68461,-0.251489 -1.36922,-0.489008 -2.445036,-1.159646 -1.788368,-1.103759 -3.702482,-3.003901 -1.900142,-1.914113 -3.0039,-3.702482 -0.670639,-1.075815 -1.159646,-2.445035 -0.04191,-0.125745 -0.251489,-0.68461 -0.209575,-0.558865 -0.293404,-0.76844 -0.06986,-0.223546 -0.195603,-0.670638 -0.125745,-0.447092 -0.181631,-0.796383 -0.04191,-0.363262 -0.04191,-0.740496 0,-1.285391 0.712553,-2.598724 0.782411,-1.411135 1.480993,-1.704539 0.34929,-0.153688 0.950071,-0.293404 0.614751,-0.139716 0.991985,-0.139716 0.195603,0 0.293405,0.04191 0.251489,0.08383 0.740496,1.061844 0.153688,0.265461 0.419149,0.754469 0.265461,0.489007 0.489007,0.894184 0.223546,0.391206 0.433121,0.740496 0.04191,0.05589 0.237517,0.349291 0.209575,0.293404 0.307376,0.502979 0.0978,0.195603 0.0978,0.391206 0,0.279432 -0.405178,0.698581 -0.391205,0.419149 -0.866241,0.76844 -0.461064,0.349291 -0.866241,0.740496 -0.391205,0.391206 -0.391205,0.642695 0,0.125745 0.06986,0.321348 0.06986,0.181631 0.111773,0.279432 0.05589,0.0978 0.195603,0.33532 0.153687,0.237517 0.167659,0.265461 1.061844,1.914113 2.431064,3.283333 1.36922,1.36922 3.283333,2.431064 0.02794,0.01397 0.265461,0.167659 0.237518,0.139716 0.335319,0.195603 0.0978,0.04191 0.279433,0.111773 0.195603,0.06986 0.321347,0.06986 0.25149,0 0.642695,-0.391205 0.391206,-0.405178 0.740497,-0.866242 0.349291,-0.475035 0.76844,-0.866241 0.419149,-0.405177 0.698581,-0.405177 0.195603,0 0.391206,0.0978 0.209574,0.0978 0.502979,0.307376 0.293404,0.195603 0.34929,0.237518 0.349291,0.209574 0.740497,0.433121 0.405177,0.223546 0.894184,0.489007 0.489007,0.265461 0.754468,0.419149 0.978014,0.489007 1.061844,0.740496 0.04192,0.0978 0.04192,0.293404 z" />
    </g>
  </g>
</svg>
