<?xml version="1.0" encoding="UTF-8" standalone="no"?>
<svg
   xmlns:dc="http://purl.org/dc/elements/1.1/"
   xmlns:cc="http://creativecommons.org/ns#"
   xmlns:rdf="http://www.w3.org/1999/02/22-rdf-syntax-ns#"
   xmlns:svg="http://www.w3.org/2000/svg"
   xmlns="http://www.w3.org/2000/svg"
   version="1.1"
   id="svg14871"
   viewBox="0 0 43.875577 43.875625"
   height="43.875626"
   width="43.875576">
  <defs
     id="defs14873" />
  <metadata
     id="metadata14876">
    <rdf:RDF>
      <cc:Work
         rdf:about="">
        <dc:format>image/svg+xml</dc:format>
        <dc:type
           rdf:resource="http://purl.org/dc/dcmitype/StillImage" />
        <dc:title></dc:title>
      </cc:Work>
    </rdf:RDF>
  </metadata>
  <g
     transform="translate(-7.4086264,1.7587926)"
     id="layer1">
    <g
       id="g14603"
       style="font-size:26.6062336px;font-family:FontAwesome;-inkscape-font-specification:'FontAwesome, Normal';letter-spacing:0px;word-spacing:0px;display:inline;fill:#ffffff;stroke-width:1px"
       transform="matrix(1.6490734,0,0,1.6490734,-4975.937,-1612.5118)">
      <path
         id="path14605"
         d="m 3032.3589,981.51358 0,11.40267 q 0,0.38603 -0.2821,0.66813 -0.2821,0.28209 -0.6681,0.28209 l 0,8.55203 q 0,0.386 -0.2821,0.6681 -0.2821,0.2821 -0.6681,0.2821 l -7.6018,0 q -0.386,0 -0.6681,-0.2821 -0.2821,-0.2821 -0.2821,-0.6681 l 0,-7.6018 3.697,-12.96163 q 0.1039,-0.34149 0.4602,-0.34149 l 6.2952,0 z m 4.7512,0 0,10.45245 -3.8009,0 0,-10.45245 3.8009,0 z m 11.4026,13.30312 0,7.6018 q 0,0.386 -0.2821,0.6681 -0.2821,0.2821 -0.6681,0.2821 l -7.6018,0 q -0.386,0 -0.6681,-0.2821 -0.2821,-0.2821 -0.2821,-0.6681 l 0,-8.55203 q -0.386,0 -0.6681,-0.28209 -0.2821,-0.2821 -0.2821,-0.66813 l 0,-11.40267 6.2952,0 q 0.3563,0 0.4603,0.34149 l 3.6969,12.96163 z m -15.6786,-17.57912 0,3.32578 -5.2263,0 0,-3.32578 q 0,-0.20786 0.1337,-0.34149 0.1336,-0.13362 0.3414,-0.13362 l 4.276,0 q 0.2079,0 0.3415,0.13362 0.1337,0.13363 0.1337,0.34149 z m 9.9773,0 0,3.32578 -5.2262,0 0,-3.32578 q 0,-0.20786 0.1336,-0.34149 0.1336,-0.13362 0.3415,-0.13362 l 4.276,0 q 0.2078,0 0.3415,0.13362 0.1336,0.13363 0.1336,0.34149 z" />
    </g>
  </g>
</svg>
