<?xml version="1.0" encoding="UTF-8" standalone="no"?>
<svg
   xmlns:dc="http://purl.org/dc/elements/1.1/"
   xmlns:cc="http://creativecommons.org/ns#"
   xmlns:rdf="http://www.w3.org/1999/02/22-rdf-syntax-ns#"
   xmlns:svg="http://www.w3.org/2000/svg"
   xmlns="http://www.w3.org/2000/svg"
   viewBox="0 0 212.1346 54.901081"
   height="54.901081"
   width="212.1346"
   version="1.1"
   id="svg9866">
  <metadata
     id="metadata9872">
    <rdf:RDF>
      <cc:Work
         rdf:about="">
        <dc:format>image/svg+xml</dc:format>
        <dc:type
           rdf:resource="http://purl.org/dc/dcmitype/StillImage" />
        <dc:title></dc:title>
      </cc:Work>
    </rdf:RDF>
  </metadata>
  <defs
     id="defs9870" />
  <g
     transform="translate(15.847938,-63.867216)"
     id="g9954">
    <path
       style="fill:#94d40c"
       d="m 15.246094,75.933594 c -3.281849,1.274137 -6.0705914,4.785525 -6.7967796,7.752417 1.2301077,0.597798 2.9344466,1.079427 4.5489636,1.010308 1.395069,-0.05973 2.390172,-0.71319 3.251722,-1.057647 1.668574,-0.667115 7.6899,-6.11702 7.6875,-7.341797 -2.1e-4,-0.106881 -2.050618,0.242113 -4.440655,0.195463 0,0 -2.840179,-0.8673 -4.250751,-0.558744 z M -3.8417969,77.53125 c -0.1112974,0.681996 1.2984294,2.876407 3.5527344,5.283203 2.2309519,2.43956 4.8647287,4.139298 7.5091085,4.158958 C 5.9243454,85.140218 5.8108195,82.508765 4.4670439,80.953127 1.7586511,79.148809 -1.1021721,77.741408 -3.8417969,77.53125 Z m 56.1406249,2.720703 c -0.798002,-0.09246 -0.46489,1.767452 1.025391,4.853516 1.956271,3.797263 5.501725,6.383052 8.917665,6.740685 -0.921516,-1.147303 -1.522551,-2.552978 -2.130559,-4.371545 -1.037478,-3.127837 -1.770226,-4.322265 -2.648437,-4.322265 -2.171173,-0.406099 -3.441351,-1.942705 -5.16406,-2.900391 z M 12.462891,91.792969 c -0.803432,0.698919 -1.505159,0.729802 -2.363282,0.359375 -1.3434926,0 0.577895,3.745928 2.091797,4.078125 0.788547,0.27676 1.542332,0.251286 2.326155,0.212291 0.253373,-1.287627 -0.820342,-2.061568 -1.191387,-2.827529 z"
       id="path9936" />
    <path
       id="path9934"
       d="m 4.832458,106.5538 c -1.25877,-0.51362 -1.381467,-1.24369 -1.206303,-7.177745 0.22431,-7.599008 0.957102,-10.348928 3.411906,-12.803734 3.132366,-3.132365 9.605214,-3.207971 12.184785,-0.142325 1.009302,1.19949 1.223889,2.015836 1.054437,4.011395 -0.241668,2.846044 -0.825438,3.65811 -5.939436,8.262166 l -1.35,1.215384 0.6,0.452289 c 0.33,0.24876 1.95,0.87557 3.6,1.39291 1.65,0.51734 3.3375,1.05838 3.75,1.20232 0.4125,0.14394 1.237539,0.3462 1.83342,0.44948 l 1.083423,0.18777 -0.139008,-1.45059 c -0.440697,-4.598779 2.951865,-9.094909 6.898143,-9.142046 4.400103,-0.05256 8.373141,5.671692 6.550209,9.437366 -1.619391,3.34522 -5.5938,4.30622 -14.398341,3.48149 -2.995878,-0.28063 -4.71132,-0.58858 -10.077846,-1.80913 -0.66,-0.15011 -1.627098,-0.35515 -2.14911,-0.45565 l -0.94911,-0.18272 -0.735087,1.16446 c -1.165425,1.84615 -2.555628,2.50526 -4.022082,1.90691 z m 28.009278,-3.15445 c 2.841252,-1.18715 2.374539,-4.235551 -0.890451,-5.816104 -1.903176,-0.921313 -2.810253,-0.824047 -3.991047,0.427961 -3.278547,3.476273 0.218628,7.336413 4.881498,5.388143 z M 10.998604,98.619588 c 1.99815,-1.221839 6.173442,-5.358132 6.623448,-6.561582 0.596715,-1.595793 0.389109,-2.503137 -0.87735,-3.834462 l -1.193145,-1.254255 -1.93758,0.15553 c -2.302149,0.184795 -4.449342,1.141347 -4.929993,2.19626 -0.482202,1.05832 -0.470484,9.487109 0.01386,9.971456 0.476067,0.476067 0.371853,0.50655 2.30076,-0.672947 z m 90.403786,8.022512 c -0.91762,-0.17944 -1.961203,-1.8721 -2.769853,-4.49265 -0.36542,-1.18419 -1.01996,-2.573751 -1.45454,-3.087903 l -0.79015,-0.934823 -0.65445,0.465521 c -0.35994,0.256038 -1.54366,1.740915 -2.63047,3.299735 -1.88522,2.70395 -2.90453,3.76056 -3.62783,3.76056 -0.60012,0 -2.79408,-2.09957 -3.77364,-3.61128 -0.53056,-0.8188 -1.15131,-1.48872 -1.37944,-1.48872 -0.5065,0 -1.28417,1.77048 -1.28417,2.92361 0,1.06041 -0.73356,2.12795 -1.7199,2.50296 -1.05633,0.40161 -1.8801,0.0744 -1.8801,-0.74679 0,-1.0411 -0.28919,-1.11773 -1.31203,-0.34765 -1.61749,1.21778 -3.52019,1.66787 -7.050776,1.66787 -7.126266,0 -8.863809,-1.55341 -9.792423,-8.754697 -0.880044,-6.824651 -1.192248,-6.605994 11.692369,-8.188935 3.88722,-0.477565 4.14235,-0.411488 3.99057,1.033527 l -0.0777,0.739899 -2.4,0.526767 c -1.32,0.289722 -3.4125,0.751136 -4.65,1.025365 -2.610834,0.578558 -4.282506,1.636499 -4.142151,2.621418 l 0.09215,0.646651 4.95,0.07477 c 4.898591,0.07399 6.300001,0.331632 6.300001,1.158222 0,0.59229 -0.33116,0.694475 -3.80328,1.173553 -6.464269,0.891925 -6.99673,1.114693 -6.99673,2.92724 0,2.0151 4.746753,3.03512 8.55,1.8373 0.825,-0.25983 2.175,-0.56212 3,-0.67175 l 1.5,-0.19933 0.15,-4.750562 0.15,-4.750558 0.97269,-0.868146 c 2.69738,-2.407476 4.19041,-1.238269 7.21907,5.653323 0.7843,1.784647 1.93215,2.747543 2.71354,2.276293 0.6755,-0.407391 2.25522,-3.426053 3.08535,-5.895769 1.83439,-5.457447 4.28336,-4.113923 6.717753,3.685414 l 0.79593,2.550005 1.77283,1.84903 c 2.73905,2.85677 2.00239,5.06809 -1.46262,4.39053 z m 73.43546,-0.0738 c -4.39881,-0.61852 -5.43116,-1.97889 -6.03706,-7.955295 l -0.35502,-3.501748 0.58659,-0.586589 c 0.64919,-0.649192 2.91362,-1.146256 8.77291,-1.925741 l 3.71742,-0.494544 0.25299,0.399066 c 0.67185,1.059798 0.15081,1.519372 -2.28783,2.017928 -5.78325,1.18233 -7.42197,1.929085 -6.94737,3.165874 l 0.17854,0.465264 4.07914,0 c 2.24352,0 4.33523,0.13706 4.64824,0.304577 1.23545,0.661192 0.27882,1.109866 -3.54875,1.664418 l -3.80774,0.55167 -0.67603,0.67603 c -2.41947,2.41947 3.41097,4.0173 8.1185,2.22487 1.94986,-0.74243 3.42886,-0.19715 2.43725,0.89857 -1.52396,1.68395 -5.52675,2.60255 -9.13178,2.09565 z M 42.987847,105.93586 c -4.521117,-0.69537 -5.674035,-2.07265 -3.587118,-4.28518 1.905072,-2.01973 1.910937,-2.143258 0.404553,-8.520308 -1.762062,-7.459439 -0.959889,-8.110175 4.626183,-3.752836 1.850874,1.44375 4.494582,3.435 5.874903,4.425 10.481247,7.517404 11.548164,9.160254 7.552629,11.629634 l -1.068327,0.66026 -6.00141,0.0601 c -3.300777,0.0331 -6.811413,-0.0644 -7.801413,-0.21671 z m 10.282662,-2.54112 c 2.050815,-0.60903 2.143116,-0.88203 0.776778,-2.29751 -2.567556,-2.659895 -7.409973,-5.4791 -9.07845,-5.285375 l -0.78099,0.09068 0.09314,2.999999 c 0.05123,1.650006 0.230448,3.438756 0.398265,3.974996 l 0.305124,0.97501 3.372285,0 c 2.149632,0 3.931191,-0.16598 4.913848,-0.4578 z m 73.223221,2.49551 c -0.27147,-0.21324 -1.13366,-1.46771 -1.91599,-2.78771 -0.78233,-1.32001 -1.74821,-2.83875 -2.14642,-3.375005 l -0.724,-0.975 -1.85974,0.01632 c -3.87636,0.03401 -5.40731,1.280895 -4.38269,3.569475 0.95583,2.13491 0.44936,3.31421 -1.42337,3.31421 -2.24761,0 -4.03315,-4.26683 -4.89294,-11.69245 -0.28403,-2.453026 -0.0515,-3.307554 0.89982,-3.307554 1.0144,0 1.64209,0.98619 2.36185,3.710767 0.38274,1.44885 0.86949,2.700887 1.08167,2.782305 0.41386,0.158814 5.55179,-0.708676 6.67093,-1.126322 l 0.675,-0.2519 0,-2.099721 0,-2.099721 0.90376,-0.467352 0.90376,-0.467351 0.30132,0.834647 c 1.12434,3.114286 1.72406,3.862983 3.67138,4.583289 1.31329,0.485784 1.84417,1.201358 0.89128,1.201358 -0.68361,0 -1.5715,0.894238 -1.5715,1.582731 0,0.663495 1.91965,3.835124 2.55935,5.147834 0.0225,-1.06109 -0.0149,-1.14239 0.001,-2.10481 0.0499,-2.984063 2.10223,-5.824048 4.28762,-6.300899 0.44103,-0.09623 0.98509,-0.232504 1.20901,-0.302825 2.28794,-0.718515 6.04443,3.161874 6.04175,6.241014 -0.003,2.96354 -2.11195,4.47123 -6.54665,4.67927 l -2.79777,0.13125 c -0.6692,-0.64863 -1.4215,-1.17856 -2.00763,-1.94587 l -0.0984,0.86115 c -0.1122,0.98175 -1.22822,1.32781 -2.09254,0.64887 z m 9.36255,-1.73441 c 1.63636,-0.0115 2.27399,-2.37206 1.03764,-3.84138 -2.19268,-2.605855 -5.85607,-1.62641 -5.85607,1.56569 0,1.83387 1.11612,2.64484 3.3,2.39778 0.5775,-0.0653 1.26079,-0.12028 1.51843,-0.12209 z m 23.90633,1.73583 c -1.5991,-0.4247 -2.92476,-1.74771 -2.92476,-2.91891 0,-1.35278 0.51519,-1.38044 3.17077,-0.17025 2.57297,1.17254 4.09881,1.29834 4.27807,0.3527 0.17248,-0.90986 -0.82482,-1.67622 -4.40282,-3.383293 -5.30741,-2.532179 -6.06673,-3.694284 -3.78693,-5.795731 2.17421,-2.004119 3.62878,-2.506635 7.68887,-2.656304 l 3.49796,-0.128946 0.34366,0.642131 c 0.48593,0.907958 0.18158,1.585281 -1.34431,2.991801 -1.69935,1.566399 -2.56311,1.605454 -3.41913,0.154598 l -0.63313,-1.073069 -0.9671,0.212412 c -1.21107,0.265995 -2.32591,0.980922 -2.32591,1.491561 0,0.569408 1.74695,1.950936 3.3,2.609707 4.03892,1.713231 5.30927,2.740883 5.59957,4.529813 0.4581,2.82293 -3.4906,4.3593 -8.07481,3.14178 z m -14.54646,-1.0063 c -1.9018,-0.94771 -3.42116,-2.58945 -4.14114,-4.47471 l -0.54767,-1.434037 0.44176,-0.787044 c 0.3215,-0.572789 0.68363,-0.787044 1.33025,-0.787044 l 0.8885,0 1.26951,2.25 c 1.65764,2.937895 2.42567,3.599995 4.17591,3.599995 2.82869,0 3.71729,-1.5386 2.49041,-4.312156 -1.28936,-2.914815 -1.08544,-5.287838 0.45441,-5.287838 1.60157,0 2.5283,2.316111 2.54659,6.364564 l 0.0132,2.91456 -0.88559,1.00863 c -1.63814,1.86574 -5.31973,2.29871 -8.0361,0.94508 z"
       style="fill:#0c0c0e" />
  </g>
</svg>
