<?xml version="1.0" encoding="UTF-8" standalone="no"?>
<svg
   xmlns:dc="http://purl.org/dc/elements/1.1/"
   xmlns:cc="http://creativecommons.org/ns#"
   xmlns:rdf="http://www.w3.org/1999/02/22-rdf-syntax-ns#"
   xmlns:svg="http://www.w3.org/2000/svg"
   xmlns="http://www.w3.org/2000/svg"
   version="1.1"
   id="svg14886"
   viewBox="0 0 258 100"
   preserveAspectRatio= "XMinYMax"
   height="100"
   width="258">
  <defs
     id="defs14888">
    <filter
       id="rough_edge"
       style="color-interpolation-filters:sRGB">
      <feTurbulence
         id="feTurbulence14568"
         result="turbulence"
         baseFrequency="0.052 0.054"
         seed="159"
         numOctaves="8"
         type="fractalNoise" />
      <feDisplacementMap
         id="feDisplacementMap14570"
         xChannelSelector="R"
         yChannelSelector="G"
         scale="10"
         in2="turbulence"
         in="SourceGraphic" />
    </filter>
  </defs>
  <metadata
     id="metadata14891">
    <rdf:RDF>
      <cc:Work
         rdf:about="">
        <dc:format>image/svg+xml</dc:format>
        <dc:type
           rdf:resource="http://purl.org/dc/dcmitype/StillImage" />
        <dc:title></dc:title>
      </cc:Work>
    </rdf:RDF>
  </metadata>
  <g
     transform="translate(-249.34048,-231.57404)"
     id="layer1">
    <g
       transform="matrix(0.94796967,0,0,0.94093432,696.44427,963.29782)"
       id="g19615"
       style="display:inline">
      <g
         style="fill:#ffffff"
         transform="matrix(0.57627197,0,0,0.57627197,-732.9893,-541.2696)"
         id="g14351">
        <path
           d="m 738.45154,-375.92773 c -7.0835,0 -13.4985,4.25777 -16.9765,10.22265 -4.1853,6.09931 -0.9086,13.8298 -1.9073,20.70507 0.3695,3.55061 -0.8661,7.65352 1.6553,10.32813 0.5329,2.39379 0.766,4.84767 3.6875,5.125 1.2981,0.76376 2.3318,3.34541 4.0684,1.57422 3.0377,2.37288 7.5266,0.82832 10.4687,-0.22656 2.4467,-2.21708 6.2697,-1.79585 8.1836,-4.85156 3.35,-1.46141 3.9223,-4.45915 3.4805,-7.58984 0.3371,-4.75723 1.5223,-9.31435 1.1425,-13.96876 0.9383,-2.03409 -0.4352,-4.56309 -0.6015,-6.74609 -1.0985,-2.0131 1.4074,-3.49499 -0.3985,-5.29687 -3.5948,-4.46575 -5.4738,-9.27539 -12.8027,-9.27539 z m 3.652,7.56569 c 3.6391,1.60461 4.552,6.41888 3.3643,9.43515 0.6733,2.86763 0.149,6.32551 0.9771,8.84018 2.4437,1.63934 -0.3205,3.95331 -1.2348,4.30575 0.5922,3.71315 -0.8228,9.10743 -4.9655,9.69463 -2.592,4.79312 -12.7371,5.51535 -13.7342,-1.15882 2.1945,-1.47494 -3.2181,-2.8398 -0.4443,-5.29953 -0.2527,-2.79195 0.1277,-5.74792 0.1905,-8.37589 -0.8167,-2.33283 -0.797,-5.15204 0.8279,-7.14794 -4.9446,0.0678 1.704,-3.93181 -1.0486,-5.68348 3.4283,-1.72643 4.8715,-5.88405 11.2535,-5.88405 3.6459,0 3.0582,0.45595 4.8141,1.274 z"
           id="path14354" />
        <path
           d="m 806.63382,-393.46406 -5.5774,0 c -0.257,0 -2.2123,6.6596 -1.1398,8.622 0.7866,2.95851 -0.572,6.00349 -0.2912,8.86708 1.112,1.38332 -1.6355,2.54964 -0.1868,4.34687 2.4335,-0.32916 6.6802,-0.78925 5.1451,-3.9901 2.7478,-2.60981 1.0717,-7.24016 2.0413,-10.60213 z m -7.0504,22.5192 c -0.5422,2.18059 -0.073,1.53983 -0.9702,4.0535 -3.4781,-4.72847 -3.4248,-9.37231 -15.8772,-9.37231 -6.7487,0 -9.0258,5.19407 -12.6249,8.04809 -3.112,2.41906 -2.5806,15.72153 -3.0073,19.722 -1.4131,8.11014 1.4375,18.39934 10.2588,20.79028 3.8999,1.1311 8.3212,1.28978 11.9249,-0.31806 3.0791,0.22698 7.198,-1.04906 9.9085,-1.52533 1.3216,1.2915 1.384,2.97252 1.384,2.97252 l 5.2439,0 c -0.064,-4.19796 -1.2518,-11.1962 -0.7623,-15.40835 0,0 -0.2777,-5.25591 -1.3833,-7.64026 0.3962,-2.03077 1.0652,-4.00663 1.1645,-5.66289 -2.1427,-1.52885 -2.5941,-4.16225 -1.6273,-6.46394 -0.7309,-2.48782 1.7414,-4.09155 1.7098,-6.20645 -0.1144,-2.06444 -4.6276,-2.3717 -5.3419,-2.9888 z m 0.8273,16.10777 c -2.9458,-1.17746 -2.153,0.12199 -2.4259,1.98109 -2.093,2.00359 2.4163,4.00807 -0.1137,5.84084 -1.4645,2.53046 2.2783,4.31198 -0.1664,6.06009 0.3052,2.47671 0.5107,6.30066 -2.9044,6.58015 -2.6827,1.2877 -6.2627,0.58892 -8.7645,2.89482 -5.1596,-1.71895 -11.1427,-3.86584 -12.501,-9.77422 -0.8165,-4.62044 -0.8527,-16.54173 0.07,-21.14739 2.4939,-4.42205 4.1536,-8.06501 9.6817,-8.1964 10.5982,-0.25189 13.7717,13.31277 17.1238,15.76102 z"
           id="path14356" />
        <path
           d="m 833.30368,-376.23367 c -0.9253,0.0442 -1.3073,0.16633 -2.2803,0.55785 -1.6792,0.67564 -5.887,3.30174 -6.0881,3.79901 -0.079,0.19475 -0.2819,0.35759 -0.4488,0.3641 -0.1669,0.007 -0.4368,0.26749 -0.6003,0.57886 -0.5675,1.07957 -1.1867,2.52104 -1.1543,2.68428 0.015,0.0903 -0.087,0.3016 -0.2316,0.46889 -0.1442,0.16727 -0.3391,0.78157 -0.4332,1.36539 -0.094,0.58382 -0.2942,1.29781 -0.4444,1.58799 -0.1502,0.29019 -0.3995,1.10561 -0.5549,1.81 -0.1557,0.70442 -0.3506,1.33132 -0.4342,1.39433 -0.3372,0.25424 -0.6105,3.07932 -0.4956,5.12442 0.065,1.17039 0.099,3.05098 0.073,4.17795 -0.064,2.88922 -0.072,2.79487 0.2647,3.42634 0.2253,0.43126 0.2622,0.63516 0.149,0.82059 -0.082,0.1355 -0.1376,0.49745 -0.1224,0.80674 0.019,0.30981 -0.046,0.73586 -0.1367,0.94726 -0.09,0.21139 -0.085,0.78553 0.012,1.27466 0.1747,0.88221 1.2432,3.48575 1.6579,4.03836 0.1191,0.15827 0.2545,0.48177 0.3015,0.71909 0.049,0.23727 0.2248,0.59647 0.3947,0.79768 0.1696,0.20118 0.4874,0.84935 0.7053,1.44085 0.2179,0.59149 0.5322,1.19253 0.6957,1.33683 0.1636,0.1443 0.3969,0.48939 0.5185,0.76615 0.4064,0.92197 1.0617,1.69241 2.2928,2.69843 0.6707,0.54817 1.481,1.30588 1.7998,1.68244 0.6343,0.74934 1.5152,1.44288 1.8286,1.43916 0.1096,-8.7e-4 0.3248,0.0987 0.4768,0.2213 0.1523,0.12264 0.5634,0.34528 0.915,0.49518 0.3515,0.14991 0.862,0.43348 1.1342,0.63103 0.4833,0.35061 2.2578,1.03141 2.6501,1.01608 0.1061,-0.005 0.5646,0.21689 1.0136,0.49133 0.698,0.42665 1.0704,0.51935 2.5775,0.65015 0.9693,0.0841 3.8749,0.21868 4.217,0.29781 l 0,0 c 1.5484,0.35822 4.6313,-0.21102 5.0709,-0.93573 0.087,-0.14349 0.2899,-0.26457 0.4496,-0.27083 0.16,-0.006 0.5654,-0.2725 0.9028,-0.59066 1.0199,-0.96215 1.7982,-1.55671 2.063,-1.5757 0.3737,-0.0269 1.0657,-0.91189 1.2501,-1.59947 0.089,-0.33232 0.2892,-0.75056 0.4445,-0.93043 0.1551,-0.17986 0.2701,-0.38692 0.2553,-0.46094 -0.011,-0.074 0.132,-0.48333 0.3275,-0.90807 0.2408,-0.52316 0.3174,-0.98196 0.2297,-1.42408 -0.071,-0.35896 -0.078,-0.99696 -0.017,-1.41678 0.061,-0.41983 0.052,-1.18091 -0.02,-1.692 -0.087,-0.61248 -0.052,-1.00221 0.1028,-1.14142 0.2895,-0.26281 0.2201,-0.66861 -0.1692,-0.98198 -0.2249,-0.18126 -0.6513,-0.21198 -1.7662,-0.13309 -1.9969,0.14129 -2.6805,0.52703 -3.9803,2.24823 -0.5661,0.74941 -1.277,1.59262 -1.5779,1.87221 -0.5432,0.50442 -2.8339,1.77528 -3.6277,2.01229 -0.6221,0.18578 -5.9889,-0.36516 -6.4239,-0.71581 -0.1192,-0.0965 -0.3543,-0.17054 -0.5225,-0.16393 -0.1686,0.007 -0.6546,-0.17176 -1.0814,-0.39761 -0.4265,-0.22587 -1.0746,-0.49851 -1.4382,-0.60581 -0.7842,-0.23145 -2.5321,-1.55721 -2.6176,-1.98815 -0.038,-0.16635 -0.4976,-0.77918 -1.0318,-1.36146 -0.8558,-0.93271 -0.9928,-1.16522 -1.1508,-1.96107 -0.098,-0.49683 -0.2777,-1.03251 -0.3952,-1.19083 -0.3755,-0.50015 -1.4865,-3.05024 -1.4107,-3.23718 0.04,-0.0986 -0.034,-0.28516 -0.1769,-0.41516 -0.1407,-0.13342 -0.239,-0.42414 -0.2272,-0.66645 0.029,-0.57583 0.8506,-0.63501 1.3451,-0.097 0.3352,0.36476 0.4208,0.36849 5.3711,0.30993 6.0847,-0.072 6.5708,-0.0654 8.1145,0.11609 1.5497,0.1821 3.1111,0.12901 3.2083,-0.10979 0.042,-0.10177 0.2098,-0.13666 0.3753,-0.0769 0.4885,0.17623 4.2643,-0.0518 5.0005,-0.30198 0.3724,-0.12659 0.7429,-0.33761 0.823,-0.4698 0.08,-0.13217 0.4501,-0.25309 0.8211,-0.26758 0.5747,-0.0225 0.7554,-0.13667 1.2231,-0.77868 1.2207,-1.67596 1.6609,-2.41617 1.6059,-2.69971 -0.026,-0.16383 0.044,-0.5289 0.1702,-0.81084 0.1734,-0.3887 0.17,-0.68273 -0.011,-1.21918 -0.1483,-0.44093 -0.2037,-1.08566 -0.1491,-1.70915 0.082,-0.93805 0.104,-1.31013 0.1771,-2.92379 0.089,-1.95358 0.068,-2.61653 -0.105,-3.27931 -0.038,-0.1392 -0.2339,-0.99113 -0.4378,-1.8934 -0.2323,-1.03084 -0.4636,-1.71621 -0.622,-1.84401 -0.1393,-0.11182 -0.3,-0.44434 -0.3586,-0.73909 -0.059,-0.29469 -0.2987,-0.72573 -0.5321,-0.95666 -0.2335,-0.23094 -0.6247,-0.81979 -0.8692,-1.31006 -0.2448,-0.49027 -0.5586,-1.0412 -0.6977,-1.22346 -0.1386,-0.18224 -0.5039,-0.68302 -0.8101,-1.11242 -0.3065,-0.4294 -0.7112,-0.821 -0.9014,-0.87114 -0.1922,-0.0506 -0.3775,-0.244 -0.4152,-0.43476 -0.086,-0.4304 -0.8833,-1.30285 -1.1812,-1.29119 -0.1227,0.005 -0.2852,-0.0969 -0.3605,-0.22584 -0.075,-0.1289 -0.3856,-0.27798 -0.6884,-0.33078 -0.3028,-0.0528 -0.6093,-0.19499 -0.6808,-0.31551 -0.071,-0.12048 -0.3884,-0.30271 -0.7052,-0.40563 -0.3168,-0.1029 -1.0115,-0.35485 -1.5438,-0.55947 -1.0021,-0.38529 -2.7427,-0.77205 -5.0076,-1.11501 -2.3277,-0.3524 -2.6719,-0.37814 -4.7337,-0.35706 -0.4714,0.005 -0.839,0.0102 -1.1475,0.0249 z m 4.0351,6.65243 c 0.7812,-0.13427 4.53073,0.17085 5.3711,0.46545 0.38578,0.13512 0.91833,0.28567 1.3472,0.38053 0.9712,0.21475 2.63273,2.24159 3.81512,4.19339 1.12589,1.85825 1.69724,3.26974 1.50881,3.72663 -0.0792,0.1926 -0.13226,0.67777 -0.11918,1.0768 0.0121,0.39856 -0.0374,1.06009 -0.10884,1.46966 -0.0715,0.40965 -0.0121,1.30714 0.12412,1.99304 l 0.24726,1.24568 -3.52806,0.26243 c -3.71736,0.27538 -6.41691,0.34903 -10.41726,0.28254 -3.38118,-0.0563 -4.52641,-0.0409 -7.02159,0.0986 -2.76584,0.15448 -1.87558,-0.5549 -1.96588,-1.73327 -0.038,-0.4865 -1.01138,-1.08634 -0.81129,-1.85344 0.19899,-0.76711 0.33466,-1.78624 0.30091,-2.26357 -0.0682,-0.9596 0.18403,-1.77571 0.76902,-2.48459 0.21185,-0.25661 0.35697,-0.61075 0.32212,-0.78679 -0.0781,-0.39713 2.10767,-3.45659 2.49004,-3.47154 0.055,-0.002 0.54457,-0.25933 1.2396,-0.65046 1.62831,-0.91639 3.626,-1.59768 4.8891,-1.74169 0.5472,-0.0625 1.2437,-0.15701 1.548,-0.20933 z"
           id="path14358" />
        <path
           d="m 893.54461,-326.57417 c 0.1112,0 0.1352,-3.42869 0.054,-3.62315 -0.2023,-0.48452 -0.257,-1.42482 -0.076,-1.31316 0.082,0.0511 0.2026,0.009 0.2663,-0.0943 0.064,-0.10309 -0.041,-0.27843 -0.2317,-0.38969 -0.2101,-0.12232 -0.2463,-0.2047 -0.091,-0.20831 0.197,-0.004 0.2394,-0.43376 0.1844,-1.86827 -0.041,-1.05418 0.013,-1.94547 0.1204,-2.05402 0.1243,-0.1248 0.077,-0.23553 -0.1354,-0.31727 -0.3589,-0.13768 -0.4559,-0.86849 -0.1151,-0.86849 0.1331,0 0.1637,-0.21831 0.082,-0.5887 -0.084,-0.37934 -0.051,-0.58871 0.089,-0.58871 0.1384,0 0.16,-0.12598 0.059,-0.34341 -0.088,-0.18886 -0.1376,-0.56417 -0.1099,-0.83399 0.2944,-2.87606 0.4132,-8.02599 0.1867,-8.10145 -0.1191,-0.0399 -0.1282,-0.17555 -0.022,-0.34781 0.2072,-0.33539 0.3253,-1.44829 0.3097,-2.91887 0,-0.58622 0.092,-1.18901 0.2159,-1.33953 0.174,-0.20972 0.1656,-0.31173 -0.037,-0.43637 -0.3297,-0.20371 -0.1387,-3.33257 0.2167,-3.55225 0.2444,-0.15098 0.2975,-0.46989 0.4363,-2.61729 0.098,-1.51271 0.021,-1.87971 -0.3956,-1.87971 -0.2133,0 -0.2719,-0.2296 -0.2377,-0.93211 0.05,-1.01889 -0.2993,-2.84387 -0.6727,-3.51567 -0.2562,-0.46141 -1.5882,-1.9024 -2.3061,-2.495 -0.6396,-0.52801 -2.5173,-1.35521 -3.2194,-1.41836 -1.4038,-0.12625 -4.7073,-0.0577 -4.8066,0.0997 -0.1321,0.20966 -1.3533,0.96206 -1.8251,1.12452 -0.1889,0.065 -0.3434,0.19627 -0.3434,0.2916 0,0.0954 -0.123,0.17335 -0.2734,0.17335 -0.1503,0 -0.3242,0.13246 -0.3863,0.29435 -0.062,0.1619 -0.2482,0.29436 -0.4134,0.29436 -0.1654,0 -0.3005,0.0883 -0.3005,0.19623 0,0.10793 -0.1808,0.39493 -0.4017,0.63776 -0.7773,0.85472 -0.9063,1.03814 -1.3453,1.91328 -0.2436,0.48568 -0.6124,1.01574 -0.8194,1.17788 -0.3613,0.28313 -0.4186,0.68788 -0.3332,2.35434 0.069,1.35149 -0.3407,2.61219 -0.6787,2.0878 -0.092,-0.14247 -0.1453,-0.099 -0.1472,0.11983 0,0.20966 0.1447,0.34341 0.3763,0.34341 0.2998,0 0.3767,0.13379 0.3667,0.63776 -0.013,0.35078 -0.088,0.73297 -0.1793,0.84933 -0.097,0.12362 -0.013,0.51768 0.2088,0.94743 0.2063,0.40471 0.365,0.88348 0.3526,1.06394 -0.013,0.18046 0.039,0.57095 0.1151,0.86775 0.076,0.29681 0.068,0.53964 -0.018,0.53964 -0.086,0 -0.1217,0.3549 -0.081,0.78863 0.042,0.43728 -0.03,0.91504 -0.1603,1.07238 -0.1872,0.22554 -0.1559,0.39587 0.1521,0.8303 0.3329,0.46967 0.3903,0.83988 0.2628,1.6959 -0.014,0.0925 -0.153,0.11905 -0.3094,0.059 -0.1901,-0.0729 -0.2482,-0.0148 -0.1752,0.17523 0.06,0.1564 0.1879,0.28436 0.2843,0.28436 0.097,0 0.1753,0.22076 0.1753,0.49059 0,0.33527 -0.1086,0.49152 -0.3434,0.49359 -0.2119,0.003 -0.2607,0.0582 -0.1282,0.14718 0.5972,0.39882 0.7433,1.08793 0.6231,2.94058 -0.03,0.45875 0.013,0.83406 0.093,0.83399 0.2122,-1.2e-4 0.1755,1.02599 -0.048,1.37356 -0.1269,0.19624 -0.1913,0.21259 -0.1933,0.0491 0,-0.1349 -0.091,-0.24529 -0.1992,-0.24529 -0.1073,0 -0.1962,0.13246 -0.1962,0.29435 0,0.26549 0.233,0.3815 0.6377,0.31758 0.2468,-0.039 0.1638,0.32979 -0.098,0.43606 -0.1897,0.0769 -0.1841,0.14243 0.025,0.28878 0.1508,0.10557 0.2048,0.29538 0.1216,0.42933 -0.081,0.13207 -0.063,0.29647 0.043,0.36535 0.2855,0.18704 0.4953,1.20453 0.2484,1.20453 -0.1313,0 -0.1444,0.12546 -0.037,0.34341 0.094,0.18888 0.1884,0.93947 0.2098,1.66799 0.037,1.22583 0.013,1.32458 -0.3718,1.32458 -0.2259,0 -0.3585,0.0844 -0.2948,0.18766 0.064,0.10322 0.2597,0.13255 0.4352,0.0652 0.2664,-0.10217 0.2991,-0.0219 0.1976,0.48537 -0.067,0.3343 -0.048,0.63611 0.041,0.67069 0.089,0.0345 0.106,0.46022 0.037,0.9459 -0.093,0.65495 -0.2085,0.87668 -0.4485,0.85835 -0.2711,-0.0207 -0.2892,0.0513 -0.1112,0.44153 0.1164,0.25641 0.2764,0.46622 0.3547,0.46622 0.079,0 0.1814,0.26402 0.2287,0.5867 0.065,0.44161 -0.033,3.92912 -0.3968,4.26295 l -6.1151,0 c 0.1033,-0.0636 0.013,-1.91892 -0.2036,-2.14974 -0.2148,-0.23052 -0.4031,-0.68947 -0.4185,-1.01989 -0.016,-0.33042 -0.052,-0.90901 -0.082,-1.28578 -0.03,-0.37677 0.037,-0.79622 0.1502,-0.93211 0.1331,-0.1606 0.1359,-0.24708 0.013,-0.24708 -0.268,0 -0.4542,-1.03306 -0.2281,-1.26571 0.219,-0.22528 0.2415,-1.2249 0.03,-1.35521 -0.082,-0.0512 -0.135,-0.74077 -0.1165,-1.53239 0.043,-1.82316 0.013,-1.6898 0.4141,-1.79468 0.2584,-0.0675 0.2342,-0.0954 -0.098,-0.11251 -0.3398,-0.0175 -0.4464,-0.14713 -0.4623,-0.5624 -0.088,-2.25685 -0.1611,-3.36868 -0.2575,-3.87563 -0.2917,-1.53459 -0.365,-2.706 -0.1613,-2.58016 0.1495,0.0924 0.1497,-0.0306 0,-0.42549 -0.2409,-0.63798 -0.051,-1.68914 0.2695,-1.49118 0.1431,0.0886 0.1623,-0.0199 0.059,-0.33539 -0.084,-0.25634 -0.1645,-0.61327 -0.1797,-0.79314 -0.016,-0.17987 -0.1344,-0.45558 -0.2649,-0.61268 -0.1579,-0.19028 -0.2043,-0.73631 -0.1392,-1.63531 0.2152,-2.9662 0.1073,-4.79781 -0.3104,-5.30189 -0.1125,-0.13594 -0.1799,-0.53983 -0.1492,-0.89757 0.031,-0.3577 0,-0.73742 -0.06,-0.8438 -0.1863,-0.30967 -0.024,-2.75748 0.2129,-3.19901 0.2784,-0.52015 0.2719,-0.63407 -0.03,-0.5181 -0.1824,0.0701 -0.2376,-0.22972 -0.215,-1.16975 0.022,-0.92584 -0.043,-1.29236 -0.2453,-1.36983 -0.389,-0.14931 -0.3429,-0.50751 0.068,-0.52604 0.1889,-0.008 0.2378,-0.0585 0.1085,-0.11094 -0.2505,-0.10191 -0.2126,-0.94429 0.1623,-3.60207 0.1418,-1.00575 0.3367,-1.61155 0.6156,-1.91328 0.3246,-0.35118 0.3464,-0.44153 0.106,-0.44153 -0.3419,0 -0.3413,-0.42265 0,-1.23923 0.1282,-0.30384 0.2319,-0.72348 0.2319,-0.93254 0,-0.54226 1.3648,-1.78215 1.8072,-1.64176 0.1957,0.0621 0.3514,0.0135 0.3514,-0.1095 0,-0.12154 -0.088,-0.16646 -0.1962,-0.0998 -0.1073,0.0667 -0.1963,0.0792 -0.1963,0.0276 0,-0.0515 0.3143,-0.28795 0.6985,-0.52537 0.5519,-0.34112 0.8659,-0.40491 1.4966,-0.30407 0.7525,0.12036 1.8972,0.70374 1.3807,0.70374 -0.1319,0 -0.2398,0.0977 -0.2398,0.21723 0,0.11944 0.1243,0.16958 0.2759,0.11133 0.3276,-0.12572 0.9928,0.54234 0.8194,0.82291 -0.067,0.10728 -0.031,0.25051 0.079,0.31829 0.1099,0.0678 0.1995,0.21156 0.1995,0.31949 0,0.10792 -0.089,0.14166 -0.1963,0.075 -0.2712,-0.1676 -0.2472,0.16491 0.031,0.44415 0.1256,0.12559 0.2165,0.54062 0.2021,0.9223 -0.037,0.96292 0.3119,0.89197 1.4163,-0.28879 0.5057,-0.54053 1.1579,-1.13258 1.4496,-1.31566 0.2917,-0.18308 0.9276,-0.65229 1.4134,-1.0427 0.5416,-0.43545 1.414,-0.86814 2.2567,-1.11932 1.6104,-0.48007 1.4268,-0.45308 3.9088,-0.57471 1.6001,-0.0784 1.9761,-0.0428 2.1121,0.20045 0.1217,0.21643 0.3571,0.26476 0.8792,0.18002 0.5461,-0.0886 0.7727,-0.0349 0.9656,0.22866 0.1384,0.18944 0.3315,0.29521 0.4288,0.23503 0.097,-0.0602 0.4345,-0.0388 0.749,0.0475 0.4178,0.1146 0.5536,0.25781 0.5042,0.53128 -0.037,0.20592 0,0.30796 0.082,0.22677 0.082,-0.0811 0.3141,10e-4 0.5149,0.18274 0.3441,0.31141 0.3823,0.30561 0.6671,-0.101 0.323,-0.46114 0.7241,-0.40756 0.54,0.0721 -0.08,0.20788 0.031,0.28808 0.4011,0.28808 0.2813,0 0.5135,-0.11042 0.5158,-0.2453 0,-0.1349 0.173,-0.0259 0.3789,0.24212 0.2728,0.35494 0.3116,0.52746 0.1429,0.63476 -0.1625,0.10335 -0.1438,0.1486 0.063,0.15159 0.162,0.003 0.4641,0.29068 0.6714,0.64077 0.4348,0.73411 0.5418,1.1271 0.3068,1.1271 -0.09,0 -0.193,-0.14726 -0.2279,-0.32722 -0.035,-0.17998 -0.258,-0.34152 -0.4958,-0.35901 -0.2378,-0.0175 -0.3872,0.0415 -0.3319,0.13099 0.055,0.0895 0.2373,0.16277 0.4044,0.16277 0.1894,0 0.2612,0.11081 0.1908,0.29435 -0.068,0.17668 0,0.29435 0.1663,0.29435 0.1536,0 0.4859,0.20664 0.7385,0.45919 0.4521,0.45215 1.6664,0.91617 1.4404,0.55042 -0.063,-0.10099 0.018,-0.23418 0.1799,-0.29606 0.1716,-0.0659 0.2931,-0.001 0.2931,0.15467 0,0.54929 0.6493,0.53364 1.108,-0.0267 0.2463,-0.30094 0.4525,-0.63548 0.4582,-0.74341 0.018,-0.33247 0.9611,-1.11713 1.1803,-0.98169 0.1138,0.0702 0.1825,0.0519 0.1528,-0.0408 -0.086,-0.26944 1.3259,-1.62666 1.6925,-1.62666 0.1831,0 0.5273,-0.22296 0.765,-0.49546 0.2377,-0.27249 0.6429,-0.53467 0.9006,-0.58261 0.2576,-0.0479 0.6178,-0.22235 0.8004,-0.38761 0.1825,-0.16522 0.4839,-0.30043 0.6697,-0.30043 0.1856,0 0.6011,-0.13624 0.923,-0.30276 0.3221,-0.16651 0.8696,-0.32104 1.2168,-0.34341 0.3472,-0.0224 0.684,-0.11225 0.7483,-0.19977 0.1654,-0.22473 1.5304,-0.3272 1.6559,-0.12428 0.057,0.0925 0.2294,0.11996 0.3829,0.0611 0.1533,-0.0589 0.4792,0.0332 0.7241,0.20481 0.2449,0.17153 0.3372,0.31185 0.2054,0.31185 -0.132,0 -0.24,0.0883 -0.24,0.19624 0,0.10792 0.1767,0.19623 0.3925,0.19623 0.2159,0 0.3925,-0.078 0.3925,-0.17335 0,-0.26264 0.858,-0.37145 1.3867,-0.17587 0.3493,0.12925 0.4019,0.21405 0.2071,0.33442 -0.1634,0.101 0,0.15227 0.4385,0.13712 0.3848,-0.0133 0.7031,0.042 0.7072,0.12297 0.061,1.17026 -0.014,1.55424 -0.2866,1.44986 -0.1618,-0.0621 -0.2943,-0.0275 -0.2943,0.077 0,0.10453 0.1987,0.19744 0.4415,0.20643 0.2428,0.009 0.6402,0.0383 0.883,0.0653 0.3801,0.0421 0.5589,-0.11539 0.3925,-0.34586 -0.1007,-0.14006 0.4997,-0.71698 0.7467,-0.71698 0.1415,0 0.3157,0.18468 0.3874,0.4104 0.094,0.29686 0.2423,0.38109 0.5355,0.30444 0.4772,-0.12481 1.1885,0.20381 1.0226,0.47241 -0.063,0.10257 -0.2866,0.18638 -0.4961,0.18638 -0.518,0 -0.4787,0.35498 0.099,0.89016 0.4183,0.38764 0.525,0.41017 0.834,0.17591 0.4683,-0.35508 0.6487,-0.34751 0.6487,0.0272 0,0.43841 -0.5457,0.92756 -0.8882,0.79614 -0.1591,-0.0611 -0.2892,-0.0317 -0.2892,0.0654 0,0.0971 0.1987,0.20465 0.4415,0.23913 0.3259,0.0463 0.4365,0.1872 0.4223,0.53782 l -0.02,0.47512 0.3449,-0.42606 c 0.1899,-0.23433 0.4883,-0.42605 0.6632,-0.42605 0.4088,0 0.6368,0.58034 0.3079,0.78364 -0.1867,0.11539 -0.142,0.21384 0.1731,0.38253 0.2335,0.12493 0.3784,0.30178 0.322,0.39299 -0.056,0.0912 0.03,0.21647 0.1907,0.27834 0.1613,0.0619 0.2933,0.28669 0.2933,0.49957 0,0.21287 0.077,0.43458 0.1709,0.49266 0.094,0.0581 0.2238,0.37057 0.2886,0.69444 0.09,0.45097 0.1953,0.55906 0.4489,0.46172 0.2796,-0.10727 0.3127,-0.0344 0.2122,0.46806 -0.095,0.47889 -0.021,0.67991 0.3802,1.02925 0.3332,0.28969 0.4652,0.56454 0.3969,0.82608 -0.056,0.21557 0.026,0.88615 0.1836,1.4902 0.169,0.64917 0.2118,1.14471 0.1046,1.21185 -0.099,0.0624 -0.3303,0.73169 -0.512,1.48719 -0.6598,2.74391 -0.856,3.04853 -1.2826,1.99133 -0.1408,-0.34902 -0.1722,-0.3609 -0.1824,-0.0691 -0.013,0.19377 0.2194,0.5842 0.5028,0.8676 0.489,0.48897 0.4971,0.52862 0.1588,0.77603 -0.1961,0.1434 -0.2484,0.26072 -0.1164,0.26072 0.4176,0 0.2268,2.66643 -0.3069,4.29266 -0.2614,0.796 -0.5091,2.07643 -0.5505,2.84539 -0.042,0.76896 -0.1589,1.67619 -0.2609,2.01603 -0.119,0.39842 -0.1164,0.68681 0.013,0.81186 0.1282,0.12768 0.1216,0.23892 -0.02,0.32578 -0.1178,0.0725 -0.212,0.23702 -0.2104,0.36555 0,0.15933 0.056,0.15036 0.169,-0.0281 0.1256,-0.19769 0.1934,-0.15723 0.2776,0.16499 0.097,0.37176 0.05,0.41144 -0.3652,0.3072 -0.3483,-0.0874 -0.4769,-0.0393 -0.4769,0.1784 0,0.16395 0.099,0.29809 0.2203,0.29809 0.1603,0 0.1588,0.0739 0,0.27175 -0.1796,0.21635 -0.1295,0.29604 0.2487,0.39078 0.5004,0.12559 0.8815,0.75329 0.5287,0.87091 -0.1138,0.0381 -0.2103,0.21633 -0.2137,0.3962 0,0.2891 -0.038,0.28501 -0.2808,-0.0354 -0.1511,-0.19938 -0.2328,-0.47188 -0.1814,-0.6056 0.06,-0.1551 -0.069,-0.23001 -0.3568,-0.2069 -0.2477,0.0199 -0.5232,-0.0608 -0.6124,-0.17932 -0.1047,-0.13894 -0.1349,-0.11094 -0.085,0.0788 0.042,0.1619 0.271,0.38206 0.5083,0.48921 0.2373,0.10715 0.3917,0.29858 0.3431,0.42531 -0.048,0.12677 0.044,0.28124 0.206,0.34338 0.1682,0.0645 0.2346,0.21872 0.155,0.35965 -0.1112,0.19746 -0.086,0.19773 0.1256,0.003 0.423,-0.39269 0.5944,-0.28617 0.4735,0.29435 -0.061,0.2968 -0.1579,0.80456 -0.2135,1.12835 -0.056,0.32379 -0.2245,0.6845 -0.3752,0.80158 -0.2077,0.16135 -0.2191,0.2679 -0.047,0.44024 0.1256,0.12507 0.2368,0.56102 0.2483,0.9688 0.013,0.40777 0.089,0.85139 0.1719,0.98585 0.082,0.13445 0.092,0.72193 0.018,1.30549 -0.073,0.58356 -0.059,1.17807 0.033,1.32114 0.09,0.1431 0.1829,0.48092 0.2048,0.75074 0.022,0.26982 0.1449,1.03616 0.2732,1.70297 0.3082,1.60342 0.1711,2.07638 -0.6928,2.38879 -0.3815,0.13792 -0.6937,3.19397 -0.6937,3.30748 l -5.5183,0 c -0.1447,-0.0893 -0.1778,-2.90726 -0.097,-3.59905 0.077,-0.65899 0.05,-1.05292 -0.075,-1.05292 -0.3798,0 -0.1944,-0.40357 0.2658,-0.57853 0.2551,-0.0969 0.5159,-0.31178 0.5793,-0.47729 0.095,-0.24732 0.03,-0.26836 -0.3656,-0.118 -0.4625,0.17583 -0.6411,0.0254 -0.334,-0.28159 0.2118,-0.21181 0.1925,-0.58271 -0.038,-0.74259 -0.2504,-0.17324 -0.321,-1.3342 -0.081,-1.3342 0.098,0 0.041,-0.20961 -0.1269,-0.46577 -0.3758,-0.57361 -0.6111,-2.38073 -0.3539,-2.71955 0.1034,-0.13684 0.1654,-0.49163 0.1368,-0.78842 -0.029,-0.29682 0.029,-0.53965 0.1269,-0.53965 0.098,0 0.3215,-0.27463 0.495,-0.61031 0.1736,-0.33565 0.22,-0.5512 0.1033,-0.47898 -0.1256,0.0773 -0.2123,-0.0283 -0.2123,-0.2564 0,-0.21326 0.1047,-0.42244 0.2314,-0.46488 0.1282,-0.0428 0.1753,-0.22375 0.106,-0.40553 -0.072,-0.18873 -0.2492,-0.28104 -0.4158,-0.21712 -0.4058,0.15573 -0.5423,-0.808 -0.4062,-2.8651 0.061,-0.91739 0.1283,-2.17575 0.1506,-2.79633 0.026,-0.75051 0.1217,-1.12835 0.2853,-1.12835 0.2851,0 0.3284,-0.31798 0.065,-0.48054 -0.1034,-0.0636 -0.1125,-0.38426 -0.022,-0.74748 0.086,-0.3499 0.27,-1.40736 0.4073,-2.3499 0.1948,-1.33782 0.3266,-1.73817 0.601,-1.82522 0.2234,-0.0709 0.3077,-0.22497 0.2317,-0.42335 -0.1047,-0.27351 -0.1534,-0.26625 -0.394,0.0591 -0.2527,0.34202 -0.2667,0.32503 -0.1807,-0.21775 0.051,-0.32379 0.1112,-0.61079 0.134,-0.63776 0.022,-0.0269 0.052,-0.15933 0.065,-0.29411 0.013,-0.13477 0.201,-0.24515 0.4169,-0.24529 0.2547,-1.6e-4 0.3634,-0.10361 0.3099,-0.2946 -0.046,-0.16189 -0.089,-0.49198 -0.098,-0.73352 -0.013,-0.32599 -0.1034,-0.4111 -0.359,-0.33021 -0.4496,0.14274 -0.4614,-0.44295 -0.018,-0.93223 0.1943,-0.21469 0.2338,-0.35885 0.098,-0.35885 -0.268,0 -0.2964,-0.76314 -0.043,-1.16323 0.1178,-0.18497 0.013,-0.71856 -0.3108,-1.56988 -0.7928,-2.09432 -1.2429,-3.608 -1.2446,-4.18414 0,-0.32369 -0.1086,-0.53964 -0.2686,-0.53964 -0.1791,0 -0.2363,-0.16162 -0.1734,-0.49059 0.076,-0.39831 0.016,-0.49058 -0.3215,-0.49058 -0.2454,0 -0.4154,-0.1252 -0.4154,-0.30593 0,-0.16828 0.088,-0.25137 0.1963,-0.18466 0.1072,0.0667 0.1962,0.0736 0.1962,0.0156 0,-0.0581 -0.3311,-0.27472 -0.7359,-0.48128 -0.4048,-0.20656 -0.9041,-0.56159 -1.1098,-0.78893 -0.2055,-0.22733 -0.5044,-0.41335 -0.6643,-0.41335 -0.1597,0 -0.5148,-0.24203 -0.7888,-0.53785 -0.2767,-0.29855 -0.7671,-0.57052 -1.1018,-0.61123 -1.207,-0.14673 -2.9776,-0.0805 -3.8012,0.1422 -1.117,0.30205 -3.4757,1.9784 -4.4553,3.16642 -0.4317,0.52353 -0.8954,0.95825 -1.0302,0.96604 -0.1396,0.008 -0.2453,0.27224 -0.2453,0.61263 0,0.68411 -0.4952,1.75635 -0.811,1.75635 -0.1164,0 -0.1565,0.14524 -0.089,0.32272 0.071,0.18446 -0.025,0.48753 -0.2243,0.70735 -0.1914,0.21154 -0.3607,0.57406 -0.3761,0.80562 -0.016,0.23155 -0.086,1.12744 -0.1561,1.99087 -0.071,0.86343 -0.1138,1.87894 -0.097,2.25669 0.017,0.37775 0.043,1.15043 0.057,1.71705 0.014,0.56663 0.093,1.03023 0.1735,1.03023 0.081,0 0.1472,0.40682 0.1472,0.90405 0,0.72297 -0.059,0.88143 -0.2944,0.7911 -0.1619,-0.0621 -0.2943,-0.0275 -0.2943,0.0772 0,0.10453 0.1112,0.19008 0.2471,0.19008 0.3674,0 0.7921,0.7702 0.5768,1.04561 -0.099,0.1265 -0.1559,1.04098 -0.1269,2.03228 0.044,1.48618 0,1.78371 -0.224,1.69605 -0.4334,-0.1663 -0.3247,0.33884 0.1641,0.76279 0.383,0.3322 0.4024,0.41272 0.1472,0.61171 -0.2006,0.15639 -0.2745,0.49866 -0.2329,1.07767 0.034,0.46668 -0.043,0.97443 -0.1712,1.12834 -0.1799,0.21681 -0.1772,0.27985 0.013,0.27985 0.1897,0 0.187,0.0692 -0.013,0.3093 -0.1931,0.2328 -0.1998,0.34449 -0.026,0.45156 0.1646,0.10165 0.1766,0.32928 0.042,0.79793 -0.1034,0.36061 -0.1407,0.73219 -0.082,0.82571 0.159,0.25707 -0.1177,0.97348 -0.3268,0.84463 -0.1007,-0.0619 -0.1821,-0.0285 -0.1821,0.0743 0,0.10269 0.1326,0.23764 0.2944,0.29977 0.3433,0.13171 0.4208,1.69514 0.084,1.69514 -0.1151,0 -0.075,0.13501 0.09,0.30003 0.2993,0.2993 0.2356,0.87738 -0.097,0.87738 -0.2317,0 -0.2269,0.73355 0,0.81765 0.099,0.036 0.013,0.41233 -0.1963,0.83633 -0.2072,0.42401 -0.3769,0.88025 -0.3769,1.01386 0,0.13364 -0.1099,0.28751 -0.2453,0.34194 -0.1465,0.0591 -0.1072,0.10519 0.098,0.11447 0.4204,0.0191 0.4517,0.32439 0.048,0.47891 -0.4412,0.1693 -0.3555,0.63744 0.1962,1.07138 0.4719,0.37116 0.6981,0.77518 0.2944,0.52565 -0.1073,-0.0667 -0.1963,0.0385 -0.1963,0.23371 1e-4,0.19524 -0.1721,0.88482 -0.3825,1.5324 -0.2105,0.64757 -0.5416,3.27877 -0.7359,3.96501 z"
           id="path14360" />
        <path
           d="m 702.16534,-311.71039 c -0.1158,0.0407 -0.1831,0.18569 -0.3099,0.4749 -0.1422,0.32441 -0.5526,0.76517 -0.9118,0.97776 -0.433,0.25595 -0.6137,0.48499 -0.5383,0.68062 0.068,0.17491 -0.026,0.35211 -0.2261,0.43429 -0.1858,0.0763 -0.3611,0.35629 -0.391,0.6222 -0.043,0.38233 0,0.43332 0.1853,0.24381 0.1318,-0.13187 0.3054,-0.23873 0.3861,-0.23873 0.081,0 -0.07,0.21998 -0.3379,0.48761 -0.3666,0.3665 -0.4876,0.69047 -0.4876,1.31554 0,0.45645 -0.023,3.59469 -0.053,6.97383 -0.051,5.74851 -0.031,6.17862 0.3125,6.67923 0.3726,0.54277 0.3007,1.02769 -0.1275,0.86347 -0.2938,-0.11273 -0.4097,1.15033 -0.1222,1.32823 0.1326,0.0817 0.1375,0.24522 0.013,0.47745 -0.1027,0.19394 -0.131,0.40717 -0.064,0.47492 0.068,0.0677 0.021,0.12444 -0.104,0.12444 -0.1496,0 -0.2286,0.43138 -0.2286,1.26727 0,1.13776 0.04,1.26728 0.3911,1.26728 0.2146,0 0.3885,0.0971 0.3885,0.21586 0,0.11859 -0.1312,0.1659 -0.292,0.10416 -0.2383,-0.0915 -0.2989,0.11104 -0.3301,1.09965 -0.036,1.17018 -0.094,2.08253 -0.1448,2.28568 -0.013,0.0537 -0.051,2.40301 -0.083,5.21895 -0.039,3.41489 0.013,5.1199 0.1423,5.1199 0.1105,0 0.048,0.11104 -0.1371,0.24634 -0.2829,0.20677 -0.3489,0.68047 -0.4217,2.97391 -0.048,1.50063 -0.1001,2.85872 -0.1144,3.01963 -0.059,0.62628 0.1235,1.86135 0.2921,1.98345 0.099,0.0709 0.038,0.27033 -0.1371,0.44443 -0.3132,0.31343 -0.2749,0.70401 0.1274,1.27998 0.1689,0.2415 0.1572,0.2495 -0.069,0.0482 -0.3829,-0.34177 -0.6378,-0.30467 -0.4317,0.0634 0.1014,0.18052 0.095,0.75982 -0.016,1.39934 -0.1412,0.81761 -0.1261,1.19208 0.059,1.48822 0.1483,0.23879 0.1691,0.42106 0.053,0.45968 -0.2734,0.0912 -0.1131,5.55058 0.1676,5.72433 0.1184,0.0737 0.1591,0.22496 0.091,0.33523 -0.068,0.11026 -0.036,0.42628 0.069,0.70348 0.142,0.37177 0.1287,0.50532 -0.048,0.50792 -0.1532,10e-4 -0.1338,0.0696 0.053,0.19048 0.1942,0.126 0.2108,0.1904 0.048,0.193 -0.1346,0.001 -0.2438,0.1337 -0.2438,0.29461 0,0.16091 0.086,0.29459 0.1904,0.29459 0.1144,0 0.1261,0.17159 0.029,0.43682 -0.09,0.24138 -0.1328,1.91952 -0.1015,3.72817 0.047,2.69442 0.1132,3.35211 0.3709,3.63677 l 0,0 c 0.3732,0.41227 0.9993,0.30352 1.28,-0.22095 0.1131,-0.21161 0.4065,-0.36571 0.6958,-0.36571 0.718,0 1.633,-1.03442 1.633,-1.84886 0,-0.47524 0.1014,-0.66576 0.3911,-0.74157 0.2835,-0.0742 0.3886,-0.26801 0.3886,-0.70602 0,-0.76241 0.5991,-2.16376 0.9243,-2.16376 0.2795,0 0.3527,-0.87896 0.2617,-3.12121 -0.033,-0.80455 -0.1375,-1.49284 -0.2337,-1.52885 -0.096,-0.036 -0.1183,-0.154 -0.051,-0.26413 0.068,-0.11014 0.1343,-0.76119 0.1473,-1.44506 0.02,-1.00432 -0.033,-1.23348 -0.2693,-1.19616 -0.3599,0.0568 -0.413,-0.81895 -0.072,-1.17077 0.2355,-0.24218 0.1477,-1.02601 -0.1144,-1.02601 -0.078,0 -0.241,-0.21901 -0.3632,-0.48761 -0.19,-0.41702 -0.1647,-0.52542 0.1651,-0.73141 0.4182,-0.26117 0.5459,-1.39082 0.1829,-1.61521 -0.1119,-0.0691 -0.1514,-0.29146 -0.086,-0.49523 0.065,-0.20376 0.1552,-0.74357 0.2007,-1.20125 0.045,-0.45766 0.1209,-1.03098 0.1702,-1.27235 0.066,-0.32741 0,-0.43936 -0.2667,-0.43936 -0.537,0 -0.6475,-0.71616 -0.1346,-0.87109 0.3989,-0.12053 0.4009,-0.13346 0.04,-0.27682 -0.3461,-0.13775 -0.3507,-0.15935 -0.038,-0.27936 0.1861,-0.0717 0.291,-0.21173 0.2286,-0.31237 -0.062,-0.10065 -0.025,-0.23741 0.083,-0.30477 0.1093,-0.0673 0.1981,-0.29845 0.1981,-0.513 0,-0.26014 -0.081,-0.34146 -0.2438,-0.2438 -0.1842,0.11026 -0.1931,0.0771 -0.035,-0.1346 0.2926,-0.39396 0.3513,-1.61731 0.069,-1.44252 -0.1568,0.0969 -0.163,0.033 -0.023,-0.22856 0.241,-0.45062 0.4609,-2.23151 0.5181,-4.17008 0.023,-0.80455 0.1106,-1.67142 0.193,-1.92758 0.136,-0.42298 0.104,-0.45667 -0.3581,-0.36825 -0.4066,0.0778 -0.5105,0.0211 -0.5105,-0.27936 0,-0.28735 0.094,-0.34608 0.3911,-0.25142 0.3316,0.10506 0.3886,0.0333 0.3886,-0.46475 0,-0.32272 -0.079,-0.63488 -0.1778,-0.69586 -0.1001,-0.0622 -0.042,-0.38901 0.1372,-0.74411 0.2554,-0.51018 0.3244,-1.3647 0.353,-4.4342 0.021,-2.24216 -0.043,-3.90186 -0.155,-4.04056 -0.1053,-0.12938 -0.1447,-0.30848 -0.088,-0.39872 0.056,-0.0902 0.019,-0.2912 -0.079,-0.44697 -0.1235,-0.19432 -0.1815,-0.20541 -0.1828,-0.0381 0,0.13406 -0.091,0.2438 -0.1981,0.2438 -0.3135,0 -0.2231,-0.42505 0.1472,-0.69586 0.1961,-0.14342 0.4253,-0.17736 0.5411,-0.0813 0.182,0.15144 0.2501,-0.88534 0.096,-1.4679 -0.031,-0.10727 -0.044,-0.25611 -0.031,-0.33269 0.013,-0.0766 -0.1092,-0.0892 -0.2692,-0.028 -0.3927,0.15054 -0.3695,-0.12275 0.035,-0.41903 0.2854,-0.20853 0.2969,-0.31779 0.075,-0.85078 -0.1392,-0.33622 -0.333,-0.61205 -0.4266,-0.61205 -0.095,0 -0.1701,-0.0921 -0.1701,-0.20571 0,-0.11364 0.078,-0.15783 0.1727,-0.0991 0.3031,0.18732 0.53,-0.3511 0.5079,-1.20632 -0.014,-0.57245 0.058,-0.83046 0.2388,-0.83046 0.1824,0 0.2434,-0.2274 0.2057,-0.75935 -0.03,-0.4187 -0.1249,-0.71732 -0.2134,-0.66284 -0.088,0.0545 -0.3853,-0.10805 -0.6603,-0.36064 -0.3443,-0.31625 -0.5269,-0.38375 -0.5867,-0.21586 -0.048,0.13406 -0.1827,0.24381 -0.2971,0.24381 -0.1157,0 -0.045,-0.17761 0.1524,-0.39619 0.3192,-0.35273 0.379,-0.3621 0.5334,-0.0863 0.1984,0.35459 0.5898,0.12886 0.9523,-0.54855 0.2487,-0.4647 -0.1627,-0.82305 -0.5638,-0.49015 -0.199,0.16492 -0.2272,0.13489 -0.1222,-0.13969 0.087,-0.22635 0.062,-0.30605 -0.072,-0.22348 -0.279,0.17233 -0.4521,-0.32295 -0.2336,-0.66792 0.1685,-0.26657 0.1993,-0.23607 0.2513,0.2438 0.04,0.38009 0.4546,0.39767 0.6096,0.0254 0.2084,-0.50004 0.3235,-3.28456 0.1854,-4.50532 -0.092,-0.80981 -0.2061,-1.06872 -0.5232,-1.18599 -0.3234,-0.11976 -0.3455,-0.1735 -0.1092,-0.26413 0.4631,-0.17687 0.8484,-2.64344 0.4622,-2.9409 -0.1448,-0.11195 -0.1338,-0.19292 0.035,-0.26158 0.2923,-0.11884 0.3384,-2.01646 0.048,-2.01646 -0.1079,0 -0.1955,-0.14341 -0.1955,-0.31746 0,-0.26138 -0.052,-0.2724 -0.2971,-0.0685 -0.1635,0.13562 -0.3528,0.19082 -0.4217,0.12183 -0.069,-0.0689 -0.023,-0.12703 0.1014,-0.12703 0.1248,0 0.2285,-0.097 0.2285,-0.21588 0,-0.13328 -0.1873,-0.16937 -0.4877,-0.094 -0.3783,0.095 -0.4876,0.0494 -0.4876,-0.21079 0,-0.24471 -0.059,-0.27926 -0.2158,-0.12184 -0.1574,0.1573 -0.3909,0.14414 -0.8634,-0.0533 -0.3175,-0.13264 -0.4814,-0.19815 -0.5968,-0.15745 z m 0,0.56379 c 0.053,-0.0139 0.1274,-0.005 0.2081,0.0254 0.161,0.0618 0.2922,0.1458 0.2922,0.18793 0,0.0421 -0.1312,0.0762 -0.2922,0.0762 -0.1608,0 -0.2945,-0.084 -0.2945,-0.18794 0,-0.0519 0.034,-0.0878 0.086,-0.10155 z m -39.3456,1.91234 c -0.2477,0.009 -0.4357,0.11573 -0.6349,0.3454 -0.2364,0.27254 -0.5065,0.38429 -0.762,0.31745 -0.2173,-0.0568 -0.3961,-0.0252 -0.3961,0.0685 0,0.0937 -0.1931,0.0975 -0.4292,0.0104 -0.3553,-0.13138 -0.5896,0.003 -1.3639,0.77712 -0.5148,0.5148 -0.9371,1.00759 -0.9371,1.09458 0,0.0869 -0.1979,0.24463 -0.4394,0.35047 -0.3706,0.16272 -0.4526,0.3842 -0.5358,1.42982 -0.053,0.6804 -0.029,1.28214 0.058,1.33584 0.087,0.0537 0.1066,0.50615 0.043,1.0057 -0.091,0.70661 -0.279,4.41879 -0.348,6.85701 -0.027,0.95086 0.3328,3.38435 0.6121,4.13959 0.091,0.24416 0.1248,0.55563 0.077,0.69333 -0.048,0.1377 0,0.35713 0.094,0.48761 0.2745,0.35899 0.056,11.91118 -0.2641,13.9883 -0.221,1.43457 -0.2527,11.53675 -0.038,12.24611 0.1249,0.41977 0.1249,0.72409 0,0.87871 -0.3765,0.46484 0.027,7.99875 0.4495,8.39349 0.1904,0.17725 0.1809,0.31341 -0.038,0.6476 -0.3754,0.57298 -0.2719,5.5298 0.1347,6.4532 0.2546,0.57996 0.2476,0.65452 -0.104,0.91174 -0.211,0.15386 -0.3305,0.33293 -0.2642,0.39872 0.065,0.0658 0.047,0.51262 -0.043,0.993 -0.1847,0.98871 0.048,1.84377 0.5029,1.84377 0.1636,0 0.2972,0.0832 0.2972,0.18285 0,0.0996 0.1427,0.32048 0.3149,0.49269 l 0,0 c 0.1721,0.17219 0.4585,0.27388 0.6349,0.22603 0.1765,-0.048 0.647,-0.14103 1.0462,-0.20825 0.3991,-0.0672 0.9693,-0.32316 1.2673,-0.56888 0.2983,-0.24573 0.957,-0.56183 1.4654,-0.70094 0.6897,-0.18865 0.9959,-0.39352 1.2038,-0.81014 0.16,-0.31847 0.2043,-0.60726 0.1015,-0.67046 -0.3135,-0.19372 -0.1956,-0.43063 0.2742,-0.54857 0.5846,-0.14664 0.5811,-0.11325 0.4953,-4.99291 -0.031,-1.80799 -0.083,-2.08248 -0.4445,-2.38472 -0.359,-0.30056 -0.3668,-0.34273 -0.066,-0.34793 0.1877,-0.004 0.3502,-0.11482 0.3632,-0.24888 0.013,-0.13409 0.051,-0.49165 0.086,-0.79491 0.035,-0.30325 -0.013,-0.75799 -0.1092,-1.01077 -0.1196,-0.31732 -0.1027,-0.49052 0.059,-0.55618 0.1321,-0.0538 0.092,-0.10013 -0.094,-0.10923 -0.1814,-0.009 -0.3832,0.0676 -0.4469,0.17016 -0.1814,0.29334 -0.6883,0.005 -0.6883,-0.3911 0,-0.40356 0.3078,-0.67093 0.4698,-0.40889 0.059,0.0947 0.3251,0.12964 0.5918,0.0787 0.4305,-0.0823 0.452,-0.12443 0.1929,-0.38348 -0.1652,-0.17182 -0.244,-0.4648 -0.1777,-0.7111 0.1001,-0.36767 0.087,-0.37618 -0.1014,-0.0762 -0.1184,0.18774 -0.3462,0.34031 -0.5081,0.34031 -0.1608,0 -0.2389,-0.0883 -0.1726,-0.19555 0.066,-0.10727 -0.027,-0.19301 -0.2057,-0.19301 -0.2197,0 -0.2851,-0.10455 -0.2057,-0.30984 0.065,-0.16968 0.1196,-0.43198 0.1196,-0.58411 0,-0.15218 0.094,-0.27682 0.2083,-0.27682 0.1222,0 0.1528,0.16632 0.079,0.40125 -0.1183,0.37181 -0.091,0.38394 0.3302,0.1473 0.6125,-0.34409 0.7441,-0.55031 0.7441,-1.18346 0,-0.60834 -0.2706,-0.70325 -0.5664,-0.19555 -0.117,0.20129 -0.2057,0.23886 -0.2057,0.0914 0,-0.13754 -0.2031,-0.32966 -0.4444,-0.42666 -0.3845,-0.15457 -0.3516,-0.17753 0.2692,-0.18794 0.8087,-0.014 1.0297,-0.41836 0.7542,-1.37901 -0.09,-0.31289 -0.1196,-0.93157 -0.069,-1.37649 0.068,-0.58837 0,-0.90989 -0.2412,-1.17839 -0.1963,-0.2163 -0.2412,-0.36824 -0.1092,-0.36824 0.3531,0 0.2612,-0.54932 -0.1041,-0.61967 -0.2868,-0.0553 -0.2912,-0.0992 -0.043,-0.35555 0.3011,-0.31137 0.3962,-1.77738 0.1275,-1.96821 -0.088,-0.0625 -0.065,-0.36739 0.053,-0.67809 0.1611,-0.42309 0.1565,-0.58531 -0.016,-0.64253 -0.1636,-0.0545 -0.1518,-0.12417 0.038,-0.24634 0.216,-0.1393 0.2183,-0.20235 0.013,-0.33522 -0.2049,-0.13306 -0.2029,-0.20449 0.013,-0.38349 0.1458,-0.12092 0.2863,-0.63745 0.3123,-1.14792 0.027,-0.51046 0.075,-0.95417 0.1066,-0.98538 0.053,-0.0528 1.3326,-0.17374 3.4311,-0.32507 0.4827,-0.0349 2.7652,-0.10506 5.0717,-0.15491 5.9851,-0.12912 13.3575,-0.32755 13.3575,-0.85841 0,-0.36696 0.1831,-0.34119 0.5612,0.0787 0.2645,0.29333 0.6163,0.34568 2.1689,0.32761 2.4784,-0.029 2.3595,-10e-4 3.2305,-0.77712 0.4218,-0.37538 0.8999,-0.68055 1.0615,-0.68062 0.2843,-1.6e-4 0.5211,-0.43643 0.8991,-1.65838 0.1196,-0.38494 0.3285,-0.60665 0.6146,-0.64761 0.3088,-0.0443 0.4368,-0.19591 0.4368,-0.52316 0,-0.25308 0.1235,-0.58277 0.2742,-0.73397 0.4424,-0.44236 0.085,-0.70446 -1.0869,-0.79235 -0.6018,-0.0451 -1.1699,-0.12431 -1.2622,-0.17778 -0.092,-0.0534 -0.9596,-0.11183 -1.9251,-0.12691 -0.9655,-0.0153 -1.9125,-0.0759 -2.1053,-0.13714 -0.1928,-0.0611 -0.4758,-0.009 -0.6273,0.11677 -0.165,0.13705 -0.5128,0.17465 -0.8685,0.0965 -0.4657,-0.10221 -0.5918,-0.064 -0.5918,0.17777 0,0.36607 -0.3208,0.41395 -0.4469,0.0661 -0.066,-0.18424 -0.1783,-0.19155 -0.4572,-0.028 -0.2315,0.13562 -0.5381,0.15358 -0.8228,0.0482 -0.2499,-0.0925 -0.5337,-0.11923 -0.6273,-0.061 -0.095,0.0582 -7.7697,0.14758 -10.2669,0.20063 -2.4972,0.0531 -4.9343,0.13852 -5.417,0.18793 -0.7586,0.0776 -2.8835,0.085 -4.2233,0.0152 -0.3376,-0.0176 -0.4376,-0.17402 -0.5156,-0.80253 -0.053,-0.4291 -0.066,-1.25674 -0.026,-1.83869 0.044,-0.65139 -0.018,-1.16992 -0.165,-1.34855 -0.1939,-0.22961 -0.193,-0.30577 0,-0.37079 0.37,-0.12457 0.2957,-1.16943 -0.099,-1.39933 -0.313,-0.18276 -0.3077,-0.20051 0.051,-0.20571 0.3713,-0.005 0.3903,-0.14861 0.4191,-3.01709 0.016,-1.65576 0.072,-3.08195 0.1222,-3.16946 0.052,-0.0875 0.061,-0.42229 0.021,-0.74411 -0.042,-0.32182 -0.097,-1.44058 -0.1248,-2.4863 -0.027,-1.04573 -0.1323,-1.89965 -0.2337,-1.89965 -0.1027,-1.9e-4 -0.081,-0.1074 0.048,-0.23618 0.2831,-0.28304 0.3113,-0.61577 0.038,-0.44698 -0.1079,0.0663 -0.1954,0.0335 -0.1954,-0.0711 0,-0.10467 0.1027,-0.22276 0.226,-0.26411 0.3633,-0.12106 0.4014,-3.38763 0.043,-3.68502 -0.1574,-0.1308 -0.213,-0.28993 -0.1222,-0.353 0.09,-0.0631 0.2478,-0.46485 0.3505,-0.89395 0.1447,-0.60643 0.3365,-0.85442 0.8583,-1.1149 0.9126,-0.45546 1.0937,-0.83653 0.6934,-1.44758 -0.373,-0.56925 -0.2658,-1.04374 0.2362,-1.04634 0.271,-7e-4 0.2098,-0.13108 -0.2845,-0.59427 -0.3486,-0.32675 -0.6349,-0.76782 -0.6349,-0.9803 0,-0.21248 -0.1311,-0.43855 -0.2921,-0.50032 -0.1608,-0.0618 -0.292,-0.2302 -0.292,-0.37586 0,-0.34295 -0.5324,-0.5843 -1.2697,-0.5765 -0.322,0.003 -0.6362,-0.0655 -0.6986,-0.14983 -0.062,-0.0843 -0.3556,-0.19506 -0.6526,-0.24889 -0.098,-0.0178 -0.1867,-0.0259 -0.2691,-0.0229 z m 4.8862,4.42659 c -0.291,0.003 -0.2981,0.0315 -0.048,0.19301 0.368,0.23788 0.3885,0.23788 0.3885,0 0,-0.10727 -0.1525,-0.19561 -0.3402,-0.19301 z m 35.6632,2.92312 c 0.043,0 0.077,0.13114 0.077,0.29206 0,0.16091 -0.085,0.29459 -0.188,0.29459 -0.1041,0 -0.1411,-0.13368 -0.079,-0.29459 0.061,-0.16092 0.1488,-0.29206 0.1904,-0.29206 z m 0.8405,3.73072 c 0.068,0.003 0.1248,0.0209 0.1575,0.0533 0.065,0.0648 -0.048,0.10935 -0.254,0.10155 -0.2275,-0.009 -0.275,-0.0545 -0.1196,-0.11689 0.07,-0.0282 0.1483,-0.0408 0.2158,-0.0381 z m -2.3135,0.56126 c 0.1131,0 0.1527,0.0883 0.086,0.19555 -0.066,0.10727 -0.1589,0.19301 -0.2057,0.19301 -0.047,0 -0.086,-0.0857 -0.086,-0.19301 -4e-4,-0.10728 0.092,-0.19555 0.2057,-0.19555 z m 2.189,7.09573 c 0.021,-0.0205 0.048,0.007 0.079,0.0839 0.056,0.14079 0.049,0.30857 -0.016,0.37332 -0.065,0.0648 -0.1171,-0.051 -0.1041,-0.25649 0,-0.11352 0.02,-0.18013 0.04,-0.20064 z m -0.4824,12.30452 c 0.06,0.0601 0,0.21815 -0.1347,0.35047 -0.1924,0.19114 -0.2144,0.16877 -0.1092,-0.10923 0.073,-0.19233 0.184,-0.30134 0.2438,-0.24127 z m -28.3388,0.9803 c 0.1066,-0.0663 0.1955,0.0181 0.1955,0.1854 0,0.16721 -0.088,0.30221 -0.1955,0.30221 -0.108,0 -0.1956,-0.0819 -0.1956,-0.18286 0,-0.1009 0.088,-0.23843 0.1956,-0.30475 z m 28.9381,2.10536 c 0.081,-0.008 0.1454,6.9e-4 0.1701,0.0254 0.2168,0.21651 -0.082,0.44007 -0.424,0.31745 -0.3571,-0.12807 -0.3602,-0.14236 -0.023,-0.27174 0.098,-0.0375 0.1962,-0.0627 0.2768,-0.0711 z m -0.2691,0.91934 c 0.1729,0 0.2616,0.0883 0.1955,0.19555 -0.066,0.10728 -0.1539,0.19302 -0.1955,0.19302 -0.042,0 -0.1287,-0.0857 -0.1956,-0.19302 -0.066,-0.10727 0.022,-0.19555 0.1956,-0.19555 z m 0.2057,0.97522 c 0.047,0 0.086,0.0883 0.086,0.19555 0,0.10728 -0.092,0.19302 -0.2057,0.19302 -0.1131,0 -0.1527,-0.0857 -0.086,-0.19302 0.066,-0.10727 0.1589,-0.19555 0.2057,-0.19555 z m -4.3429,0.46222 c 0.035,-0.0156 0.086,-0.008 0.1397,0.0254 0.1066,0.0663 0.1931,0.15838 0.1931,0.20571 0,0.0472 -0.086,0.0863 -0.1931,0.0863 -0.1079,0 -0.1954,-0.0921 -0.1954,-0.20571 0,-0.0568 0.021,-0.0962 0.056,-0.11169 z m 3.8247,10.64359 c 0.04,-0.004 0.087,0.0139 0.1372,0.0634 0.064,0.0648 0.081,0.22768 0.035,0.36317 -0.066,0.19899 -0.1118,0.19883 -0.2337,0 -0.1222,-0.19739 -0.061,-0.414 0.061,-0.42666 z m -4.6552,0.79237 c 0.1041,0 0.1881,0.13115 0.1881,0.29206 0,0.16091 -0.035,0.29206 -0.077,0.29206 -0.042,0 -0.1262,-0.13115 -0.1879,-0.29206 -0.061,-0.16091 -0.029,-0.29206 0.077,-0.29206 z m 5.0464,2.019 c 0.027,0.0317 -0.013,0.16266 -0.099,0.40127 -0.065,0.16969 -0.1958,0.30984 -0.292,0.30984 -0.2555,0 -0.2147,-0.18397 0.117,-0.51556 0.1588,-0.15876 0.2475,-0.22731 0.2742,-0.19555 z m -5.1402,0.39365 c 0.052,-0.013 0.083,0.001 0.083,0.0482 0,0.33552 -0.3361,0.70349 -0.4571,0.50792 -0.066,-0.10662 0.013,-0.30425 0.1701,-0.43682 0.079,-0.0663 0.1514,-0.10649 0.2032,-0.11936 z m 4.4646,1.80314 c 0.1547,0.0592 0.2312,0.23146 0.1727,0.38349 -0.1561,0.40687 -0.4546,0.33461 -0.4546,-0.10923 0,-0.25367 0.096,-0.34527 0.2819,-0.27426 z m -3.3345,3.20755 c 0.072,-0.004 0.078,0.0833 0.013,0.26159 -0.1346,0.35084 -0.8184,0.53178 -0.9854,0.26158 -0.072,-0.11598 -0.036,-0.14888 0.081,-0.0762 0.1157,0.0712 0.3435,-0.003 0.5054,-0.16508 0.1844,-0.1843 0.4383,-0.12978 0.3886,-0.2819 -2e-4,-8.2e-4 0,1e-5 0,1e-5 z"
           id="path14362" />
        <path
           d="m 744.63924,-292.34271 c -1.0125,0.0218 -1.9427,0.0992 -2.3713,0.2225 -0.4656,0.13392 -1.2958,0.29028 -1.8461,0.34878 -0.5503,0.0585 -1.1754,0.19455 -1.3872,0.30268 -0.2116,0.10813 -0.7312,0.3183 -1.1546,0.46705 -1.6562,0.58198 -3.6489,1.86349 -5.1956,3.3395 -0.8256,0.78779 -1.4994,1.54904 -1.4994,1.69179 0,0.14276 -0.3016,0.55527 -0.6695,0.91807 -0.844,0.83218 -1.0925,1.44326 -0.9561,2.35327 0.085,0.56689 0.047,0.76894 -0.2025,1.08645 -0.1688,0.21463 -0.3496,0.58979 -0.4029,0.83186 -0.053,0.24207 -0.2624,0.60133 -0.4651,0.7998 -0.2026,0.19847 -0.5922,0.58675 -0.8639,0.86194 -0.2716,0.27517 -0.5819,0.49911 -0.6896,0.49911 -1.4206,2.69696 -1.5485,2.59104 -1.6488,4.08117 -0.2428,0.76203 0.1058,1.52707 0,1.70181 -0.2095,0.34588 0.03,2.63391 0,3.37758 -0.01,0.25401 0.066,0.54591 0,0.64946 -0.1277,0.19716 0.1409,0.59082 0,2.12076 -0.047,0.50802 0.047,1.30536 0,1.76997 -0.046,0.46461 0.01,2.23033 0,3.92481 -0.015,2.63258 -0.2857,3.30491 0,4.62037 0.4068,1.87108 -0.343,2.97766 0,3.38761 0.1418,0.16934 -0.059,0.57484 0,0.90202 0.071,0.39481 -0.4399,0.8353 0,1.30894 0.3644,0.39252 -0.062,0.87483 0,1.0724 0.062,0.19759 1.2381,0.75909 1.717,1.24681 1.0847,1.10462 3.5315,3.08892 3.8086,3.08892 0.1135,0 0.2746,0.12519 0.3567,0.27864 0.082,0.15343 0.3788,0.35906 0.6595,0.45502 0.7788,0.26622 3.3484,1.19912 4.1273,1.49937 0.3811,0.14685 1.0738,0.32407 1.5395,0.39287 1.7693,0.26144 4.8729,-0.079 6.9536,-0.76371 2.0747,-0.68266 3.0511,-0.93804 3.588,-0.93811 0.3411,-4e-5 0.9658,-0.13142 1.3892,-0.29265 0.9408,-0.35831 2.9186,-1.46421 3.5279,-1.97243 0.7923,-0.66096 2.2134,-2.75728 2.235,-3.29741 0.01,-0.13842 0.1831,-0.36644 0.3949,-0.50512 0.2116,-0.13871 0.3848,-0.35997 0.3848,-0.49311 0,-0.13315 0.1271,-0.42672 0.2827,-0.65147 0.3021,-0.43638 0.7411,-1.60232 0.934,-2.48557 0.1519,-0.69544 0.5141,-1.38663 0.9222,-1.75594 0.178,-0.1611 0.3247,-0.37621 0.3247,-0.47708 0,-0.29344 0.2287,-1.19714 0.6027,-1.61562 0.4185,-0.46826 -0.1822,-1.0536 0,-3.04484 0.029,-0.31981 -0.098,-0.73141 0,-0.91405 0.2293,-0.4283 0.2291,-1.37985 0,-1.52142 -0.123,-0.076 -0.1947,-0.17264 0,-0.3147 0.2547,-0.18593 0.1895,-0.26193 0,-0.83587 -0.1707,-0.51716 -0.1623,-0.68826 0,-0.94813 0.11,-0.1761 -0.043,-1.01118 0,-1.87421 0.094,-1.86868 0.19,-1.72028 0,-2.46954 -0.087,-0.33401 -0.042,-0.66347 0,-0.73164 0.042,-0.0682 0.077,-0.12429 0,-0.12429 -0.078,0 -6e-4,-0.93587 0,-2.11474 9e-4,-1.80011 -0.3048,-2.27765 0,-3.19517 0.4534,-1.36756 0.414,-2.66103 0,-3.18715 -0.1643,-0.20897 0.1412,-0.66949 0,-1.0223 -0.1411,-0.35281 0.075,-0.64144 0,-0.64144 -0.076,0 0,-0.1783 0,-0.3969 0,-0.22682 0.397,-0.68069 0.087,-1.05837 -0.3185,-0.38874 -0.7921,-1.32238 -1.1465,-2.26307 -1.1376,-3.01865 -1.3957,-3.39481 -3.1612,-4.59432 -0.3115,-0.21168 -0.7425,-0.57372 -0.9581,-0.8038 -0.2156,-0.23009 -0.6422,-0.49699 -0.9481,-0.59534 -0.306,-0.0983 -0.7284,-0.26789 -0.9401,-0.37484 -1.0335,-0.5222 -2.7901,-0.9996 -4.4661,-1.21673 -0.7554,-0.0979 -1.8499,-0.13197 -2.8624,-0.11025 z m 1.6056,7.56899 c 1.3333,0.0652 3.1126,0.36851 3.8266,0.70157 0.4393,0.20492 0.866,0.37284 0.9501,0.37284 0.3117,0 0.7641,0.80069 1.1666,2.06463 0.4084,1.28251 1.2596,3.80185 1.7819,4.55422 0.2765,0.39837 -0.097,1.23441 0,2.50763 0.031,0.40537 -0.086,0.86973 0,1.03032 0.086,0.16059 0,0.48722 0,0.72563 0,0.23841 -0.1125,0.55381 0,0.70157 0.1349,0.17805 -0.017,0.82018 0,1.90628 0.014,0.90136 -0.036,1.68819 0,1.74792 0.1147,0.18547 0.027,2.04137 0,2.8504 -0.024,0.71814 0.4375,4.75874 0,5.61861 -0.1077,0.21167 0.1289,0.5939 0,0.84791 -0.1289,0.25401 -0.6559,1.25729 -1.1065,2.231 -0.6439,1.39146 -1.0003,1.95268 -1.6657,2.61989 -1.4886,1.49237 -1.8934,1.68523 -5.1576,2.46754 -0.762,0.18262 -1.6976,0.42556 -2.0787,0.53921 -0.381,0.11363 -1.2131,0.30801 -1.8482,0.43296 -1.0425,0.20513 -2.8154,0.27506 -3.616,0.14232 -1.6014,-0.26543 -3.4969,-0.98719 -3.9169,-1.49335 -0.1109,-0.13361 -0.2921,-0.24455 -0.4028,-0.24455 -0.1108,0 -0.5004,-0.31879 -0.866,-0.70959 -0.3658,-0.3908 -0.8753,-0.92728 -1.1326,-1.19267 -1.0611,-1.09494 -0.9982,-3.57968 -1.0094,-4.79276 0,-0.25401 0.1378,-0.77358 0,-1.15459 -0.2022,-0.55873 0.015,-1.3939 0,-4.31169 -0.01,-1.98974 0.07,-3.70872 0,-3.82057 -0.165,-0.26105 -0.2856,-1.4434 0,-1.99047 0.1208,-0.23239 -5e-4,-0.67975 0,-0.99222 5e-4,-0.31247 -0.2118,-1.04686 0,-1.63367 0.2116,-0.58681 0,-1.23434 0,-1.43723 0,-0.21822 -0.4173,-0.69762 0,-1.17463 0.388,-0.4435 0.8723,-1.03018 0.9493,-1.30494 0.077,-0.27474 0.4775,-0.85215 0.892,-1.28288 0.4143,-0.43072 0.8024,-0.95028 0.8619,-1.15459 0.1267,-0.43332 2.2717,-2.54522 2.7342,-2.69203 0.1734,-0.055 0.8763,-0.46354 1.5635,-0.90805 1.061,-0.68635 1.3959,-0.82372 2.219,-0.90603 0.533,-0.0533 1.1066,-0.17061 1.2748,-0.26059 0.1681,-0.09 0.84,-0.23351 1.4934,-0.32072 0.6536,-0.0872 1.5351,-0.20595 1.9584,-0.26259 0.2894,-0.0387 0.684,-0.0438 1.1285,-0.0221 z"
           id="path14364" />
        <path
           d="m 786.67124,-242.77802 c 0,-0.12288 -0.2025,-0.22482 -0.4502,-0.2265 -0.3641,-0.003 -0.3928,-0.0402 -0.1501,-0.19707 0.1651,-0.10673 0.2326,-0.20662 0.1501,-0.22207 -0.083,-0.0153 -0.2176,-0.04 -0.3002,-0.0547 -0.5225,-0.0926 -1.6976,-0.8123 -1.8131,-1.1105 -0.1835,-0.47361 -1.2627,-1.65266 -1.7941,-1.95989 -0.3685,-0.21311 -0.4752,-0.18019 -0.8148,0.2516 -0.4949,0.62911 -0.8968,0.48778 -1.4593,-0.51324 -0.2429,-0.43209 -0.6351,-0.81649 -0.9016,-0.88333 -0.2593,-0.0651 -0.4716,-0.2067 -0.4716,-0.31469 0,-0.10793 -0.1801,-0.1963 -0.4002,-0.1963 -0.2202,0 -0.4003,-0.0837 -0.4003,-0.18584 0,-0.1022 -0.1321,-0.31735 -0.2923,-0.47811 -0.5182,-0.51824 -1.435,-2.21799 -1.5755,-2.92084 -0.1001,-0.50109 -0.048,-0.78092 0.1962,-1.05065 0.1986,-0.21936 0.2395,-0.36765 0.1014,-0.36765 -0.1267,0 -0.231,0.0901 -0.231,0.20012 0,0.56247 -0.3385,0.0694 -0.6286,-0.91561 -0.2668,-0.90624 -0.2787,-1.13401 -0.064,-1.21647 0.1454,-0.0558 0.2571,-0.36127 0.248,-0.67881 -0.013,-0.31753 0.099,-0.71553 0.2384,-0.88446 0.2531,-0.30484 0.2347,-0.33401 -0.2416,-0.38216 -0.1361,-0.0137 -0.2815,-0.20226 -0.3232,-0.4189 -0.067,-0.34329 -0.033,-0.35911 0.2502,-0.12327 0.2877,0.23876 0.3172,0.21445 0.2497,-0.20652 -0.049,-0.30783 -0.1912,-0.45652 -0.3999,-0.41906 -0.224,0.0402 -0.2858,-0.0401 -0.2008,-0.26165 0.068,-0.17586 0.2387,-0.27521 0.3805,-0.2208 0.2582,0.0991 0.5929,-0.44097 0.3957,-0.63824 -0.057,-0.0576 -0.1054,0 -0.1054,0.12875 0,0.12835 -0.1,0.23348 -0.222,0.23348 -0.1455,0 -0.1786,-0.25866 -0.096,-0.75047 0.069,-0.41274 0.1471,-0.93057 0.1733,-1.15071 0.027,-0.22013 0.1147,-0.5044 0.1965,-0.63172 0.1014,-0.15716 0.02,-0.19787 -0.2515,-0.12674 -0.4201,0.10993 -0.5733,-0.25122 -0.1644,-0.38755 0.1388,-0.0463 0.1791,-0.22754 0.097,-0.43947 -0.1134,-0.29418 -0.1933,-0.31513 -0.4362,-0.11354 -0.2541,0.21092 -0.2978,0.14329 -0.2978,-0.46108 0,-0.38953 0.1121,-0.75395 0.2501,-0.80975 0.1732,-0.0703 0.1844,-0.15238 0.036,-0.26685 -0.1174,-0.091 -0.2381,-0.66063 -0.2674,-1.266 -0.029,-0.60538 -0.089,-1.13743 -0.1345,-1.18233 -0.044,-0.045 0.025,-0.20971 0.155,-0.36623 0.1295,-0.15654 0.2467,-0.52504 0.2595,-0.8189 0.013,-0.29388 0.041,-0.91706 0.063,-1.38486 0.028,-0.60526 0.1255,-0.85052 0.3392,-0.85052 0.3884,0 0.3892,-0.37864 0,-0.52757 -0.1645,-0.0631 -0.2531,-0.18913 -0.1968,-0.28006 0.056,-0.091 0.013,-0.22234 -0.1027,-0.29201 -0.2,-0.12354 -0.1465,-0.90561 0.088,-1.28471 0.064,-0.10433 0.013,-0.2546 -0.116,-0.33402 -0.1688,-0.10433 -0.1471,-0.20788 0.079,-0.37255 0.5031,-0.36791 0.8953,-2.91278 0.4489,-2.91278 -0.1914,0 -0.2644,-0.31057 -0.2573,-1.09624 0,-0.60294 0.081,-1.05174 0.1698,-0.99735 0.088,0.0544 0.2167,0.008 0.2858,-0.10446 0.069,-0.1118 0.031,-0.20339 -0.087,-0.20339 -0.3243,0 -0.2518,-0.59759 0.088,-0.72813 0.165,-0.0634 0.3002,-0.20093 0.3002,-0.30571 0,-0.10473 -0.1041,-0.12635 -0.2307,-0.048 -0.2135,0.13195 -0.1878,-0.43651 0.077,-1.72329 0.1337,-0.64781 1.0065,-1.8202 1.2776,-1.71618 0.4748,0.18222 0.3115,-0.57904 -0.224,-1.04474 -0.3831,-0.33296 -0.5003,-0.3649 -0.5003,-0.13615 0,0.16439 -0.087,0.29887 -0.1939,0.29887 -0.1067,0 -0.1415,-0.13622 -0.077,-0.30272 0.064,-0.1665 0,-0.43886 -0.1349,-0.60521 -0.138,-0.16637 -0.1858,-0.3677 -0.1067,-0.44743 0.08,-0.0797 0.2671,0.0222 0.4165,0.22646 0.2393,0.32712 0.2626,0.25004 0.1959,-0.64633 -0.041,-0.55977 0,-1.06764 0.1041,-1.1286 0.099,-0.061 0.128,-5.45087 0.067,-5.61245 -0.077,-0.20266 0.1763,0 0.3215,0 l 6.2165,0 c 0.1134,0.42301 0.3008,5.95568 0.4155,6.02648 0.1147,0.0709 0.158,0.25954 0.097,0.4194 -0.061,0.15985 0.068,0.48292 0.2865,0.71792 0.4743,0.50907 0.5088,1.10532 0.097,1.69188 -0.1651,0.23569 -0.255,0.54842 -0.2,0.69494 0.1094,0.28921 -0.1494,2.26943 -0.5045,3.86863 -0.1227,0.55034 -0.2141,2.2614 -0.2042,3.80235 0.019,2.81844 -0.2322,4.94605 -0.5961,5.06979 -0.1081,0.0367 -0.1963,0.1996 -0.1963,0.36204 0,0.1745 0.096,0.23613 0.2342,0.15061 0.167,-0.10313 0.1854,-0.0348 0.064,0.23835 -0.093,0.21067 -0.1535,0.60817 -0.1338,0.88334 0.02,0.27517 0.092,1.22075 0.1594,2.1013 0.2099,2.72378 0.2162,3.37596 0.039,4.16539 -0.095,0.41979 -0.1067,0.86715 -0.028,0.99411 0.079,0.12701 0.158,0.50394 0.1766,0.83771 0.019,0.33377 0.053,0.60686 0.077,0.60686 0.024,0 0.076,0.67541 0.1148,1.50092 0.039,0.82551 0.1778,1.86115 0.3076,2.30142 0.1294,0.44027 0.2679,0.91307 0.3066,1.05065 0.039,0.13759 0.2981,0.25015 0.5768,0.25015 0.2956,0 0.5065,0.11421 0.5065,0.2744 0,0.15091 0.3162,0.48862 0.7027,0.75046 0.3865,0.26184 0.8139,0.72373 0.9494,1.02641 0.1357,0.30269 0.3537,0.55034 0.4846,0.55034 0.1307,0 3.04164,1.40217 4.6592,1.79291 1.48425,0.35854 3.03049,0.39783 4.55477,0.48785 0.48379,0.0286 0.6217,0.28374 1.4538,0.0164 0.1341,-0.0431 0.297,0.008 0.3619,0.11301 0.2088,0.33783 0.495,0.20455 0.495,-0.23056 0,-0.33707 0.091,-0.39959 0.4503,-0.31083 0.3434,0.0847 0.7084,-0.12207 1.5375,-0.87102 0.5981,-0.54016 1.3409,-1.03782 1.651,-1.10592 0.31,-0.0682 0.5638,-0.25175 0.5638,-0.40812 0,-0.2616 0.3502,-0.37492 0.9355,-0.30268 0.4167,0.0515 0.5164,-0.4004 0.1478,-0.66997 -0.3379,-0.24707 -0.3341,-0.26901 0.069,-0.39704 0.6753,-0.21438 3.1169,-2.75201 3.488,-3.62547 0.4534,-1.06665 0.6648,-2.69367 0.3501,-2.69367 -0.1813,0 -0.1808,-0.0676 0,-0.2883 0.1321,-0.15856 0.3688,-0.23858 0.5271,-0.17783 0.1968,0.0755 0.2506,0.0136 0.1701,-0.19611 -0.081,-0.21024 0.028,-0.3344 0.348,-0.39525 l 0.4656,-0.0887 -0.4635,-0.0272 c -0.2548,-0.0149 -0.6165,0.0547 -0.8037,0.15483 -0.3007,0.161 -0.3363,0.0666 -0.307,-0.81378 0.037,-1.13392 0.1442,-1.32563 0.5494,-0.98937 0.2384,0.19795 0.2783,0.13034 0.2408,-0.40979 -0.024,-0.35578 -0.151,-0.68226 -0.2808,-0.72555 -0.3696,-0.12315 -0.2782,-0.58664 0.2147,-1.08787 0.2479,-0.25212 0.3649,-0.39084 0.2601,-0.30829 -0.104,0.0826 -0.3248,0.1501 -0.4889,0.1501 -0.2266,0 -0.2048,-0.0763 0.089,-0.31652 0.3316,-0.27027 0.3372,-0.30042 0.039,-0.20641 -0.3651,0.11487 -0.508,-0.3565 -0.1711,-0.56469 0.1976,-0.12208 0.4402,-1.47687 0.4325,-2.41454 -0.019,-2.27525 -0.043,-2.50289 -0.2691,-2.5215 -0.1334,-0.0107 -0.017,-0.093 0.2579,-0.18229 l 0.5003,-0.16237 -0.4503,-0.14122 c -0.2476,-0.0776 -0.4502,-0.17017 -0.4502,-0.20552 0,-0.0354 0.1379,-0.6592 0.3065,-1.38629 0.1687,-0.72708 0.2546,-1.40622 0.191,-1.50921 -0.064,-0.10299 0,-0.39172 0.1362,-0.64163 0.1385,-0.24993 0.2316,-0.52534 0.2068,-0.61203 -0.025,-0.0867 -0.072,-0.40596 -0.1054,-0.70948 -0.033,-0.30353 -0.1201,-0.64752 -0.1917,-0.76442 -0.1732,-0.28018 0.1899,-2.48382 0.4525,-2.74645 0.1398,-0.13974 0.2049,-0.12848 0.2049,0.0352 0,0.13208 0.079,0.24015 0.1743,0.24015 0.099,0 0.099,-0.40689 0,-0.93938 -0.1121,-0.60116 -0.1028,-1.01186 0.025,-1.1407 0.1107,-0.11074 0.2013,-0.49265 0.2013,-0.84871 0,-0.35606 0.085,-0.87388 0.1914,-1.15069 0.1054,-0.27683 0.2337,-0.8542 0.2853,-1.28307 0.1679,-1.39262 0.3655,-2.24425 0.5466,-2.35624 0.097,-0.0603 0.1775,-0.49908 0.1775,-0.97505 0,-0.6971 0.077,-0.88577 0.4002,-0.97007 0.2496,-0.0652 0.4003,0.008 0.4003,-2.4545 l 4.8985,0 c 0.1307,3.01564 -0.2305,2.31236 -0.6085,2.31236 -0.488,0 -0.5256,0.41351 -0.1161,1.28319 0.2234,0.47527 0.3586,1.04625 0.3003,1.26883 -0.059,0.22255 0,0.47269 0.1389,0.55583 0.172,0.10633 0.1027,0.23397 -0.2328,0.43037 -0.4619,0.27022 -0.4548,0.27571 0.2232,0.1706 0.6578,-0.10193 0.67,-0.0943 0.2001,0.12728 l -0.5003,0.23583 0.4619,0.0808 c 0.3741,0.0655 0.417,0.13497 0.2256,0.36554 -0.1422,0.17139 -0.1553,0.28474 -0.032,0.28474 0.112,0 0.1903,0.22507 0.1745,0.50016 -0.016,0.27509 -0.1148,0.50023 -0.219,0.50031 -0.104,8e-5 -0.083,0.1082 0.049,0.24029 0.398,0.39802 0.2716,0.5624 -0.2732,0.35526 -0.6961,-0.2646 -0.7792,-0.2467 -0.4873,0.105 0.137,0.1651 0.4214,0.30018 0.6319,0.30018 0.3285,0 0.3505,0.0604 0.155,0.42571 -0.1726,0.32245 -0.1698,0.46154 0.013,0.57355 0.1831,0.11327 0.1767,0.24787 -0.028,0.57492 -0.2516,0.40274 -0.5418,0.51721 -1.1211,0.44199 -0.4163,-0.054 -0.2799,0.53097 0.1501,0.64341 0.2414,0.0631 0.4003,0.007 0.4003,-0.14342 0,-0.13645 0.1351,-0.2481 0.3002,-0.2481 0.4361,0 0.3694,0.28257 -0.2015,0.85347 -0.4142,0.41423 -0.4637,0.57267 -0.284,0.9086 0.12,0.22378 0.1654,0.4592 0.1014,0.52314 -0.064,0.0639 -0.1161,0.007 -0.1161,-0.12902 0,-0.13491 -0.097,-0.18499 -0.2167,-0.1114 -0.128,0.0793 0.045,0.29318 0.4232,0.52323 0.6079,0.36959 0.6213,0.40354 0.2669,0.67197 -0.2054,0.1555 -0.3121,0.28559 -0.2371,0.2891 0.075,0.004 0.059,0.27653 -0.036,0.60674 -0.1094,0.38043 -0.099,0.60037 0.027,0.60037 0.2374,0 0.1001,1.42385 -0.2246,2.32735 -0.1321,0.36852 -0.3557,0.61562 -0.5425,0.60037 -0.1746,-0.0141 -0.3614,0.0991 -0.4151,0.25208 -0.06,0.16962 -0.013,0.22353 0.1281,0.13828 0.4213,-0.26043 0.6035,0.0667 0.4101,0.73711 -0.1482,0.51466 -0.12,0.69635 0.1349,0.88455 0.1769,0.13021 0.2643,0.32954 0.1943,0.44285 -0.071,0.11327 -0.1617,0.98747 -0.2039,1.94258 -0.049,1.11328 -0.1674,1.79285 -0.3301,1.89335 -0.1822,0.1126 -0.1939,0.23146 -0.041,0.42218 0.2269,0.28375 0.2267,1.06814 0,1.29529 -0.076,0.0756 -0.1376,0.0271 -0.1376,-0.1078 0,-0.13491 -0.1,-0.18367 -0.2214,-0.10833 -0.1545,0.0955 -0.1393,0.18988 0.051,0.31199 0.2257,0.14558 0.2218,0.20701 -0.023,0.36435 -0.1618,0.10406 -0.2316,0.25199 -0.1549,0.32869 0.076,0.0767 0.2698,0.0314 0.4291,-0.10086 0.4736,-0.39314 0.5183,0.59497 0.051,1.12801 -0.3212,0.36623 -0.3451,0.49826 -0.1357,0.75047 0.1511,0.18218 0.1698,0.30605 0.045,0.30605 -0.1147,0 -0.2481,-0.1126 -0.2974,-0.25015 -0.1346,-0.37722 -0.2745,-0.13435 -0.4033,0.70043 -0.1,0.64877 -0.063,0.75046 0.2718,0.75046 0.2133,0 0.3877,0.13509 0.3877,0.30019 0,0.1651 -0.093,0.30018 -0.2072,0.30018 -0.1406,0 -0.1386,0.12808 0.013,0.39897 0.1174,0.21943 0.2087,0.69223 0.203,1.05065 0,0.35842 0.048,1.18386 0.1214,1.83433 0.1188,1.07231 0.099,1.17012 -0.2183,1.04836 -0.2602,-0.0998 -0.3196,-0.0556 -0.2321,0.17272 0.067,0.17414 -0.068,0.49333 -0.3126,0.73746 -0.3119,0.31191 -0.339,0.39539 -0.099,0.30309 0.416,-0.1596 0.6441,0.2612 0.8029,1.48097 0.084,0.6469 0.035,1.0358 -0.166,1.3008 -0.3706,0.48954 -0.3702,0.67821 0,0.67821 0.3065,0 0.3713,0.26837 0.3051,1.26121 -0.02,0.30841 0.1041,0.77706 0.2777,1.0414 0.3865,0.58985 0.1458,1.40028 -0.4742,1.59707 -0.228,0.0723 -0.3714,4.96837 -0.3186,5.05376 l -4.8989,0 c -0.1695,0 -0.4679,-3.62007 -0.6629,-3.95027 -0.1951,-0.33021 -0.462,-0.60044 -0.5934,-0.60052 -0.1321,-8e-5 -0.253,-0.24276 -0.2702,-0.53931 -0.017,-0.29657 -0.1748,-0.64414 -0.3502,-0.77239 -0.3929,-0.2873 -0.42,-0.88951 -0.04,-0.88951 0.1535,0 0.3303,-0.134 0.3931,-0.29778 0.063,-0.16379 0.049,-0.28821 -0.029,-0.2765 -0.3779,0.0563 -0.5961,-0.0492 -0.5708,-0.27625 0.053,-0.48217 -0.3085,-0.38263 -1.5659,0.43063 -0.6975,0.45108 -1.3673,0.82015 -1.4883,0.82015 -0.1925,0 -0.2943,0.24552 -0.2554,0.61579 0.024,0.23125 -2.4529,2.49436 -3.0516,2.78766 -0.3384,0.16587 -0.9899,0.54451 -1.4475,0.84146 -1.8666,1.21105 -3.49759,1.75549 -5.39717,2.09772 -2.66815,0.48069 -8.1325,0.0367 -8.1325,-0.11554 z"
           id="path14366" />
        <path
           d="m 854.19334,-292.3432 c -5.13,0.34048 -9.2759,0.931 -14.0218,3.76736 -2.7399,1.35909 -5.504,3.39517 -7.6573,5.65251 -1.3479,2.57289 -1.7315,3.9674 -1.4963,7.8361 0.4757,2.89243 3.5447,6.4732 8.1999,8.68723 4.2838,1.8436 14.0301,7.19683 16.3056,5.73917 5.439,-1.02857 10.832,4.56181 7.3534,8.86581 -5.5371,6.48009 -13.6982,6.89032 -21.1361,2.78653 -1.0674,-0.3162 -1.2971,-2.19158 -1.4194,-3.57284 l -6.9753,0 c -2.1242,3.31191 1.3918,6.97767 5.3272,7.5203 9.9041,3.89881 24.1204,3.62347 30.4401,-5.02842 0.41,-3.2561 3.1928,-7.06394 -0.8694,-9.95485 -3.7353,-2.65826 -8.6135,-3.98851 -12.4553,-5.65316 -5.6137,-1.38673 -10.1864,-4.42721 -15.3021,-5.42123 -3.749,-2.43292 -3.3016,-2.83134 -3.5982,-6.04356 -0.3018,-3.26723 5.1052,-6.46962 7.787,-7.88655 2.7708,-1.4638 3.7108,-2.34557 7.9733,-2.34557 5.6656,0 8.9127,2.9985 9.6853,5.46305 l 7.2494,0 c -0.4042,-3.0202 -2.097,-4.39811 -3.8374,-6.26291 -3.3907,-2.17075 -7.5163,-4.41685 -11.5526,-4.14897 z"
           id="path14368" />
        <path
           d="m 903.07764,-292.34106 c -1.4777,-0.0305 -2.9519,-0.004 -3.1386,0.1122 -0.2783,0.17199 -1.9271,0.5756 -3.548,0.8677 -0.6759,0.12179 -1.5615,0.46281 -2.4252,0.93552 -0.2964,0.16217 -0.8167,0.44391 -1.1577,0.62445 -0.3412,0.18056 -0.908,0.55651 -1.2583,0.83729 -0.3505,0.28076 -0.8383,0.61585 -1.0853,0.74375 -0.2469,0.12789 -0.7719,0.49161 -1.1671,0.80688 -0.3951,0.31528 -0.8608,0.6239 -1.0337,0.68761 -0.1728,0.0637 -0.3134,0.27078 -0.3134,0.46074 0,0.21418 -0.1648,0.38703 -0.4304,0.45372 -0.4826,0.12112 -2.0931,1.5727 -2.1516,1.93887 -0.038,0.24302 -0.4215,0.90757 -1.0571,1.83128 -0.1949,0.28328 -0.5143,1.17086 -0.7087,1.97162 -0.1944,0.80077 -0.4355,1.60914 -0.5356,1.7962 -0.1006,0.18705 -0.2088,1.03686 -0.2409,1.88974 -0.032,0.85291 -0.069,1.55063 -0.084,1.55063 -0.014,0 -0.049,0.32284 -0.077,0.71801 -0.029,0.39516 -0.1113,1.52521 -0.1824,2.51187 -0.071,0.98666 -0.1835,1.83676 -0.2502,1.88741 -0.1331,0.10107 -0.1355,0.18784 -0.2596,5.12197 -0.093,3.70272 -0.3468,4.9406 -1.09,5.32312 -0.5853,0.3013 -1.1966,0.90543 -1.0898,1.07819 0.2017,0.32633 0.9288,0.12891 1.422,-0.38591 0.2839,-0.29637 0.5619,-0.53792 0.6174,-0.53792 0.055,2e-4 0.1126,0.54719 0.1286,1.21383 0.017,0.66663 0.1671,1.97797 0.3345,2.91649 0.1674,0.93851 0.3455,1.99069 0.3953,2.33646 0.1065,0.73955 0.6146,1.97628 0.8115,1.97628 0.075,0 0.1357,0.11472 0.1357,0.25728 0,0.62744 1.8674,3.21694 2.6732,3.70699 0.2626,0.15969 0.7313,0.54412 1.0431,0.856 0.3119,0.31187 0.7028,0.56833 0.8677,0.56833 0.165,0 0.5042,0.16026 0.7555,0.35784 0.2512,0.19758 0.5655,0.36017 0.6969,0.36017 0.1315,0 0.5034,0.2249 0.8279,0.50051 0.3245,0.27563 0.8182,0.59971 1.0969,0.72035 0.47,0.20343 0.499,0.19367 0.393,-0.14032 -0.087,-0.27682 -0.05,-0.33558 0.166,-0.2526 0.1547,0.0594 0.2831,0.1717 0.2831,0.25025 0,0.0786 0.262,0.30938 0.5823,0.5122 0.5508,0.34877 0.7788,0.36388 4.1771,0.28065 1.9765,-0.0484 7.80821,-0.12919 8.25281,-0.18008 0.4445,-0.0509 1.3422,-0.11376 1.995,-0.14032 0.6529,-0.0266 1.4194,-0.13577 1.705,-0.24091 0.2857,-0.10514 0.8641,-0.29259 1.284,-0.41864 0.4198,-0.12606 0.7624,-0.28304 0.7624,-0.34614 0,-0.0631 0.2764,-0.21284 0.6128,-0.33446 0.3364,-0.12163 0.7431,-0.42409 0.9052,-0.67122 0.1618,-0.24715 0.3732,-0.40224 0.4677,-0.34381 0.095,0.0584 0.2627,0.0492 0.3765,-0.0211 0.1428,-0.0883 0.1029,-0.20748 -0.1333,-0.38356 -0.3092,-0.23088 -0.2783,-0.24187 0.3298,-0.13098 0.5281,0.0963 0.6963,0.0612 0.7835,-0.16606 0.061,-0.15897 0.2226,-0.29001 0.3602,-0.29001 0.1376,0 0.2502,-0.071 0.2502,-0.1567 0,-0.0857 0.4239,-0.59283 0.9426,-1.12729 0.9745,-1.00424 1.4569,-1.73855 1.3587,-2.06985 -0.031,-0.10502 0.124,-0.34261 0.3439,-0.52856 0.2474,-0.20917 0.4238,-0.59555 0.4631,-1.01036 0.035,-0.36875 0.188,-0.81237 0.3414,-0.98698 0.2758,-0.31396 0.4499,-0.74632 0.5894,-1.47111 0.039,-0.20534 0.197,-0.55209 0.3509,-0.7718 0.3078,-0.43957 0.3708,-0.75657 0.1197,-0.60107 -0.193,0.11927 -0.4218,-0.40171 -0.2783,-0.63382 0.115,-0.18677 -0.36468,-0.2097 -1.49218,-0.16371 -0.4441,0.0181 -0.8663,0.12876 -0.9379,0.24324 -0.097,0.15407 -0.2124,0.1549 -0.449,0.007 -0.5744,-0.35917 -0.14628,2.26491 -2.76934,4.8899 -0.76783,0.76844 -1.83711,1.60198 -2.49615,1.9443 -0.9919,0.5151 -1.35877,0.59764 -2.63604,0.59764 -0.81636,0 -1.73367,0.071 -2.03842,0.15904 -0.67778,0.19618 -8.37328,-0.0565 -8.67977,-0.31293 -0.12219,-0.10167 -0.45032,-0.24432 -0.73013,-0.31551 -0.27991,-0.0712 -0.50842,-0.21694 -0.50842,-0.32318 0,-0.10628 -0.12805,-0.19239 -0.28434,-0.19239 -0.15628,0 -0.48606,-0.14107 -0.73249,-0.31293 -0.24643,-0.17185 -0.52964,-0.25765 -0.62885,-0.19238 -0.0989,0.0652 -0.22861,0.0326 -0.28919,-0.0718 -0.19018,-0.32776 -1.6667,-1.31842 -2.33234,-1.56467 -1.24554,-0.4607 -1.65537,-0.71556 -1.65537,-1.03628 0,-0.17866 -0.12445,-0.37623 -0.27703,-0.43861 -0.15278,-0.0624 -0.27713,-0.29294 -0.27713,-0.51302 0,-0.22009 -0.069,-0.40014 -0.15185,-0.40014 -0.24067,0 -0.9575,-1.4867 -0.96368,-1.99817 0,-0.2561 -0.12455,-0.6342 -0.26992,-0.83877 -0.17524,-0.2463 -0.21037,-0.4804 -0.10096,-0.69768 0.0948,-0.19109 0.0958,-0.44845 0,-0.61306 -0.40694,-0.70079 -0.0767,-4.29159 0.57299,-4.32967 1.5971,-0.0936 2.107,-0.0554 2.1892,0.15903 0.054,0.14178 0.251,0.19505 0.4982,0.13565 0.7513,-0.18069 2.022,-0.21556 2.2242,-0.0608 0.1101,0.0843 1.039,0.19787 2.0651,0.2526 1.0261,0.0546 2.2299,0.1708 2.6756,0.25726 0.8241,0.15993 0.9958,0.15052 2.6335,-0.13799 0.5759,-0.10166 1.043,-0.099 1.2325,0.007 0.1781,0.0996 1.1012,0.12205 2.2149,0.0538 1.9714,-0.12078 4.4805,-0.25467 5.1898,-0.27598 0.2222,-0.007 0.4044,-0.0696 0.4046,-0.14267 1e-4,-0.0729 1.0303,-0.12538 2.2897,-0.1146 1.2644,0.0108 2.3903,-0.0591 2.5142,-0.1567 0.1527,-0.12028 0.2245,-0.10705 0.2245,0.0374 0,0.24474 1.0667,0.13178 1.2396,-0.13098 0.059,-0.0898 0.3293,-0.21652 0.601,-0.28298 0.2717,-0.0665 0.4935,-0.22906 0.4935,-0.36019 0,-0.35745 0.5414,-1.37053 0.732,-1.37053 0.092,0 0.1696,-0.10107 0.1732,-0.22453 0,-0.12348 0.2103,-0.62867 0.4606,-1.12262 0.9635,-1.90039 1.5655,-4.99739 1.1368,-5.847 -0.077,-0.15313 -0.1661,-0.77908 -0.1965,-1.39159 -0.03,-0.61249 -0.1006,-1.11327 -0.1568,-1.11327 -0.055,0 -0.1029,-0.3031 -0.1053,-0.67357 -0.019,-2.4303 -0.3666,-5.59176 -0.6501,-5.93353 -0.109,-0.13171 -0.2201,-0.45449 -0.248,-0.71568 -0.073,-0.6832 -1.1537,-2.7364 -1.4407,-2.7364 -0.2898,0 -0.323,-0.29061 -0.052,-0.4584 0.1206,-0.0746 0.053,-0.21573 -0.1801,-0.37889 -0.2048,-0.14348 -0.3764,-0.43819 -0.3835,-0.65486 -0.012,-0.21668 -0.1501,-0.59854 -0.3158,-0.84898 -0.1656,-0.25046 -0.4607,-0.71191 -0.6572,-1.0244 -0.1964,-0.31247 -0.5414,-0.65131 -0.7648,-0.75309 -0.2233,-0.10179 -0.4045,-0.28778 -0.4045,-0.41397 0,-0.2388 -0.9498,-0.74674 -1.4641,-0.7835 -0.1628,-0.012 -0.5402,-0.19539 -0.8373,-0.40695 -0.2971,-0.21155 -0.5938,-0.38357 -0.6596,-0.38357 -0.066,0 -0.472,-0.24389 -0.9027,-0.54026 -0.4308,-0.29637 -0.9002,-0.53793 -1.0432,-0.53793 -0.1429,0 -0.537,-0.11759 -0.877,-0.25959 -0.3399,-0.14207 -1.0832,-0.30162 -1.6512,-0.35551 -0.5679,-0.0539 -1.119,-0.15075 -1.2232,-0.21517 -0.1996,-0.12338 -1.6795,-0.21267 -3.1573,-0.24323 z m -0.58492,7.31015 c 1.29186,0.0174 3.62313,0.29745 3.89184,0.54061 0.17347,0.15703 0.45288,0.28532 0.62068,0.28532 0.1679,0 0.35046,0.10815 0.40547,0.24027 0.0717,0.17391 0.17849,0.14619 0.38043,-0.10263 0.26111,-0.32173 0.29246,-0.30628 0.48305,0.24028 0.14319,0.41106 0.32671,0.58316 0.62314,0.58316 0.23179,0 0.52383,0.14014 0.64828,0.31036 0.12425,0.17018 0.49194,0.34024 0.81587,0.37791 1.18677,0.13819 2.89673,2.30979 3.26368,4.14467 0.0599,0.30248 0.16822,0.55062 0.24035,0.55062 0.12424,0 0.36534,0.48871 1.08607,2.20998 0.21478,0.5126 0.34565,1.4736 0.39049,2.88325 0.0374,1.16291 0.1038,2.35814 0.15025,2.65549 0.0482,0.31358 -0.0128,0.56762 -0.14019,0.60568 -0.12307,0.0362 -0.3968,0.12931 -0.60826,0.20773 -0.21135,0.0784 -1.1185,0.17405 -2.01719,0.21275 -1.15852,0.0499 -1.69573,0.15508 -1.84704,0.3579 -0.27952,0.37463 -0.46059,0.36295 -0.46059,-0.03 0,-0.2765 -0.16137,-0.29795 -1.29646,-0.17019 -2.794,0.31439 -6.63865,0.20592 -9.74844,-0.27532 -0.79607,-0.12315 -1.22465,-0.1143 -1.40165,0.0325 -0.18621,0.15395 -0.31548,0.15253 -0.47792,-0.0107 -0.28102,-0.28092 -1.04338,-0.29098 -1.21396,-0.015 -0.0706,0.11494 -0.31098,0.16316 -0.53303,0.10509 -0.23746,-0.0622 -0.55721,0.0292 -0.77841,0.22274 -0.33623,0.29426 -0.36491,0.29621 -0.26282,0.015 0.10273,-0.28219 -0.17978,-0.3153 -2.75804,-0.31786 -3.2151,-0.002 -3.53945,-0.10509 -3.39392,-1.08873 0.0471,-0.32205 0.031,-1.13366 -0.0375,-1.80202 -0.0899,-0.87939 -0.0503,-1.31584 0.13772,-1.58427 0.14255,-0.204 0.20536,-0.45756 0.14008,-0.56315 -0.0653,-0.10541 -0.0535,-0.29611 0.0246,-0.42298 0.16351,-0.26455 0.27277,-0.96642 0.27534,-1.75947 7.5e-4,-0.30118 0.30167,-1.01623 0.6683,-1.5893 0.36641,-0.57305 0.66572,-1.12752 0.66572,-1.23388 0,-0.10626 0.21617,-0.27496 0.48049,-0.37543 0.29418,-0.11186 0.4806,-0.33487 0.4806,-0.57313 0,-0.21856 0.12809,-0.38794 0.29032,-0.38794 0.15924,0 0.47589,-0.21626 0.70564,-0.48055 0.22997,-0.2643 0.53229,-0.48054 0.67087,-0.48054 0.13858,0 0.35849,-0.174 0.49054,-0.38544 0.13195,-0.21143 0.38354,-0.38542 0.55808,-0.38542 0.18406,0 0.37657,-0.22168 0.45812,-0.5281 0.077,-0.29079 0.17957,-0.42849 0.22515,-0.30534 0.0995,0.27134 0.91689,0.0668 2.01484,-0.50557 0.41211,-0.21479 0.87087,-0.39044 1.01855,-0.39044 0.14778,0 0.38717,-0.11931 0.53314,-0.26531 0.14821,-0.14817 0.89227,-0.31995 1.68449,-0.39043 0.78055,-0.0696 1.51016,-0.19811 1.62178,-0.28282 0.0845,-0.0641 0.40033,-0.0858 0.83095,-0.08 z"
           id="path14370" />
        <path
           id="path14372"
           d="m 684.96627,-393.74531 c -2.49816,0 -2.99097,0.0378 -3.56341,0.26518 -0.5087,0.20174 -0.90715,0.24792 -1.69792,0.19889 -1.73954,-0.10785 -7.47308,0.45959 -8.88183,0.87843 -0.90343,0.2686 -4.09382,0.69593 -5.65726,0.75872 -0.52921,0.0213 -0.69923,-0.039 -1.01102,-0.36463 -0.28679,-0.29946 -0.50656,-0.39225 -0.93735,-0.39225 -0.47815,0 -0.63631,0.0829 -1.04048,0.54878 -0.26186,0.30184 -0.65578,0.81026 -0.87474,1.13072 -0.21896,0.32044 -0.48652,0.58377 -0.59666,0.58377 -0.11016,0 -0.24104,0.15637 -0.28913,0.34805 -0.0481,0.19168 -0.22313,0.39102 -0.39041,0.44382 -0.39693,0.12525 -0.93637,0.63759 -0.93919,0.89315 -9.5e-4,0.11057 -0.0911,0.3026 -0.20073,0.4254 -0.10967,0.12281 -0.21744,0.31793 -0.23941,0.43461 -0.0636,0.3373 0.15691,2.03317 0.37016,2.84152 0.14213,0.53892 0.15397,0.81515 0.0442,1.02022 -0.0832,0.15475 -0.11776,0.56175 -0.0792,0.90421 0.0386,0.34248 0.005,0.89049 -0.0736,1.21727 -0.18138,0.75227 -0.14068,2.71607 0.0682,3.30744 0.11899,0.33584 0.11732,0.49875 -0.004,0.64454 -0.11636,0.14016 -0.12111,0.34258 -0.0184,0.71452 0.0994,0.36009 0.0953,0.69589 -0.0129,1.09758 -0.099,0.36776 -0.10742,0.64034 -0.0221,0.74582 0.18101,0.22383 0.17092,0.96951 -0.0166,1.2007 -0.0833,0.10268 -0.17007,0.67511 -0.19336,1.27252 -0.074,1.89823 -0.16265,3.3348 -0.23572,3.84517 -0.0795,0.55463 -0.0818,1.24893 -0.0405,8.76765 0.016,2.91703 0.051,5.3677 0.0792,5.44548 0.0282,0.0778 0.0149,0.2369 -0.0294,0.35358 -0.19463,0.51239 -0.2226,0.93594 -0.10497,1.55612 0.0845,0.44537 0.0701,0.915 -0.0442,1.4272 -0.0936,0.42023 -0.15934,1.40069 -0.14548,2.17857 0.0141,0.77787 0.0187,1.63744 0.009,1.90969 -0.0274,0.81978 0.009,1.73897 0.0921,2.26327 0.15507,0.98308 0.12535,2.49212 -0.0589,3.00175 -0.14602,0.40388 -0.15117,0.60103 -0.024,0.88026 0.09,0.19787 0.12637,0.54479 0.081,0.77161 -0.0454,0.22683 -0.0106,0.62502 0.0755,0.88579 0.0861,0.26077 0.16495,0.83123 0.17495,1.26699 l 0.0166,0.79188 0.40699,-0.15285 c 0.46764,-0.17651 0.56077,-0.72437 0.17126,-1.00919 -0.29601,-0.21644 -0.14729,-0.70629 0.17679,-0.58192 0.1224,0.047 0.37011,0.0847 0.55062,0.0847 0.23874,0 0.37813,0.12599 0.51012,0.46039 0.0998,0.2528 0.20653,0.50699 0.23756,0.56536 0.031,0.0584 -0.10842,0.10681 -0.30938,0.10681 -0.20095,0 -0.36463,0.064 -0.36463,0.1418 0,0.0778 0.0951,0.13996 0.21178,0.13996 0.11668,0 0.21178,0.0887 0.21178,0.19704 0,0.10836 -0.0951,0.23513 -0.21178,0.27992 -0.11668,0.0448 -0.21178,0.18626 -0.21178,0.3149 0,0.16831 0.0496,0.19384 0.17679,0.0921 0.34253,-0.27404 0.81213,-0.35097 0.81213,-0.13259 0,0.11239 0.0969,0.28436 0.21361,0.3812 0.30174,0.2504 0.26343,0.38252 -0.16573,0.59298 -0.20691,0.10148 -0.50365,0.35687 -0.65928,0.5672 -0.23353,0.3156 -0.25,0.41932 -0.10129,0.59851 0.0991,0.11945 0.23678,0.18257 0.30569,0.13995 0.069,-0.0426 0.12524,0.0224 0.12524,0.14365 0,0.24693 -0.21946,0.29618 -0.35358,0.0792 -0.15048,-0.24346 -0.4584,-0.15557 -0.53958,0.15469 -0.0427,0.16341 -0.14373,0.25704 -0.22283,0.2081 -0.19362,-0.11966 -0.0959,-1.07438 0.12338,-1.20991 0.13195,-0.0814 0.13399,-0.1328 0.009,-0.20993 -0.26331,-0.16275 -0.72121,0.35112 -0.67953,0.7624 0.0301,0.29707 -0.0244,0.36549 -0.28913,0.36832 -0.17913,0.002 -0.38907,0.0971 -0.46592,0.21178 -0.17201,0.2565 -0.0333,2.28521 0.21363,3.12143 l 0.17679,0.60035 0.32043,-0.32043 c 0.19029,-0.19028 0.2899,-0.42589 0.24861,-0.58377 -0.0948,-0.36257 0.39662,-0.50757 0.69795,-0.20625 0.12582,0.12583 0.41135,0.26459 0.63533,0.30937 0.22889,0.0458 0.40699,0.17317 0.40699,0.29097 0,0.13036 -0.08,0.17676 -0.21178,0.12339 -0.11668,-0.0472 -0.30687,-0.12404 -0.42356,-0.17126 -0.37926,-0.15348 -0.2247,0.14725 0.28544,0.5543 0.51101,0.40774 0.56047,0.78465 0.0682,0.52116 -0.31665,-0.16945 -0.54426,0.0782 -0.29833,0.32411 0.0866,0.0866 0.15653,0.11173 0.15653,0.0553 0,-0.0565 0.1902,-0.005 0.42356,0.11602 0.25408,0.13139 0.4254,0.33185 0.4254,0.49906 0,0.15359 -0.0264,0.27991 -0.0589,0.27991 -0.0325,0 -0.16055,0.0374 -0.2836,0.0848 -0.14678,0.0563 -0.22283,0.008 -0.22283,-0.1418 0,-0.37204 -0.22014,-0.25628 -0.25229,0.13259 -0.0193,0.23347 0.0569,0.38558 0.2173,0.43828 0.66689,0.2192 1.16351,0.50638 1.08836,0.62798 -0.0461,0.0746 -0.14248,0.0985 -0.21546,0.0534 -0.14984,-0.0926 -0.35393,0.32563 -0.22283,0.45671 0.0466,0.0466 0.18986,-0.002 0.31859,-0.10866 0.20277,-0.16828 0.26561,-0.15425 0.46407,0.1105 l -0.002,0 c 0.16833,0.2249 0.32389,0.28345 0.58377,0.22283 0.4261,-0.0995 0.51947,-0.2234 0.72005,-0.95762 0.085,-0.31115 0.2437,-0.66674 0.35357,-0.79003 0.15952,-0.17899 0.16812,-0.31719 0.0406,-0.68321 -0.11846,-0.33936 -0.11773,-0.49919 0,-0.61692 0.20503,-0.20507 0.20059,-0.64745 -0.0129,-1.44563 -0.14664,-0.54822 -0.13776,-0.69577 0.0626,-1.03495 0.16042,-0.27157 0.2425,-0.772 0.25966,-1.5911 0.0155,-0.74065 0.0944,-1.27351 0.2081,-1.40512 0.35869,-0.41525 0.54494,-6.86294 0.20441,-7.07341 -0.0717,-0.044 -0.0679,-0.16645 0.008,-0.28545 0.24394,-0.38574 0.15953,-1.00628 -0.14733,-1.08652 -0.15557,-0.0406 -0.28176,-0.13015 -0.28176,-0.19889 0,-0.26826 -0.0476,-0.35187 -0.44197,-0.80107 -0.24774,-0.28217 -0.40698,-0.62534 -0.40698,-0.8729 0,-0.22417 -0.0796,-0.43329 -0.17679,-0.46591 -0.24891,-0.0835 0.14643,-0.80936 0.4475,-0.82134 0.14296,-0.006 0.10955,-0.0564 -0.0939,-0.13812 -0.32787,-0.13178 -0.41374,-0.34446 -0.19337,-0.48064 0.069,-0.0426 0.16719,-0.30309 0.21914,-0.58009 0.0783,-0.41726 0.14219,-0.48851 0.37016,-0.41619 0.15132,0.0481 0.27623,0.0272 0.27623,-0.046 0,-0.0733 -0.18783,-0.17158 -0.41619,-0.21731 -0.35443,-0.0709 -0.40957,-0.14039 -0.37383,-0.47696 0.0444,-0.41885 0.50642,-0.65907 0.50642,-0.26335 0,0.36409 0.41204,0.25261 0.51011,-0.13811 0.0646,-0.25728 0.0186,-0.41437 -0.16021,-0.54511 -0.19121,-0.13981 -0.20993,-0.2086 -0.0736,-0.2928 0.10363,-0.064 0.23315,-0.0284 0.30755,0.0847 0.10466,0.15896 0.16794,0.14479 0.33884,-0.0792 0.28432,-0.37273 0.26296,-0.60927 -0.0736,-0.81949 -0.15558,-0.0971 -0.2836,-0.25746 -0.2836,-0.35543 0,-0.22958 0.23639,-0.22957 0.33884,0 0.0434,0.0972 0.0673,0.0487 0.0534,-0.10681 -0.014,-0.15557 0.0424,-0.40978 0.12522,-0.56535 0.26266,-0.49371 0.33767,-1.21057 0.16023,-1.53218 -0.18184,-0.32954 -0.16284,-0.77653 0.0442,-1.02942 0.0705,-0.0861 0.0898,-0.35014 0.0423,-0.58746 -0.068,-0.33969 -0.0272,-0.46386 0.19337,-0.58194 0.15414,-0.0825 1.38687,-0.18838 2.7384,-0.23572 1.68773,-0.0591 2.98891,-0.18904 4.15455,-0.41619 1.60522,-0.31281 3.50713,-0.42346 3.81755,-0.22098 0.12673,0.0829 4.4299,0.0878 7.77873,0.009 0.70009,-0.0165 2.13378,-0.006 3.18589,0.024 l 1.91338,0.0534 0.62061,0.67217 c 0.56709,0.6152 0.62246,0.73968 0.6335,1.43457 0.008,0.54724 0.0912,0.85314 0.29648,1.0902 0.54447,0.6288 0.88263,1.19147 0.97971,1.63346 0.0537,0.24436 0.18849,0.52055 0.30017,0.61324 0.1117,0.0927 0.20258,0.24323 0.20258,0.33516 0,0.0918 0.22243,0.38363 0.49353,0.64639 0.35453,0.34362 0.49174,0.59944 0.48985,0.91157 -0.008,1.35299 0.26077,2.34246 0.63903,2.34246 0.24302,0 0.29062,0.22062 0.0755,0.35358 -0.27488,0.16989 -0.22441,0.34101 0.69427,2.33325 0.11386,0.247 0.0605,7.62953 -0.0663,9.19305 -0.13917,1.71512 -0.10479,1.97335 0.42908,3.24483 0.45554,1.08494 0.60673,1.2919 1.44747,1.98888 1.22788,1.01791 1.20485,1.00629 1.69975,0.81949 0.36054,-0.13608 0.52796,-0.1125 1.08468,0.14917 0.83836,0.39409 1.21543,0.24674 1.21543,-0.47328 0,-0.33906 0.11068,-0.58599 0.36647,-0.82317 0.33166,-0.30756 0.36953,-0.45762 0.41988,-1.639 0.0305,-0.71573 0.10487,-1.37852 0.1639,-1.47139 0.21113,-0.3321 0.13688,-1.03163 -0.20811,-1.98152 -0.27005,-0.74367 -0.32682,-1.10111 -0.25044,-1.55612 0.0545,-0.3248 0.12447,-1.5983 0.15652,-2.83047 0.032,-1.23216 0.0906,-2.29166 0.12891,-2.35351 0.0778,-0.12592 -0.31092,-1.93177 -0.48985,-2.27616 -0.0633,-0.12176 -0.0535,-0.33073 0.0221,-0.46591 0.0917,-0.16375 0.0847,-0.39668 -0.0239,-0.69796 -0.0897,-0.24867 -0.19602,-0.8029 -0.23571,-1.23016 -0.0397,-0.42727 -0.14686,-0.82195 -0.23756,-0.87842 -0.0908,-0.0565 -0.1675,-0.21689 -0.17128,-0.35542 -0.0295,-1.09257 -0.27312,-2.19907 -0.57456,-2.60765 -0.18576,-0.2518 -0.33884,-0.59291 -0.33884,-0.75872 0,-0.16578 -0.15565,-0.44711 -0.34621,-0.62613 -0.19415,-0.18239 -0.34802,-0.48825 -0.34991,-0.69611 -0.0106,-1.33745 -0.18863,-1.98893 -0.85632,-3.12881 -0.0684,-0.11668 -0.16232,-0.30871 -0.20994,-0.42539 -0.11265,-0.27643 -0.3583,-0.68161 -0.72741,-1.20438 -0.16362,-0.23175 -0.33353,-0.66164 -0.37936,-0.95576 -0.0712,-0.45705 -0.0224,-0.60635 0.34253,-1.02207 0.23488,-0.26753 0.3866,-0.55142 0.33701,-0.63166 -0.0496,-0.0802 0.0652,-0.20438 0.25413,-0.27623 0.35049,-0.13326 0.94656,-0.78654 0.94656,-1.0368 0,-0.0762 0.30682,-0.49711 0.68322,-0.93551 0.37641,-0.43839 0.8071,-0.94587 0.95577,-1.12703 0.14867,-0.18115 0.43607,-0.41612 0.63901,-0.52301 0.45643,-0.24036 0.79453,-0.97397 0.57273,-1.2412 -0.167,-0.20125 -0.0662,-0.80477 0.13443,-0.80477 0.0687,0 0.12523,0.0951 0.12523,0.21178 0,0.11669 0.0616,0.21178 0.13628,0.21178 0.0747,0 0.12312,-0.19034 0.10681,-0.42356 -0.0163,-0.2332 -0.0751,-0.42355 -0.12891,-0.42355 -0.10361,-3e-4 -0.0422,-0.48107 0.0883,-0.69243 0.0424,-0.0686 -0.0158,-0.20292 -0.13075,-0.29833 -0.25548,-0.21202 -0.14874,-0.42356 0.21361,-0.42356 0.22737,0 0.26383,-0.0977 0.23941,-0.63718 -0.018,-0.3981 -0.0955,-0.63534 -0.20625,-0.63534 -0.0972,-5.4e-4 -0.17679,-0.12051 -0.17679,-0.26702 0,-0.30987 0.71581,-0.51539 0.87842,-0.25229 0.0748,0.1211 0.14564,0.1177 0.27623,-0.0129 0.0966,-0.0966 0.12286,-0.17679 0.0589,-0.17679 -0.0639,0 -0.0379,-0.0951 0.0589,-0.21178 0.22301,-0.26884 0.4254,-0.27168 0.4254,-0.008 0,0.11208 0.0659,0.24439 0.14733,0.29464 0.0907,0.0561 0.13103,-0.0366 0.10312,-0.2394 -0.0793,-0.57706 -0.23426,-0.70023 -0.75688,-0.60219 -0.31514,0.0591 -0.48433,0.036 -0.48433,-0.0663 0,-0.0865 0.0796,-0.16462 0.17679,-0.17311 0.40981,-0.0363 0.89045,0.0555 0.9705,0.18416 0.0473,0.076 0.27045,0.11588 0.49538,0.0902 0.34489,-0.0394 0.41606,-0.11667 0.45302,-0.49906 0.0395,-0.40823 -0.004,-0.46539 -0.4254,-0.57456 -0.50311,-0.13038 -0.7577,-0.6163 -0.30201,-0.57641 0.14186,0.0124 0.43082,0.0124 0.64085,0 l 0.38121,-0.0221 -0.006,-1.26699 c -0.004,-0.6959 0.0385,-1.33484 0.0921,-1.42168 0.11492,-0.18592 -0.31501,-0.70716 -0.58377,-0.70716 -0.28363,0 -0.073,-0.38488 0.25782,-0.47143 0.21465,-0.0561 0.26307,-0.14482 0.18783,-0.33332 -0.24514,-0.61424 -0.3233,-1.77151 -0.16389,-2.42165 0.10005,-0.40811 0.0771,-0.47962 -0.18048,-0.54694 -0.16293,-0.0426 -0.29648,-0.17319 -0.29648,-0.28913 0,-0.12925 0.0816,-0.17879 0.21177,-0.12891 0.12456,0.0478 0.21178,0.003 0.21178,-0.11049 0,-0.1058 -0.16974,-0.23515 -0.37751,-0.28729 -0.2078,-0.0521 -0.53395,-0.21755 -0.72559,-0.36831 -0.31241,-0.24568 -0.73477,-0.36977 -0.73477,-0.21546 0,0.26413 0.20291,0.46418 0.41435,0.40883 0.1523,-0.0398 0.29005,0.0278 0.34436,0.16942 0.12764,0.33259 -0.0272,0.5211 -0.3462,0.41988 -0.33292,-0.10568 -0.34689,0.0386 -0.0369,0.38119 0.22142,0.24468 0.21243,0.25782 -0.15836,0.25782 -0.32275,0 -0.37941,-0.0491 -0.3186,-0.28176 0.0407,-0.15557 0.0172,-0.28359 -0.0534,-0.28359 -0.19137,0 -0.15508,-0.39089 0.0423,-0.45671 0.11283,-0.0376 0.0636,-0.1733 -0.14549,-0.39778 -0.1741,-0.18687 -0.29877,-0.43725 -0.27623,-0.55614 0.0523,-0.27672 0.70836,-0.35371 1.1215,-0.1326 0.23606,0.1261 0.33202,0.12722 0.37199,0.008 0.0297,-0.0889 0.14395,-0.16206 0.25415,-0.16206 0.22872,0 0.27197,-0.36188 0.0589,-0.49354 -0.0778,-0.0481 -0.1418,-0.20387 -0.1418,-0.34437 0,-0.14048 -0.12281,-0.40998 -0.27256,-0.60034 -0.1767,-0.22469 -0.22799,-0.41565 -0.14916,-0.54326 0.0669,-0.10813 0.09,-0.24735 0.0516,-0.30939 -0.0384,-0.062 -0.0107,-0.11233 0.0626,-0.11233 0.23093,0 0.29134,-0.56129 0.0829,-0.76977 -0.1098,-0.10975 -0.19888,-0.38599 -0.19888,-0.61324 0,-0.23463 -0.18445,-0.66735 -0.4254,-0.99996 -0.23337,-0.32216 -0.42356,-0.61397 -0.42356,-0.65007 0,-0.0833 -0.54601,-0.88886 -0.95209,-1.40511 -0.26099,-0.33181 -0.37946,-0.38131 -0.74031,-0.30202 -0.3644,0.08 -0.42907,0.0527 -0.42907,-0.18231 0,-0.32821 -1.09908,-1.18655 -2.33326,-1.82314 -0.46672,-0.24075 -1.03915,-0.53697 -1.27251,-0.65744 -4.07541,-2.1038 -6.13548,-2.56918 -11.38686,-2.56918 z m -3.11776,5.34051 c 0.0687,-0.004 0.13793,0.0373 0.2394,0.12155 0.182,0.15102 0.84192,0.19777 2.86546,0.20625 2.02964,0.008 2.74499,0.0598 3.12881,0.22651 0.27354,0.11885 0.79787,0.26159 1.16571,0.31675 0.36782,0.0552 0.84462,0.24668 1.05889,0.4254 0.21431,0.17874 0.64278,0.41022 0.95393,0.51564 0.31115,0.10542 0.73602,0.30642 0.94288,0.44565 0.20686,0.13918 0.47789,0.21345 0.60219,0.16575 0.14129,-0.0542 0.43238,0.0915 0.77714,0.38856 0.30331,0.26136 0.9109,0.69825 1.34986,0.9705 0.62319,0.38653 0.86126,0.63933 1.08467,1.15097 0.15738,0.36039 0.439,0.78755 0.62613,0.95025 0.18715,0.16271 0.30809,0.38027 0.26887,0.48249 -0.0392,0.10221 0.0566,0.58764 0.21362,1.07915 0.15704,0.49153 0.24353,0.9592 0.19336,1.04048 -0.0502,0.0813 0.0247,0.23202 0.16574,0.33516 0.23464,0.17158 0.34771,0.82712 0.48433,2.81575 0.0111,0.16256 0.74431,0.63165 0.98708,0.63165 0.0851,0 0.15469,-0.12619 0.15469,-0.28176 0,-0.282 0.15005,-0.36927 0.32964,-0.18968 0.052,0.0521 -0.0142,0.2156 -0.14733,0.36279 -0.20884,0.2308 -0.21311,0.28552 -0.035,0.39777 0.14107,0.0889 0.25789,0.0597 0.37016,-0.0902 0.14854,-0.19858 0.20552,-0.19758 0.59113,0.002 0.52588,0.27193 1.29462,0.1594 1.29462,-0.18967 0,-0.13029 0.0782,-0.31569 0.1731,-0.41068 0.0951,-0.095 0.17491,-0.29641 0.17679,-0.44933 0.008,-0.53574 0.2878,-0.34759 0.30939,0.20809 0.0173,0.44517 -0.0631,0.64868 -0.38673,0.97972 -0.4435,0.45362 -0.35768,0.82553 0.15837,0.69058 0.38706,-0.10121 0.34977,0.20024 -0.0405,0.32779 -0.17502,0.0572 -0.6204,0.10138 -0.98892,0.0976 -0.36851,-0.004 -0.63772,0.0435 -0.5985,0.1068 0.0392,0.0635 0.006,0.15539 -0.0736,0.20442 -0.0974,0.06 -0.0938,0.18322 0.009,0.37568 0.12245,0.2288 0.10022,0.32557 -0.10681,0.48248 -0.14228,0.10783 -0.41693,0.19881 -0.6114,0.20258 -0.74151,0.0135 -0.99075,0.1574 -0.99075,0.57456 0,0.30442 0.0744,0.40737 0.31674,0.44197 0.47005,0.067 0.51211,0.54142 0.0479,0.54142 -0.27352,0 -0.36463,0.0714 -0.36463,0.29097 0,0.49323 -0.24989,0.82233 -0.56352,0.7403 -0.24794,-0.0649 -0.28544,-0.006 -0.28544,0.45671 0,0.38747 -0.097,0.62089 -0.36095,0.86554 -0.19881,0.18428 -0.32229,0.3977 -0.27439,0.47511 0.0479,0.0775 -0.0287,0.1472 -0.16942,0.15285 -0.14078,0.007 -0.17967,0.042 -0.0883,0.0792 0.0913,0.0373 0.13754,0.22253 0.10313,0.41251 -0.0755,0.41631 0.019,0.42744 0.60219,0.0719 0.48879,-0.29804 1.03679,-0.24612 1.03679,0.0976 0,0.3041 -0.6654,0.88211 -1.0147,0.88211 -0.25045,0 -0.28051,0.0631 -0.20809,0.42539 0.078,0.39017 0.0527,0.42356 -0.30938,0.42356 -0.21654,0 -0.50867,-0.0845 -0.65008,-0.18784 -0.21426,-0.15668 -0.22898,-0.23982 -0.0902,-0.49905 0.0915,-0.17101 0.22625,-0.27399 0.30017,-0.22836 0.0739,0.0456 0.13444,0.0224 0.13444,-0.0516 0,-0.074 -0.0919,-0.1686 -0.20442,-0.21178 -0.12983,-0.0498 -0.46522,0.2221 -0.91893,0.74583 -0.39314,0.4538 -0.71636,0.87569 -0.71636,0.93735 0,0.0617 -0.20575,0.31563 -0.45855,0.56352 -0.25281,0.2479 -0.71882,0.72891 -1.03496,1.06994 -0.89149,0.96171 -2.05892,1.77365 -2.31852,1.61321 -0.0583,-0.036 -0.22648,0.023 -0.37384,0.13075 -0.14737,0.10777 -0.33085,0.1477 -0.40882,0.0883 -0.18454,-0.14027 -1.33404,-0.43457 -1.69792,-0.43645 -0.15557,-4.7e-4 -0.82494,-0.008 -1.48613,-0.0147 -1.95545,-0.0217 -2.12148,-0.004 -2.12148,0.22835 0,0.26121 -0.2905,0.2709 -0.88763,0.0276 -0.29409,-0.11984 -0.75546,-0.1581 -1.30382,-0.10681 -0.5537,0.0518 -0.76139,0.11665 -0.59667,0.18416 0.2315,0.0949 0.2351,0.13749 0.0405,0.51379 -0.21486,0.41545 -0.9475,0.73923 -1.04047,0.46039 -0.0264,-0.0793 -0.14843,-0.10405 -0.27071,-0.0571 -0.14946,0.0575 -0.20114,0.0197 -0.15654,-0.11417 0.0364,-0.10929 0.18667,-0.19889 0.33333,-0.19889 0.25093,-5.6e-4 0.69481,-0.62006 0.54878,-0.76609 -0.10811,-0.10815 -1.52413,-0.15874 -1.75684,-0.0626 -0.11668,0.0483 -1.3274,0.0764 -2.68867,0.0608 -3.247,-0.0371 -7.2346,0.39752 -8.13232,0.88763 -0.15557,0.085 -0.44087,0.16813 -0.63534,0.18416 -0.79451,0.0656 -1.92671,0.39335 -2.20067,0.63717 -0.16058,0.14295 -0.31972,0.25101 -0.35357,0.23941 -0.0339,-0.0117 -0.24154,-0.0481 -0.46039,-0.081 -0.35113,-0.0528 -0.38793,-0.10504 -0.31307,-0.44566 0.11884,-0.5411 0.20937,-1.95603 0.23389,-3.67943 0.0179,-1.25803 0.0586,-1.50018 0.29096,-1.69608 0.70823,-0.59715 1.08878,-1.04132 1.31303,-1.53217 0.13444,-0.29427 0.35555,-0.75902 0.49169,-1.03127 0.13615,-0.27226 0.22354,-0.62157 0.19337,-0.77714 -0.23468,-1.2108 -0.22641,-1.28776 0.20809,-1.78262 0.53263,-0.60663 0.58558,-0.90956 0.27256,-1.56902 -0.33865,-0.71341 -1.03335,-1.20703 -1.38854,-0.98523 -0.14448,0.0902 -0.35217,0.1639 -0.46039,0.1639 -0.1082,0 -0.27925,0.0985 -0.37936,0.21914 -0.10127,0.12201 -0.34345,0.20046 -0.54694,0.17679 -0.33129,-0.0386 -0.36289,-0.0951 -0.33516,-0.60771 0.0169,-0.31115 0.034,-1.1067 0.0369,-1.76789 0.003,-0.6612 0.055,-1.55185 0.11602,-1.97968 0.0761,-0.53314 0.0554,-0.91761 -0.0663,-1.22095 -0.17987,-0.44822 -0.17256,-1.28736 0.0129,-1.58742 0.0557,-0.0901 0.0941,-0.56238 0.0847,-1.04785 -0.009,-0.48547 0.01,-1.20033 0.0423,-1.58926 0.0328,-0.38894 -0.008,-1.00539 -0.0883,-1.37012 -0.16406,-0.73835 -0.0398,-1.0176 0.50828,-1.14913 0.17265,-0.0414 0.6953,-0.17282 1.16202,-0.29281 0.46673,-0.11998 1.16718,-0.2218 1.55612,-0.22651 0.38893,-0.005 0.96136,-0.0742 1.27251,-0.15469 2.28065,-0.59042 3.99781,-0.77644 8.29437,-0.89868 2.60952,-0.0742 3.21258,-0.1732 3.68864,-0.60403 0.10515,-0.0952 0.17433,-0.14368 0.24308,-0.14733 z" />
      </g>
      <path
         id="path14375"
         d="m -422.50703,-768.80015 -40.94727,29.52148 0,59.04297 34.0625,0 c 1.3811,-1.19869 3.11419,-3.14025 3.10352,-5.38281 -0.0218,-4.58658 -6.47624,-10.51125 -11.67188,-14.54687 -6.50315,1.60234 -12.19141,3.46875 -12.19141,3.46875 l -9.91015,-10.39063 c 0,0 14.51035,-22.16661 24.51367,-25.37109 3.77157,-1.20819 7.84533,-1.74851 11.92969,-1.67383 5.25131,0.096 10.52209,1.21111 15.19336,3.23437 9.92354,4.29819 23.4707,27.9668 23.4707,27.9668 l -12.51758,6.23438 c 0,0 -6.64502,-2.16628 -13.86328,-3.83204 -2.79956,3.77018 -4.46223,8.06822 -6.70508,11.11914 0,0 1.23875,2.03436 1.6211,3.15235 0.57412,1.6788 0.8921,4.41041 1.11914,6.02148 l 33.73828,0 0,-59.04297 -40.94531,-29.52148 z m -0.44727,66.42578 c 1.27058,1.75599 2.95066,3.85233 3.45312,4.48047 0.43572,-0.24909 1.6608,-1.89418 3.06641,-3.69141 -2.33872,-0.41831 -4.57151,-0.70617 -6.51953,-0.78906 z m -3.50781,0.0898 c -1.82832,0.15979 -3.84447,0.46849 -5.92578,0.87109 l 9.03515,7.5918 c 1.89423,-0.75094 0.0625,0.89342 2.00586,-1.48242 -0.80006,-1.40639 -4.48821,-5.40001 -5.11523,-6.98047 z"
         style="color:#000000;solid-opacity:1;fill:#ffffff;fill-opacity:1;stroke-width:6.9000001;stroke-linejoin:round;filter:url(#rough_edge)" />
    </g>
  </g>
</svg>
