<?xml version="1.0" encoding="UTF-8" standalone="no"?>
<svg
   xmlns:dc="http://purl.org/dc/elements/1.1/"
   xmlns:cc="http://creativecommons.org/ns#"
   xmlns:rdf="http://www.w3.org/1999/02/22-rdf-syntax-ns#"
   xmlns:svg="http://www.w3.org/2000/svg"
   xmlns="http://www.w3.org/2000/svg"
   width="60"
   height="60"
   viewBox="0 0 60 60"
   id="svg_swirls"
   version="1.1">
  <defs
     id="defs8548">
    <clipPath
       clipPathUnits="userSpaceOnUse"
       id="clipPath10064">
      <rect
         y="888.36212"
         x="0"
         height="263.99994"
         width="264"
         id="rect10066"
         style="display:inline;fill:#ffffff;fill-opacity:1;stroke:none;stroke-width:24;stroke-miterlimit:4;stroke-dasharray:none;stroke-opacity:1" />
    </clipPath>
    <pattern
       patternUnits="userSpaceOnUse"
       width="264"
       height="264"
       patternTransform="translate(0,888.36212)"
       id="swirls">
      <g
         clip-path="url(#clipPath10064)"
         id="g9990"
         transform="translate(0,-888.36212)">
        <g
           id="g9957"
           transform="matrix(0.26190507,0,0,0.26190507,18.856829,586.55469)"
           style="stroke-width:27.24322891;stroke-miterlimit:4;stroke-dasharray:none">
          <path
             style="color:#000000;clip-rule:nonzero;display:inline;visibility:visible;opacity:1;isolation:auto;mix-blend-mode:normal;color-interpolation:sRGB;solid-color:#000000;solid-opacity:1;fill:#ffffff;fill-opacity:1;fill-rule:nonzero;stroke:#000000;stroke-width:27.24322891;stroke-linecap:butt;stroke-linejoin:round;stroke-miterlimit:4;stroke-dasharray:none;stroke-dashoffset:0;stroke-opacity:1;marker:none;marker-start:none;marker-mid:none;marker-end:none;color-rendering:auto;shape-rendering:auto"
             d="M 1187.9997,1152.3621 A 251.99978,251.99985 0 0 1 936.00006,1404.3622 251.99978,251.99985 0 0 1 684.00027,1152.3621 251.99978,251.99985 0 0 1 936.00006,900.36222 251.99978,251.99985 0 0 1 1187.9997,1152.3621 Z"
             id="path9959" />
          <path
             style="color:#000000;clip-rule:nonzero;display:inline;visibility:visible;opacity:1;isolation:auto;mix-blend-mode:normal;color-interpolation:sRGB;solid-color:#000000;solid-opacity:1;fill:#ffffff;fill-opacity:1;fill-rule:nonzero;stroke:#000000;stroke-width:27.24322891;stroke-linecap:butt;stroke-linejoin:round;stroke-miterlimit:4;stroke-dasharray:none;stroke-dashoffset:0;stroke-opacity:1;marker:none;marker-start:none;marker-mid:none;marker-end:none;color-rendering:auto;shape-rendering:auto"
             d="M 1123.2814,1156.3621 A 187.28145,187.2815 0 0 1 936.00006,1343.6438 187.28145,187.2815 0 0 1 748.7186,1156.3621 187.28145,187.2815 0 0 1 936.00006,969.08058 187.28145,187.2815 0 0 1 1123.2814,1156.3621 Z"
             id="path9961" />
          <path
             style="color:#000000;clip-rule:nonzero;display:inline;visibility:visible;opacity:1;isolation:auto;mix-blend-mode:normal;color-interpolation:sRGB;solid-color:#000000;solid-opacity:1;fill:#ffffff;fill-opacity:1;fill-rule:nonzero;stroke:#000000;stroke-width:27.24322891;stroke-linecap:butt;stroke-linejoin:round;stroke-miterlimit:4;stroke-dasharray:none;stroke-dashoffset:0;stroke-opacity:1;marker:none;marker-start:none;marker-mid:none;marker-end:none;color-rendering:auto;shape-rendering:auto"
             d="m 1047.7768,1156.3621 a 111.77689,111.77692 0 0 1 -111.77674,111.777 111.77689,111.77692 0 0 1 -111.7769,-111.777 111.77689,111.77692 0 0 1 111.7769,-111.7768 111.77689,111.77692 0 0 1 111.77674,111.7768 z"
             id="path9963" />
          <path
             style="color:#000000;clip-rule:nonzero;display:inline;visibility:visible;opacity:1;isolation:auto;mix-blend-mode:normal;color-interpolation:sRGB;solid-color:#000000;solid-opacity:1;fill:#ffffff;fill-opacity:1;fill-rule:nonzero;stroke:#000000;stroke-width:27.24322891;stroke-linecap:butt;stroke-linejoin:round;stroke-miterlimit:4;stroke-dasharray:none;stroke-dashoffset:0;stroke-opacity:1;marker:none;marker-start:none;marker-mid:none;marker-end:none;color-rendering:auto;shape-rendering:auto"
             d="m 985.21599,1156.3621 a 49.215984,49.216 0 0 1 -49.21594,49.216 49.215984,49.216 0 0 1 -49.21597,-49.216 49.215984,49.216 0 0 1 49.21597,-49.216 49.215984,49.216 0 0 1 49.21594,49.216 z"
             id="path9965" />
        </g>
        <g
           style="stroke-width:27.24322891;stroke-miterlimit:4;stroke-dasharray:none"
           transform="matrix(0.26190507,0,0,0.26190507,-113.14314,586.55474)"
           id="g9947">
          <path
             id="path9949"
             d="M 1187.9997,1152.3621 A 251.99978,251.99985 0 0 1 936.00006,1404.3622 251.99978,251.99985 0 0 1 684.00027,1152.3621 251.99978,251.99985 0 0 1 936.00006,900.36222 251.99978,251.99985 0 0 1 1187.9997,1152.3621 Z"
             style="color:#000000;clip-rule:nonzero;display:inline;visibility:visible;opacity:1;isolation:auto;mix-blend-mode:normal;color-interpolation:sRGB;solid-color:#000000;solid-opacity:1;fill:#ffffff;fill-opacity:1;fill-rule:nonzero;stroke:#000000;stroke-width:27.24322891;stroke-linecap:butt;stroke-linejoin:round;stroke-miterlimit:4;stroke-dasharray:none;stroke-dashoffset:0;stroke-opacity:1;marker:none;marker-start:none;marker-mid:none;marker-end:none;color-rendering:auto;shape-rendering:auto" />
          <path
             id="path9951"
             d="M 1123.2814,1156.3621 A 187.28145,187.2815 0 0 1 936.00006,1343.6438 187.28145,187.2815 0 0 1 748.7186,1156.3621 187.28145,187.2815 0 0 1 936.00006,969.08058 187.28145,187.2815 0 0 1 1123.2814,1156.3621 Z"
             style="color:#000000;clip-rule:nonzero;display:inline;visibility:visible;opacity:1;isolation:auto;mix-blend-mode:normal;color-interpolation:sRGB;solid-color:#000000;solid-opacity:1;fill:#ffffff;fill-opacity:1;fill-rule:nonzero;stroke:#000000;stroke-width:27.24322891;stroke-linecap:butt;stroke-linejoin:round;stroke-miterlimit:4;stroke-dasharray:none;stroke-dashoffset:0;stroke-opacity:1;marker:none;marker-start:none;marker-mid:none;marker-end:none;color-rendering:auto;shape-rendering:auto" />
          <path
             id="path9953"
             d="m 1047.7768,1156.3621 a 111.77689,111.77692 0 0 1 -111.77674,111.777 111.77689,111.77692 0 0 1 -111.7769,-111.777 111.77689,111.77692 0 0 1 111.7769,-111.7768 111.77689,111.77692 0 0 1 111.77674,111.7768 z"
             style="color:#000000;clip-rule:nonzero;display:inline;visibility:visible;opacity:1;isolation:auto;mix-blend-mode:normal;color-interpolation:sRGB;solid-color:#000000;solid-opacity:1;fill:#ffffff;fill-opacity:1;fill-rule:nonzero;stroke:#000000;stroke-width:27.24322891;stroke-linecap:butt;stroke-linejoin:round;stroke-miterlimit:4;stroke-dasharray:none;stroke-dashoffset:0;stroke-opacity:1;marker:none;marker-start:none;marker-mid:none;marker-end:none;color-rendering:auto;shape-rendering:auto" />
          <path
             id="path9955"
             d="m 985.21599,1156.3621 a 49.215984,49.216 0 0 1 -49.21594,49.216 49.215984,49.216 0 0 1 -49.21597,-49.216 49.215984,49.216 0 0 1 49.21597,-49.216 49.215984,49.216 0 0 1 49.21594,49.216 z"
             style="color:#000000;clip-rule:nonzero;display:inline;visibility:visible;opacity:1;isolation:auto;mix-blend-mode:normal;color-interpolation:sRGB;solid-color:#000000;solid-opacity:1;fill:#ffffff;fill-opacity:1;fill-rule:nonzero;stroke:#000000;stroke-width:27.24322891;stroke-linecap:butt;stroke-linejoin:round;stroke-miterlimit:4;stroke-dasharray:none;stroke-dashoffset:0;stroke-opacity:1;marker:none;marker-start:none;marker-mid:none;marker-end:none;color-rendering:auto;shape-rendering:auto" />
        </g>
        <g
           id="g9917"
           transform="matrix(0.26190507,0,0,0.26190507,-47.143154,652.55479)"
           style="stroke-width:27.24322891;stroke-miterlimit:4;stroke-dasharray:none">
          <path
             style="color:#000000;clip-rule:nonzero;display:inline;visibility:visible;opacity:1;isolation:auto;mix-blend-mode:normal;color-interpolation:sRGB;solid-color:#000000;solid-opacity:1;fill:#ffffff;fill-opacity:1;fill-rule:nonzero;stroke:#000000;stroke-width:27.24322891;stroke-linecap:butt;stroke-linejoin:round;stroke-miterlimit:4;stroke-dasharray:none;stroke-dashoffset:0;stroke-opacity:1;marker:none;marker-start:none;marker-mid:none;marker-end:none;color-rendering:auto;shape-rendering:auto"
             d="M 1187.9997,1152.3621 A 251.99978,251.99985 0 0 1 936.00006,1404.3622 251.99978,251.99985 0 0 1 684.00027,1152.3621 251.99978,251.99985 0 0 1 936.00006,900.36222 251.99978,251.99985 0 0 1 1187.9997,1152.3621 Z"
             id="path9919" />
          <path
             style="color:#000000;clip-rule:nonzero;display:inline;visibility:visible;opacity:1;isolation:auto;mix-blend-mode:normal;color-interpolation:sRGB;solid-color:#000000;solid-opacity:1;fill:#ffffff;fill-opacity:1;fill-rule:nonzero;stroke:#000000;stroke-width:27.24322891;stroke-linecap:butt;stroke-linejoin:round;stroke-miterlimit:4;stroke-dasharray:none;stroke-dashoffset:0;stroke-opacity:1;marker:none;marker-start:none;marker-mid:none;marker-end:none;color-rendering:auto;shape-rendering:auto"
             d="M 1123.2814,1156.3621 A 187.28145,187.2815 0 0 1 936.00006,1343.6438 187.28145,187.2815 0 0 1 748.7186,1156.3621 187.28145,187.2815 0 0 1 936.00006,969.08058 187.28145,187.2815 0 0 1 1123.2814,1156.3621 Z"
             id="path9921" />
          <path
             style="color:#000000;clip-rule:nonzero;display:inline;visibility:visible;opacity:1;isolation:auto;mix-blend-mode:normal;color-interpolation:sRGB;solid-color:#000000;solid-opacity:1;fill:#ffffff;fill-opacity:1;fill-rule:nonzero;stroke:#000000;stroke-width:27.24322891;stroke-linecap:butt;stroke-linejoin:round;stroke-miterlimit:4;stroke-dasharray:none;stroke-dashoffset:0;stroke-opacity:1;marker:none;marker-start:none;marker-mid:none;marker-end:none;color-rendering:auto;shape-rendering:auto"
             d="m 1047.7768,1156.3621 a 111.77689,111.77692 0 0 1 -111.77674,111.777 111.77689,111.77692 0 0 1 -111.7769,-111.777 111.77689,111.77692 0 0 1 111.7769,-111.7768 111.77689,111.77692 0 0 1 111.77674,111.7768 z"
             id="path9923" />
          <path
             style="color:#000000;clip-rule:nonzero;display:inline;visibility:visible;opacity:1;isolation:auto;mix-blend-mode:normal;color-interpolation:sRGB;solid-color:#000000;solid-opacity:1;fill:#ffffff;fill-opacity:1;fill-rule:nonzero;stroke:#000000;stroke-width:27.24322891;stroke-linecap:butt;stroke-linejoin:round;stroke-miterlimit:4;stroke-dasharray:none;stroke-dashoffset:0;stroke-opacity:1;marker:none;marker-start:none;marker-mid:none;marker-end:none;color-rendering:auto;shape-rendering:auto"
             d="m 985.21599,1156.3621 a 49.215984,49.216 0 0 1 -49.21594,49.216 49.215984,49.216 0 0 1 -49.21597,-49.216 49.215984,49.216 0 0 1 49.21597,-49.216 49.215984,49.216 0 0 1 49.21594,49.216 z"
             id="path9925" />
        </g>
        <g
           id="g9937"
           transform="matrix(0.26190507,0,0,0.26190507,-245.14314,586.55471)"
           style="stroke-width:27.24322891;stroke-miterlimit:4;stroke-dasharray:none">
          <path
             style="color:#000000;clip-rule:nonzero;display:inline;visibility:visible;opacity:1;isolation:auto;mix-blend-mode:normal;color-interpolation:sRGB;solid-color:#000000;solid-opacity:1;fill:#ffffff;fill-opacity:1;fill-rule:nonzero;stroke:#000000;stroke-width:27.24322891;stroke-linecap:butt;stroke-linejoin:round;stroke-miterlimit:4;stroke-dasharray:none;stroke-dashoffset:0;stroke-opacity:1;marker:none;marker-start:none;marker-mid:none;marker-end:none;color-rendering:auto;shape-rendering:auto"
             d="M 1187.9997,1152.3621 A 251.99978,251.99985 0 0 1 936.00006,1404.3622 251.99978,251.99985 0 0 1 684.00027,1152.3621 251.99978,251.99985 0 0 1 936.00006,900.36222 251.99978,251.99985 0 0 1 1187.9997,1152.3621 Z"
             id="path9939" />
          <path
             style="color:#000000;clip-rule:nonzero;display:inline;visibility:visible;opacity:1;isolation:auto;mix-blend-mode:normal;color-interpolation:sRGB;solid-color:#000000;solid-opacity:1;fill:#ffffff;fill-opacity:1;fill-rule:nonzero;stroke:#000000;stroke-width:27.24322891;stroke-linecap:butt;stroke-linejoin:round;stroke-miterlimit:4;stroke-dasharray:none;stroke-dashoffset:0;stroke-opacity:1;marker:none;marker-start:none;marker-mid:none;marker-end:none;color-rendering:auto;shape-rendering:auto"
             d="M 1123.2814,1156.3621 A 187.28145,187.2815 0 0 1 936.00006,1343.6438 187.28145,187.2815 0 0 1 748.7186,1156.3621 187.28145,187.2815 0 0 1 936.00006,969.08058 187.28145,187.2815 0 0 1 1123.2814,1156.3621 Z"
             id="path9941" />
          <path
             style="color:#000000;clip-rule:nonzero;display:inline;visibility:visible;opacity:1;isolation:auto;mix-blend-mode:normal;color-interpolation:sRGB;solid-color:#000000;solid-opacity:1;fill:#ffffff;fill-opacity:1;fill-rule:nonzero;stroke:#000000;stroke-width:27.24322891;stroke-linecap:butt;stroke-linejoin:round;stroke-miterlimit:4;stroke-dasharray:none;stroke-dashoffset:0;stroke-opacity:1;marker:none;marker-start:none;marker-mid:none;marker-end:none;color-rendering:auto;shape-rendering:auto"
             d="m 1047.7768,1156.3621 a 111.77689,111.77692 0 0 1 -111.77674,111.777 111.77689,111.77692 0 0 1 -111.7769,-111.777 111.77689,111.77692 0 0 1 111.7769,-111.7768 111.77689,111.77692 0 0 1 111.77674,111.7768 z"
             id="path9943" />
          <path
             style="color:#000000;clip-rule:nonzero;display:inline;visibility:visible;opacity:1;isolation:auto;mix-blend-mode:normal;color-interpolation:sRGB;solid-color:#000000;solid-opacity:1;fill:#ffffff;fill-opacity:1;fill-rule:nonzero;stroke:#000000;stroke-width:27.24322891;stroke-linecap:butt;stroke-linejoin:round;stroke-miterlimit:4;stroke-dasharray:none;stroke-dashoffset:0;stroke-opacity:1;marker:none;marker-start:none;marker-mid:none;marker-end:none;color-rendering:auto;shape-rendering:auto"
             d="m 985.21599,1156.3621 a 49.215984,49.216 0 0 1 -49.21594,49.216 49.215984,49.216 0 0 1 -49.21597,-49.216 49.215984,49.216 0 0 1 49.21597,-49.216 49.215984,49.216 0 0 1 49.21594,49.216 z"
             id="path9945" />
        </g>
        <g
           style="stroke-width:27.24322891;stroke-miterlimit:4;stroke-dasharray:none"
           transform="matrix(0.26190507,0,0,0.26190507,-113.14318,718.55481)"
           id="g9907">
          <path
             id="path9909"
             d="M 1187.9997,1152.3621 A 251.99978,251.99985 0 0 1 936.00006,1404.3622 251.99978,251.99985 0 0 1 684.00027,1152.3621 251.99978,251.99985 0 0 1 936.00006,900.36222 251.99978,251.99985 0 0 1 1187.9997,1152.3621 Z"
             style="color:#000000;clip-rule:nonzero;display:inline;visibility:visible;opacity:1;isolation:auto;mix-blend-mode:normal;color-interpolation:sRGB;solid-color:#000000;solid-opacity:1;fill:#ffffff;fill-opacity:1;fill-rule:nonzero;stroke:#000000;stroke-width:27.24322891;stroke-linecap:butt;stroke-linejoin:round;stroke-miterlimit:4;stroke-dasharray:none;stroke-dashoffset:0;stroke-opacity:1;marker:none;marker-start:none;marker-mid:none;marker-end:none;color-rendering:auto;shape-rendering:auto" />
          <path
             id="path9911"
             d="M 1123.2814,1156.3621 A 187.28145,187.2815 0 0 1 936.00006,1343.6438 187.28145,187.2815 0 0 1 748.7186,1156.3621 187.28145,187.2815 0 0 1 936.00006,969.08058 187.28145,187.2815 0 0 1 1123.2814,1156.3621 Z"
             style="color:#000000;clip-rule:nonzero;display:inline;visibility:visible;opacity:1;isolation:auto;mix-blend-mode:normal;color-interpolation:sRGB;solid-color:#000000;solid-opacity:1;fill:#ffffff;fill-opacity:1;fill-rule:nonzero;stroke:#000000;stroke-width:27.24322891;stroke-linecap:butt;stroke-linejoin:round;stroke-miterlimit:4;stroke-dasharray:none;stroke-dashoffset:0;stroke-opacity:1;marker:none;marker-start:none;marker-mid:none;marker-end:none;color-rendering:auto;shape-rendering:auto" />
          <path
             id="path9913"
             d="m 1047.7768,1156.3621 a 111.77689,111.77692 0 0 1 -111.77674,111.777 111.77689,111.77692 0 0 1 -111.7769,-111.777 111.77689,111.77692 0 0 1 111.7769,-111.7768 111.77689,111.77692 0 0 1 111.77674,111.7768 z"
             style="color:#000000;clip-rule:nonzero;display:inline;visibility:visible;opacity:1;isolation:auto;mix-blend-mode:normal;color-interpolation:sRGB;solid-color:#000000;solid-opacity:1;fill:#ffffff;fill-opacity:1;fill-rule:nonzero;stroke:#000000;stroke-width:27.24322891;stroke-linecap:butt;stroke-linejoin:round;stroke-miterlimit:4;stroke-dasharray:none;stroke-dashoffset:0;stroke-opacity:1;marker:none;marker-start:none;marker-mid:none;marker-end:none;color-rendering:auto;shape-rendering:auto" />
          <path
             id="path9915"
             d="m 985.21599,1156.3621 a 49.215984,49.216 0 0 1 -49.21594,49.216 49.215984,49.216 0 0 1 -49.21597,-49.216 49.215984,49.216 0 0 1 49.21597,-49.216 49.215984,49.216 0 0 1 49.21594,49.216 z"
             style="color:#000000;clip-rule:nonzero;display:inline;visibility:visible;opacity:1;isolation:auto;mix-blend-mode:normal;color-interpolation:sRGB;solid-color:#000000;solid-opacity:1;fill:#ffffff;fill-opacity:1;fill-rule:nonzero;stroke:#000000;stroke-width:27.24322891;stroke-linecap:butt;stroke-linejoin:round;stroke-miterlimit:4;stroke-dasharray:none;stroke-dashoffset:0;stroke-opacity:1;marker:none;marker-start:none;marker-mid:none;marker-end:none;color-rendering:auto;shape-rendering:auto" />
        </g>
        <g
           style="stroke-width:27.24322891;stroke-miterlimit:4;stroke-dasharray:none"
           transform="matrix(0.26190507,0,0,0.26190507,-179.14316,652.55476)"
           id="g9927">
          <path
             id="path9929"
             d="M 1187.9997,1152.3621 A 251.99978,251.99985 0 0 1 936.00006,1404.3622 251.99978,251.99985 0 0 1 684.00027,1152.3621 251.99978,251.99985 0 0 1 936.00006,900.36222 251.99978,251.99985 0 0 1 1187.9997,1152.3621 Z"
             style="color:#000000;clip-rule:nonzero;display:inline;visibility:visible;opacity:1;isolation:auto;mix-blend-mode:normal;color-interpolation:sRGB;solid-color:#000000;solid-opacity:1;fill:#ffffff;fill-opacity:1;fill-rule:nonzero;stroke:#000000;stroke-width:27.24322891;stroke-linecap:butt;stroke-linejoin:round;stroke-miterlimit:4;stroke-dasharray:none;stroke-dashoffset:0;stroke-opacity:1;marker:none;marker-start:none;marker-mid:none;marker-end:none;color-rendering:auto;shape-rendering:auto" />
          <path
             id="path9931"
             d="M 1123.2814,1156.3621 A 187.28145,187.2815 0 0 1 936.00006,1343.6438 187.28145,187.2815 0 0 1 748.7186,1156.3621 187.28145,187.2815 0 0 1 936.00006,969.08058 187.28145,187.2815 0 0 1 1123.2814,1156.3621 Z"
             style="color:#000000;clip-rule:nonzero;display:inline;visibility:visible;opacity:1;isolation:auto;mix-blend-mode:normal;color-interpolation:sRGB;solid-color:#000000;solid-opacity:1;fill:#ffffff;fill-opacity:1;fill-rule:nonzero;stroke:#000000;stroke-width:27.24322891;stroke-linecap:butt;stroke-linejoin:round;stroke-miterlimit:4;stroke-dasharray:none;stroke-dashoffset:0;stroke-opacity:1;marker:none;marker-start:none;marker-mid:none;marker-end:none;color-rendering:auto;shape-rendering:auto" />
          <path
             id="path9933"
             d="m 1047.7768,1156.3621 a 111.77689,111.77692 0 0 1 -111.77674,111.777 111.77689,111.77692 0 0 1 -111.7769,-111.777 111.77689,111.77692 0 0 1 111.7769,-111.7768 111.77689,111.77692 0 0 1 111.77674,111.7768 z"
             style="color:#000000;clip-rule:nonzero;display:inline;visibility:visible;opacity:1;isolation:auto;mix-blend-mode:normal;color-interpolation:sRGB;solid-color:#000000;solid-opacity:1;fill:#ffffff;fill-opacity:1;fill-rule:nonzero;stroke:#000000;stroke-width:27.24322891;stroke-linecap:butt;stroke-linejoin:round;stroke-miterlimit:4;stroke-dasharray:none;stroke-dashoffset:0;stroke-opacity:1;marker:none;marker-start:none;marker-mid:none;marker-end:none;color-rendering:auto;shape-rendering:auto" />
          <path
             id="path9935"
             d="m 985.21599,1156.3621 a 49.215984,49.216 0 0 1 -49.21594,49.216 49.215984,49.216 0 0 1 -49.21597,-49.216 49.215984,49.216 0 0 1 49.21597,-49.216 49.215984,49.216 0 0 1 49.21594,49.216 z"
             style="color:#000000;clip-rule:nonzero;display:inline;visibility:visible;opacity:1;isolation:auto;mix-blend-mode:normal;color-interpolation:sRGB;solid-color:#000000;solid-opacity:1;fill:#ffffff;fill-opacity:1;fill-rule:nonzero;stroke:#000000;stroke-width:27.24322891;stroke-linecap:butt;stroke-linejoin:round;stroke-miterlimit:4;stroke-dasharray:none;stroke-dashoffset:0;stroke-opacity:1;marker:none;marker-start:none;marker-mid:none;marker-end:none;color-rendering:auto;shape-rendering:auto" />
        </g>
        <g
           style="stroke-width:27.24322891;stroke-miterlimit:4;stroke-dasharray:none"
           transform="matrix(0.26190507,0,0,0.26190507,-47.143162,784.55491)"
           id="g9867">
          <path
             id="path9869"
             d="M 1187.9997,1152.3621 A 251.99978,251.99985 0 0 1 936.00006,1404.3622 251.99978,251.99985 0 0 1 684.00027,1152.3621 251.99978,251.99985 0 0 1 936.00006,900.36222 251.99978,251.99985 0 0 1 1187.9997,1152.3621 Z"
             style="color:#000000;clip-rule:nonzero;display:inline;visibility:visible;opacity:1;isolation:auto;mix-blend-mode:normal;color-interpolation:sRGB;solid-color:#000000;solid-opacity:1;fill:#ffffff;fill-opacity:1;fill-rule:nonzero;stroke:#000000;stroke-width:27.24322891;stroke-linecap:butt;stroke-linejoin:round;stroke-miterlimit:4;stroke-dasharray:none;stroke-dashoffset:0;stroke-opacity:1;marker:none;marker-start:none;marker-mid:none;marker-end:none;color-rendering:auto;shape-rendering:auto" />
          <path
             id="path9871"
             d="M 1123.2814,1156.3621 A 187.28145,187.2815 0 0 1 936.00006,1343.6438 187.28145,187.2815 0 0 1 748.7186,1156.3621 187.28145,187.2815 0 0 1 936.00006,969.08058 187.28145,187.2815 0 0 1 1123.2814,1156.3621 Z"
             style="color:#000000;clip-rule:nonzero;display:inline;visibility:visible;opacity:1;isolation:auto;mix-blend-mode:normal;color-interpolation:sRGB;solid-color:#000000;solid-opacity:1;fill:#ffffff;fill-opacity:1;fill-rule:nonzero;stroke:#000000;stroke-width:27.24322891;stroke-linecap:butt;stroke-linejoin:round;stroke-miterlimit:4;stroke-dasharray:none;stroke-dashoffset:0;stroke-opacity:1;marker:none;marker-start:none;marker-mid:none;marker-end:none;color-rendering:auto;shape-rendering:auto" />
          <path
             id="path9873"
             d="m 1047.7768,1156.3621 a 111.77689,111.77692 0 0 1 -111.77674,111.777 111.77689,111.77692 0 0 1 -111.7769,-111.777 111.77689,111.77692 0 0 1 111.7769,-111.7768 111.77689,111.77692 0 0 1 111.77674,111.7768 z"
             style="color:#000000;clip-rule:nonzero;display:inline;visibility:visible;opacity:1;isolation:auto;mix-blend-mode:normal;color-interpolation:sRGB;solid-color:#000000;solid-opacity:1;fill:#ffffff;fill-opacity:1;fill-rule:nonzero;stroke:#000000;stroke-width:27.24322891;stroke-linecap:butt;stroke-linejoin:round;stroke-miterlimit:4;stroke-dasharray:none;stroke-dashoffset:0;stroke-opacity:1;marker:none;marker-start:none;marker-mid:none;marker-end:none;color-rendering:auto;shape-rendering:auto" />
          <path
             id="path9875"
             d="m 985.21599,1156.3621 a 49.215984,49.216 0 0 1 -49.21594,49.216 49.215984,49.216 0 0 1 -49.21597,-49.216 49.215984,49.216 0 0 1 49.21597,-49.216 49.215984,49.216 0 0 1 49.21594,49.216 z"
             style="color:#000000;clip-rule:nonzero;display:inline;visibility:visible;opacity:1;isolation:auto;mix-blend-mode:normal;color-interpolation:sRGB;solid-color:#000000;solid-opacity:1;fill:#ffffff;fill-opacity:1;fill-rule:nonzero;stroke:#000000;stroke-width:27.24322891;stroke-linecap:butt;stroke-linejoin:round;stroke-miterlimit:4;stroke-dasharray:none;stroke-dashoffset:0;stroke-opacity:1;marker:none;marker-start:none;marker-mid:none;marker-end:none;color-rendering:auto;shape-rendering:auto" />
        </g>
        <g
           id="g9797"
           transform="matrix(0.26190507,0,0,0.26190507,18.856846,850.555)"
           style="stroke-width:27.24322891;stroke-miterlimit:4;stroke-dasharray:none">
          <path
             style="color:#000000;clip-rule:nonzero;display:inline;visibility:visible;opacity:1;isolation:auto;mix-blend-mode:normal;color-interpolation:sRGB;solid-color:#000000;solid-opacity:1;fill:#ffffff;fill-opacity:1;fill-rule:nonzero;stroke:#000000;stroke-width:27.24322891;stroke-linecap:butt;stroke-linejoin:round;stroke-miterlimit:4;stroke-dasharray:none;stroke-dashoffset:0;stroke-opacity:1;marker:none;marker-start:none;marker-mid:none;marker-end:none;color-rendering:auto;shape-rendering:auto"
             d="M 1187.9997,1152.3621 A 251.99978,251.99985 0 0 1 936.00006,1404.3622 251.99978,251.99985 0 0 1 684.00027,1152.3621 251.99978,251.99985 0 0 1 936.00006,900.36222 251.99978,251.99985 0 0 1 1187.9997,1152.3621 Z"
             id="path9755" />
          <path
             style="color:#000000;clip-rule:nonzero;display:inline;visibility:visible;opacity:1;isolation:auto;mix-blend-mode:normal;color-interpolation:sRGB;solid-color:#000000;solid-opacity:1;fill:#ffffff;fill-opacity:1;fill-rule:nonzero;stroke:#000000;stroke-width:27.24322891;stroke-linecap:butt;stroke-linejoin:round;stroke-miterlimit:4;stroke-dasharray:none;stroke-dashoffset:0;stroke-opacity:1;marker:none;marker-start:none;marker-mid:none;marker-end:none;color-rendering:auto;shape-rendering:auto"
             d="M 1123.2814,1156.3621 A 187.28145,187.2815 0 0 1 936.00006,1343.6438 187.28145,187.2815 0 0 1 748.7186,1156.3621 187.28145,187.2815 0 0 1 936.00006,969.08058 187.28145,187.2815 0 0 1 1123.2814,1156.3621 Z"
             id="path9757" />
          <path
             style="color:#000000;clip-rule:nonzero;display:inline;visibility:visible;opacity:1;isolation:auto;mix-blend-mode:normal;color-interpolation:sRGB;solid-color:#000000;solid-opacity:1;fill:#ffffff;fill-opacity:1;fill-rule:nonzero;stroke:#000000;stroke-width:27.24322891;stroke-linecap:butt;stroke-linejoin:round;stroke-miterlimit:4;stroke-dasharray:none;stroke-dashoffset:0;stroke-opacity:1;marker:none;marker-start:none;marker-mid:none;marker-end:none;color-rendering:auto;shape-rendering:auto"
             d="m 1047.7768,1156.3621 a 111.77689,111.77692 0 0 1 -111.77674,111.777 111.77689,111.77692 0 0 1 -111.7769,-111.777 111.77689,111.77692 0 0 1 111.7769,-111.7768 111.77689,111.77692 0 0 1 111.77674,111.7768 z"
             id="path9759" />
          <path
             style="color:#000000;clip-rule:nonzero;display:inline;visibility:visible;opacity:1;isolation:auto;mix-blend-mode:normal;color-interpolation:sRGB;solid-color:#000000;solid-opacity:1;fill:#ffffff;fill-opacity:1;fill-rule:nonzero;stroke:#000000;stroke-width:27.24322891;stroke-linecap:butt;stroke-linejoin:round;stroke-miterlimit:4;stroke-dasharray:none;stroke-dashoffset:0;stroke-opacity:1;marker:none;marker-start:none;marker-mid:none;marker-end:none;color-rendering:auto;shape-rendering:auto"
             d="m 985.21599,1156.3621 a 49.215984,49.216 0 0 1 -49.21594,49.216 49.215984,49.216 0 0 1 -49.21597,-49.216 49.215984,49.216 0 0 1 49.21597,-49.216 49.215984,49.216 0 0 1 49.21594,49.216 z"
             id="path9761" />
        </g>
        <g
           style="stroke-width:27.24322891;stroke-miterlimit:4;stroke-dasharray:none"
           transform="matrix(0.26190507,0,0,0.26190507,-113.14315,850.55499)"
           id="g9841">
          <path
             id="path9843"
             d="M 1187.9997,1152.3621 A 251.99978,251.99985 0 0 1 936.00006,1404.3622 251.99978,251.99985 0 0 1 684.00027,1152.3621 251.99978,251.99985 0 0 1 936.00006,900.36222 251.99978,251.99985 0 0 1 1187.9997,1152.3621 Z"
             style="color:#000000;clip-rule:nonzero;display:inline;visibility:visible;opacity:1;isolation:auto;mix-blend-mode:normal;color-interpolation:sRGB;solid-color:#000000;solid-opacity:1;fill:#ffffff;fill-opacity:1;fill-rule:nonzero;stroke:#000000;stroke-width:27.24322891;stroke-linecap:butt;stroke-linejoin:round;stroke-miterlimit:4;stroke-dasharray:none;stroke-dashoffset:0;stroke-opacity:1;marker:none;marker-start:none;marker-mid:none;marker-end:none;color-rendering:auto;shape-rendering:auto" />
          <path
             id="path9845"
             d="M 1123.2814,1156.3621 A 187.28145,187.2815 0 0 1 936.00006,1343.6438 187.28145,187.2815 0 0 1 748.7186,1156.3621 187.28145,187.2815 0 0 1 936.00006,969.08058 187.28145,187.2815 0 0 1 1123.2814,1156.3621 Z"
             style="color:#000000;clip-rule:nonzero;display:inline;visibility:visible;opacity:1;isolation:auto;mix-blend-mode:normal;color-interpolation:sRGB;solid-color:#000000;solid-opacity:1;fill:#ffffff;fill-opacity:1;fill-rule:nonzero;stroke:#000000;stroke-width:27.24322891;stroke-linecap:butt;stroke-linejoin:round;stroke-miterlimit:4;stroke-dasharray:none;stroke-dashoffset:0;stroke-opacity:1;marker:none;marker-start:none;marker-mid:none;marker-end:none;color-rendering:auto;shape-rendering:auto" />
          <path
             id="path9847"
             d="m 1047.7768,1156.3621 a 111.77689,111.77692 0 0 1 -111.77674,111.777 111.77689,111.77692 0 0 1 -111.7769,-111.777 111.77689,111.77692 0 0 1 111.7769,-111.7768 111.77689,111.77692 0 0 1 111.77674,111.7768 z"
             style="color:#000000;clip-rule:nonzero;display:inline;visibility:visible;opacity:1;isolation:auto;mix-blend-mode:normal;color-interpolation:sRGB;solid-color:#000000;solid-opacity:1;fill:#ffffff;fill-opacity:1;fill-rule:nonzero;stroke:#000000;stroke-width:27.24322891;stroke-linecap:butt;stroke-linejoin:round;stroke-miterlimit:4;stroke-dasharray:none;stroke-dashoffset:0;stroke-opacity:1;marker:none;marker-start:none;marker-mid:none;marker-end:none;color-rendering:auto;shape-rendering:auto" />
          <path
             id="path9849"
             d="m 985.21599,1156.3621 a 49.215984,49.216 0 0 1 -49.21594,49.216 49.215984,49.216 0 0 1 -49.21597,-49.216 49.215984,49.216 0 0 1 49.21597,-49.216 49.215984,49.216 0 0 1 49.21594,49.216 z"
             style="color:#000000;clip-rule:nonzero;display:inline;visibility:visible;opacity:1;isolation:auto;mix-blend-mode:normal;color-interpolation:sRGB;solid-color:#000000;solid-opacity:1;fill:#ffffff;fill-opacity:1;fill-rule:nonzero;stroke:#000000;stroke-width:27.24322891;stroke-linecap:butt;stroke-linejoin:round;stroke-miterlimit:4;stroke-dasharray:none;stroke-dashoffset:0;stroke-opacity:1;marker:none;marker-start:none;marker-mid:none;marker-end:none;color-rendering:auto;shape-rendering:auto" />
        </g>
        <g
           style="stroke-width:27.24322891;stroke-miterlimit:4;stroke-dasharray:none"
           transform="matrix(0.26190507,0,0,0.26190507,-245.14318,718.55484)"
           id="g9887">
          <path
             id="path9889"
             d="M 1187.9997,1152.3621 A 251.99978,251.99985 0 0 1 936.00006,1404.3622 251.99978,251.99985 0 0 1 684.00027,1152.3621 251.99978,251.99985 0 0 1 936.00006,900.36222 251.99978,251.99985 0 0 1 1187.9997,1152.3621 Z"
             style="color:#000000;clip-rule:nonzero;display:inline;visibility:visible;opacity:1;isolation:auto;mix-blend-mode:normal;color-interpolation:sRGB;solid-color:#000000;solid-opacity:1;fill:#ffffff;fill-opacity:1;fill-rule:nonzero;stroke:#000000;stroke-width:27.24322891;stroke-linecap:butt;stroke-linejoin:round;stroke-miterlimit:4;stroke-dasharray:none;stroke-dashoffset:0;stroke-opacity:1;marker:none;marker-start:none;marker-mid:none;marker-end:none;color-rendering:auto;shape-rendering:auto" />
          <path
             id="path9891"
             d="M 1123.2814,1156.3621 A 187.28145,187.2815 0 0 1 936.00006,1343.6438 187.28145,187.2815 0 0 1 748.7186,1156.3621 187.28145,187.2815 0 0 1 936.00006,969.08058 187.28145,187.2815 0 0 1 1123.2814,1156.3621 Z"
             style="color:#000000;clip-rule:nonzero;display:inline;visibility:visible;opacity:1;isolation:auto;mix-blend-mode:normal;color-interpolation:sRGB;solid-color:#000000;solid-opacity:1;fill:#ffffff;fill-opacity:1;fill-rule:nonzero;stroke:#000000;stroke-width:27.24322891;stroke-linecap:butt;stroke-linejoin:round;stroke-miterlimit:4;stroke-dasharray:none;stroke-dashoffset:0;stroke-opacity:1;marker:none;marker-start:none;marker-mid:none;marker-end:none;color-rendering:auto;shape-rendering:auto" />
          <path
             id="path9893"
             d="m 1047.7768,1156.3621 a 111.77689,111.77692 0 0 1 -111.77674,111.777 111.77689,111.77692 0 0 1 -111.7769,-111.777 111.77689,111.77692 0 0 1 111.7769,-111.7768 111.77689,111.77692 0 0 1 111.77674,111.7768 z"
             style="color:#000000;clip-rule:nonzero;display:inline;visibility:visible;opacity:1;isolation:auto;mix-blend-mode:normal;color-interpolation:sRGB;solid-color:#000000;solid-opacity:1;fill:#ffffff;fill-opacity:1;fill-rule:nonzero;stroke:#000000;stroke-width:27.24322891;stroke-linecap:butt;stroke-linejoin:round;stroke-miterlimit:4;stroke-dasharray:none;stroke-dashoffset:0;stroke-opacity:1;marker:none;marker-start:none;marker-mid:none;marker-end:none;color-rendering:auto;shape-rendering:auto" />
          <path
             id="path9895"
             d="m 985.21599,1156.3621 a 49.215984,49.216 0 0 1 -49.21594,49.216 49.215984,49.216 0 0 1 -49.21597,-49.216 49.215984,49.216 0 0 1 49.21597,-49.216 49.215984,49.216 0 0 1 49.21594,49.216 z"
             style="color:#000000;clip-rule:nonzero;display:inline;visibility:visible;opacity:1;isolation:auto;mix-blend-mode:normal;color-interpolation:sRGB;solid-color:#000000;solid-opacity:1;fill:#ffffff;fill-opacity:1;fill-rule:nonzero;stroke:#000000;stroke-width:27.24322891;stroke-linecap:butt;stroke-linejoin:round;stroke-miterlimit:4;stroke-dasharray:none;stroke-dashoffset:0;stroke-opacity:1;marker:none;marker-start:none;marker-mid:none;marker-end:none;color-rendering:auto;shape-rendering:auto" />
        </g>
        <g
           id="g9877"
           transform="matrix(0.26190507,0,0,0.26190507,-179.14315,784.55491)"
           style="stroke-width:27.24322891;stroke-miterlimit:4;stroke-dasharray:none">
          <path
             style="color:#000000;clip-rule:nonzero;display:inline;visibility:visible;opacity:1;isolation:auto;mix-blend-mode:normal;color-interpolation:sRGB;solid-color:#000000;solid-opacity:1;fill:#ffffff;fill-opacity:1;fill-rule:nonzero;stroke:#000000;stroke-width:27.24322891;stroke-linecap:butt;stroke-linejoin:round;stroke-miterlimit:4;stroke-dasharray:none;stroke-dashoffset:0;stroke-opacity:1;marker:none;marker-start:none;marker-mid:none;marker-end:none;color-rendering:auto;shape-rendering:auto"
             d="M 1187.9997,1152.3621 A 251.99978,251.99985 0 0 1 936.00006,1404.3622 251.99978,251.99985 0 0 1 684.00027,1152.3621 251.99978,251.99985 0 0 1 936.00006,900.36222 251.99978,251.99985 0 0 1 1187.9997,1152.3621 Z"
             id="path9879" />
          <path
             style="color:#000000;clip-rule:nonzero;display:inline;visibility:visible;opacity:1;isolation:auto;mix-blend-mode:normal;color-interpolation:sRGB;solid-color:#000000;solid-opacity:1;fill:#ffffff;fill-opacity:1;fill-rule:nonzero;stroke:#000000;stroke-width:27.24322891;stroke-linecap:butt;stroke-linejoin:round;stroke-miterlimit:4;stroke-dasharray:none;stroke-dashoffset:0;stroke-opacity:1;marker:none;marker-start:none;marker-mid:none;marker-end:none;color-rendering:auto;shape-rendering:auto"
             d="M 1123.2814,1156.3621 A 187.28145,187.2815 0 0 1 936.00006,1343.6438 187.28145,187.2815 0 0 1 748.7186,1156.3621 187.28145,187.2815 0 0 1 936.00006,969.08058 187.28145,187.2815 0 0 1 1123.2814,1156.3621 Z"
             id="path9881" />
          <path
             style="color:#000000;clip-rule:nonzero;display:inline;visibility:visible;opacity:1;isolation:auto;mix-blend-mode:normal;color-interpolation:sRGB;solid-color:#000000;solid-opacity:1;fill:#ffffff;fill-opacity:1;fill-rule:nonzero;stroke:#000000;stroke-width:27.24322891;stroke-linecap:butt;stroke-linejoin:round;stroke-miterlimit:4;stroke-dasharray:none;stroke-dashoffset:0;stroke-opacity:1;marker:none;marker-start:none;marker-mid:none;marker-end:none;color-rendering:auto;shape-rendering:auto"
             d="m 1047.7768,1156.3621 a 111.77689,111.77692 0 0 1 -111.77674,111.777 111.77689,111.77692 0 0 1 -111.7769,-111.777 111.77689,111.77692 0 0 1 111.7769,-111.7768 111.77689,111.77692 0 0 1 111.77674,111.7768 z"
             id="path9883" />
          <path
             style="color:#000000;clip-rule:nonzero;display:inline;visibility:visible;opacity:1;isolation:auto;mix-blend-mode:normal;color-interpolation:sRGB;solid-color:#000000;solid-opacity:1;fill:#ffffff;fill-opacity:1;fill-rule:nonzero;stroke:#000000;stroke-width:27.24322891;stroke-linecap:butt;stroke-linejoin:round;stroke-miterlimit:4;stroke-dasharray:none;stroke-dashoffset:0;stroke-opacity:1;marker:none;marker-start:none;marker-mid:none;marker-end:none;color-rendering:auto;shape-rendering:auto"
             d="m 985.21599,1156.3621 a 49.215984,49.216 0 0 1 -49.21594,49.216 49.215984,49.216 0 0 1 -49.21597,-49.216 49.215984,49.216 0 0 1 49.21597,-49.216 49.215984,49.216 0 0 1 49.21594,49.216 z"
             id="path9885" />
        </g>
        <g
           id="g9851"
           transform="matrix(0.26190507,0,0,0.26190507,-245.14316,850.55499)"
           style="stroke-width:27.24322891;stroke-miterlimit:4;stroke-dasharray:none">
          <path
             style="color:#000000;clip-rule:nonzero;display:inline;visibility:visible;opacity:1;isolation:auto;mix-blend-mode:normal;color-interpolation:sRGB;solid-color:#000000;solid-opacity:1;fill:#ffffff;fill-opacity:1;fill-rule:nonzero;stroke:#000000;stroke-width:27.24322891;stroke-linecap:butt;stroke-linejoin:round;stroke-miterlimit:4;stroke-dasharray:none;stroke-dashoffset:0;stroke-opacity:1;marker:none;marker-start:none;marker-mid:none;marker-end:none;color-rendering:auto;shape-rendering:auto"
             d="M 1187.9997,1152.3621 A 251.99978,251.99985 0 0 1 936.00006,1404.3622 251.99978,251.99985 0 0 1 684.00027,1152.3621 251.99978,251.99985 0 0 1 936.00006,900.36222 251.99978,251.99985 0 0 1 1187.9997,1152.3621 Z"
             id="path9853" />
          <path
             style="color:#000000;clip-rule:nonzero;display:inline;visibility:visible;opacity:1;isolation:auto;mix-blend-mode:normal;color-interpolation:sRGB;solid-color:#000000;solid-opacity:1;fill:#ffffff;fill-opacity:1;fill-rule:nonzero;stroke:#000000;stroke-width:27.24322891;stroke-linecap:butt;stroke-linejoin:round;stroke-miterlimit:4;stroke-dasharray:none;stroke-dashoffset:0;stroke-opacity:1;marker:none;marker-start:none;marker-mid:none;marker-end:none;color-rendering:auto;shape-rendering:auto"
             d="M 1123.2814,1156.3621 A 187.28145,187.2815 0 0 1 936.00006,1343.6438 187.28145,187.2815 0 0 1 748.7186,1156.3621 187.28145,187.2815 0 0 1 936.00006,969.08058 187.28145,187.2815 0 0 1 1123.2814,1156.3621 Z"
             id="path9855" />
          <path
             style="color:#000000;clip-rule:nonzero;display:inline;visibility:visible;opacity:1;isolation:auto;mix-blend-mode:normal;color-interpolation:sRGB;solid-color:#000000;solid-opacity:1;fill:#ffffff;fill-opacity:1;fill-rule:nonzero;stroke:#000000;stroke-width:27.24322891;stroke-linecap:butt;stroke-linejoin:round;stroke-miterlimit:4;stroke-dasharray:none;stroke-dashoffset:0;stroke-opacity:1;marker:none;marker-start:none;marker-mid:none;marker-end:none;color-rendering:auto;shape-rendering:auto"
             d="m 1047.7768,1156.3621 a 111.77689,111.77692 0 0 1 -111.77674,111.777 111.77689,111.77692 0 0 1 -111.7769,-111.777 111.77689,111.77692 0 0 1 111.7769,-111.7768 111.77689,111.77692 0 0 1 111.77674,111.7768 z"
             id="path9857" />
          <path
             style="color:#000000;clip-rule:nonzero;display:inline;visibility:visible;opacity:1;isolation:auto;mix-blend-mode:normal;color-interpolation:sRGB;solid-color:#000000;solid-opacity:1;fill:#ffffff;fill-opacity:1;fill-rule:nonzero;stroke:#000000;stroke-width:27.24322891;stroke-linecap:butt;stroke-linejoin:round;stroke-miterlimit:4;stroke-dasharray:none;stroke-dashoffset:0;stroke-opacity:1;marker:none;marker-start:none;marker-mid:none;marker-end:none;color-rendering:auto;shape-rendering:auto"
             d="m 985.21599,1156.3621 a 49.215984,49.216 0 0 1 -49.21594,49.216 49.215984,49.216 0 0 1 -49.21597,-49.216 49.215984,49.216 0 0 1 49.21597,-49.216 49.215984,49.216 0 0 1 49.21594,49.216 z"
             id="path9859" />
        </g>
        <g
           id="g9897"
           transform="matrix(0.26190507,0,0,0.26190507,18.856829,718.55484)"
           style="stroke-width:27.24322891;stroke-miterlimit:4;stroke-dasharray:none">
          <path
             style="color:#000000;clip-rule:nonzero;display:inline;visibility:visible;opacity:1;isolation:auto;mix-blend-mode:normal;color-interpolation:sRGB;solid-color:#000000;solid-opacity:1;fill:#ffffff;fill-opacity:1;fill-rule:nonzero;stroke:#000000;stroke-width:27.24322891;stroke-linecap:butt;stroke-linejoin:round;stroke-miterlimit:4;stroke-dasharray:none;stroke-dashoffset:0;stroke-opacity:1;marker:none;marker-start:none;marker-mid:none;marker-end:none;color-rendering:auto;shape-rendering:auto"
             d="M 1187.9997,1152.3621 A 251.99978,251.99985 0 0 1 936.00006,1404.3622 251.99978,251.99985 0 0 1 684.00027,1152.3621 251.99978,251.99985 0 0 1 936.00006,900.36222 251.99978,251.99985 0 0 1 1187.9997,1152.3621 Z"
             id="path9899" />
          <path
             style="color:#000000;clip-rule:nonzero;display:inline;visibility:visible;opacity:1;isolation:auto;mix-blend-mode:normal;color-interpolation:sRGB;solid-color:#000000;solid-opacity:1;fill:#ffffff;fill-opacity:1;fill-rule:nonzero;stroke:#000000;stroke-width:27.24322891;stroke-linecap:butt;stroke-linejoin:round;stroke-miterlimit:4;stroke-dasharray:none;stroke-dashoffset:0;stroke-opacity:1;marker:none;marker-start:none;marker-mid:none;marker-end:none;color-rendering:auto;shape-rendering:auto"
             d="M 1123.2814,1156.3621 A 187.28145,187.2815 0 0 1 936.00006,1343.6438 187.28145,187.2815 0 0 1 748.7186,1156.3621 187.28145,187.2815 0 0 1 936.00006,969.08058 187.28145,187.2815 0 0 1 1123.2814,1156.3621 Z"
             id="path9901" />
          <path
             style="color:#000000;clip-rule:nonzero;display:inline;visibility:visible;opacity:1;isolation:auto;mix-blend-mode:normal;color-interpolation:sRGB;solid-color:#000000;solid-opacity:1;fill:#ffffff;fill-opacity:1;fill-rule:nonzero;stroke:#000000;stroke-width:27.24322891;stroke-linecap:butt;stroke-linejoin:round;stroke-miterlimit:4;stroke-dasharray:none;stroke-dashoffset:0;stroke-opacity:1;marker:none;marker-start:none;marker-mid:none;marker-end:none;color-rendering:auto;shape-rendering:auto"
             d="m 1047.7768,1156.3621 a 111.77689,111.77692 0 0 1 -111.77674,111.777 111.77689,111.77692 0 0 1 -111.7769,-111.777 111.77689,111.77692 0 0 1 111.7769,-111.7768 111.77689,111.77692 0 0 1 111.77674,111.7768 z"
             id="path9903" />
          <path
             style="color:#000000;clip-rule:nonzero;display:inline;visibility:visible;opacity:1;isolation:auto;mix-blend-mode:normal;color-interpolation:sRGB;solid-color:#000000;solid-opacity:1;fill:#ffffff;fill-opacity:1;fill-rule:nonzero;stroke:#000000;stroke-width:27.24322891;stroke-linecap:butt;stroke-linejoin:round;stroke-miterlimit:4;stroke-dasharray:none;stroke-dashoffset:0;stroke-opacity:1;marker:none;marker-start:none;marker-mid:none;marker-end:none;color-rendering:auto;shape-rendering:auto"
             d="m 985.21599,1156.3621 a 49.215984,49.216 0 0 1 -49.21594,49.216 49.215984,49.216 0 0 1 -49.21597,-49.216 49.215984,49.216 0 0 1 49.21597,-49.216 49.215984,49.216 0 0 1 49.21594,49.216 z"
             id="path9905" />
        </g>
      </g>
    </pattern>
  </defs>
  <metadata
     id="metadata8551">
    <rdf:RDF>
      <cc:Work
         rdf:about="">
        <dc:format>image/svg+xml</dc:format>
        <dc:type
           rdf:resource="http://purl.org/dc/dcmitype/StillImage" />
        <dc:title></dc:title>
      </cc:Work>
    </rdf:RDF>
  </metadata>
  <g
     id="layer1"
     transform="matrix(0.22727273,0,0,0.22727273,0,-201.90048)">
    <rect
       style="opacity:0.02999998;fill:url(#swirls);stroke:none"
       width="264"
       height="263.99994"
       x="0"
       y="888.36212"
       id="swirl_pattern">
      <title
         id="title4936">swirl pattern</title>
    </rect>
  </g>
</svg>
