<?xml version="1.0" encoding="UTF-8" standalone="no"?>
<svg
   xmlns:dc="http://purl.org/dc/elements/1.1/"
   xmlns:cc="http://creativecommons.org/ns#"
   xmlns:rdf="http://www.w3.org/1999/02/22-rdf-syntax-ns#"
   xmlns:svg="http://www.w3.org/2000/svg"
   xmlns="http://www.w3.org/2000/svg"
   xmlns:sodipodi="http://sodipodi.sourceforge.net/DTD/sodipodi-0.dtd"
   xmlns:inkscape="http://www.inkscape.org/namespaces/inkscape"
   id="Union Jack"
   viewBox="-15 -7.5 30 15"
   version="1.1"
   zoomAndPan="magnify"
   inkscape:version="0.91 r"
   sodipodi:docname="Anonymous-Flag-of-Britain-1.svg">
  <sodipodi:namedview
     pagecolor="#ffffff"
     bordercolor="#666666"
     borderopacity="1"
     objecttolerance="10"
     gridtolerance="10"
     guidetolerance="10"
     inkscape:pageopacity="0"
     inkscape:pageshadow="2"
     inkscape:window-width="1920"
     inkscape:window-height="1161"
     id="namedview16391"
     showgrid="false"
     inkscape:object-paths="true"
     inkscape:snap-intersection-paths="true"
     inkscape:object-nodes="true"
     inkscape:snap-smooth-nodes="true"
     inkscape:snap-midpoints="true"
     inkscape:snap-bbox="true"
     inkscape:bbox-nodes="true"
     inkscape:zoom="11.313709"
     inkscape:cx="1.424403"
     inkscape:cy="12.457789"
     inkscape:window-x="1920"
     inkscape:window-y="0"
     inkscape:window-maximized="1"
     inkscape:current-layer="Union Jack"
     showguides="true"
     inkscape:guide-bbox="true">
    <sodipodi:guide
       position="-4.9999021,17.500196"
       orientation="1,0"
       id="guide9829" />
    <sodipodi:guide
       position="-4.9999019,17.500196"
       orientation="0,1"
       id="guide9831" />
  </sodipodi:namedview>
  <defs
     id="defs16375">
    <clipPath
       id="border">
      <rect
         id="rect15356"
         width="30"
         height="15"
         x="-15"
         y="-7.5" />
    </clipPath>
  </defs>
  <path
     style="fill:#00247d"
     d="M 0 0 L 0 15 L 30 15 L 30 0 L 0 0 z "
     id="circle16382"
     transform="translate(-15,-7.5)" />
  <path
     style="color:#000000;font-style:normal;font-variant:normal;font-weight:normal;font-stretch:normal;font-size:medium;line-height:normal;font-family:sans-serif;text-indent:0;text-align:start;text-decoration:none;text-decoration-line:none;text-decoration-style:solid;text-decoration-color:#000000;letter-spacing:normal;word-spacing:normal;text-transform:none;direction:ltr;block-progression:tb;writing-mode:lr-tb;baseline-shift:baseline;text-anchor:start;white-space:normal;clip-rule:nonzero;display:inline;overflow:visible;visibility:visible;opacity:1;isolation:auto;mix-blend-mode:normal;color-interpolation:sRGB;color-interpolation-filters:linearRGB;solid-color:#000000;solid-opacity:1;fill:#ffffff;fill-opacity:1;fill-rule:nonzero;stroke:none;stroke-width:3;stroke-linecap:butt;stroke-linejoin:miter;stroke-miterlimit:4;stroke-dasharray:none;stroke-dashoffset:0;stroke-opacity:1;color-rendering:auto;image-rendering:auto;shape-rendering:auto;text-rendering:auto;enable-background:accumulate"
     d="M 0 0 L 0 1.6757812 L 6.6464844 5 L 0 5 L 0 10 L 6.6464844 10 L 0 13.324219 L 0 15 L 3.3535156 15 L 12.5 10.425781 L 12.5 15 L 17.5 15 L 17.5 10.425781 L 26.646484 15 L 30 15 L 30 13.324219 L 23.353516 10 L 30 10 L 30 5 L 23.353516 5 L 30 1.6757812 L 30 0 L 26.646484 0 L 17.5 4.5742188 L 17.5 0 L 12.5 0 L 12.5 4.5742188 L 3.3535156 0 L 0 0 z "
     transform="translate(-15,-7.5)"
     id="diags_white" />
  <path
     style="color:#000000;font-style:normal;font-variant:normal;font-weight:normal;font-stretch:normal;font-size:medium;line-height:normal;font-family:sans-serif;text-indent:0;text-align:start;text-decoration:none;text-decoration-line:none;text-decoration-style:solid;text-decoration-color:#000000;letter-spacing:normal;word-spacing:normal;text-transform:none;direction:ltr;block-progression:tb;writing-mode:lr-tb;baseline-shift:baseline;text-anchor:start;white-space:normal;clip-rule:nonzero;display:inline;overflow:visible;visibility:visible;opacity:1;isolation:auto;mix-blend-mode:normal;color-interpolation:sRGB;color-interpolation-filters:linearRGB;solid-color:#000000;solid-opacity:1;fill:#cf142b;fill-opacity:1;fill-rule:nonzero;stroke:none;stroke-width:3;stroke-linecap:butt;stroke-linejoin:miter;stroke-miterlimit:4;stroke-dasharray:none;stroke-dashoffset:0;stroke-opacity:1;color-rendering:auto;image-rendering:auto;shape-rendering:auto;text-rendering:auto;enable-background:accumulate"
     d="M 13.5 0 L 13.5 6 L 0 6 L 0 9 L 13.5 9 L 13.5 15 L 16.5 15 L 16.5 9 L 30 9 L 30 6 L 16.5 6 L 16.5 0 L 13.5 0 z "
     transform="translate(-15,-7.5)"
     id="cross_red" />
  <path
     style="color:#000000;solid-opacity:1;fill:#cf142b;fill-opacity:1;stroke:none;stroke-width:2"
     d="M 0 0 L 0 1.1171875 L 7.7636719 5 L 10 5 L 0 0 z M 13.5 0 L 13.5 6 L 0 6 L 0 9 L 13.5 9 L 13.5 15 L 16.5 15 L 16.5 9 L 30 9 L 30 6 L 16.5 6 L 16.5 0 L 13.5 0 z M 27.763672 0 L 17.765625 5 L 20 5 L 30 0 L 27.763672 0 z M 10 10 L 0 15 L 2.2363281 15 L 12.234375 10 L 10 10 z M 20 10 L 30 15 L 30 13.882812 L 22.236328 10 L 20 10 z "
     transform="translate(-15,-7.5)"
     id="diags_red-3" />
  <metadata
     id="metadata16389">
    <rdf:RDF>
      <cc:Work>
        <dc:format>image/svg+xml</dc:format>
        <dc:type
           rdf:resource="http://purl.org/dc/dcmitype/StillImage" />
        <cc:license
           rdf:resource="http://creativecommons.org/publicdomain/zero/1.0/" />
        <dc:publisher>
          <cc:Agent
             rdf:about="http://openclipart.org/">
            <dc:title>Openclipart</dc:title>
          </cc:Agent>
        </dc:publisher>
        <dc:title>Flag of Britain 1</dc:title>
        <dc:date>2006-12-26T00:00:00</dc:date>
        <dc:description />
        <dc:source>https://openclipart.org/detail/24400/-by--24400</dc:source>
        <dc:creator>
          <cc:Agent>
            <dc:title>Anonymous</dc:title>
          </cc:Agent>
        </dc:creator>
      </cc:Work>
      <cc:License
         rdf:about="http://creativecommons.org/publicdomain/zero/1.0/">
        <cc:permits
           rdf:resource="http://creativecommons.org/ns#Reproduction" />
        <cc:permits
           rdf:resource="http://creativecommons.org/ns#Distribution" />
        <cc:permits
           rdf:resource="http://creativecommons.org/ns#DerivativeWorks" />
      </cc:License>
    </rdf:RDF>
  </metadata>
</svg>
