<?xml version="1.0" encoding="UTF-8" standalone="no"?>
<svg
   xmlns:dc="http://purl.org/dc/elements/1.1/"
   xmlns:cc="http://creativecommons.org/ns#"
   xmlns:rdf="http://www.w3.org/1999/02/22-rdf-syntax-ns#"
   xmlns:svg="http://www.w3.org/2000/svg"
   xmlns="http://www.w3.org/2000/svg"
   xmlns:sodipodi="http://sodipodi.sourceforge.net/DTD/sodipodi-0.dtd"
   xmlns:inkscape="http://www.inkscape.org/namespaces/inkscape"
   version="1.1"
   id="svg34386"
   viewBox="0 0 658.71417 312.68663"
   height="88.247116mm"
   width="185.90378mm"
   inkscape:version="0.91 r"
   sodipodi:docname="Guest_speaker.svg">
  <sodipodi:namedview
     pagecolor="#ffffff"
     bordercolor="#666666"
     borderopacity="1"
     objecttolerance="10"
     gridtolerance="10"
     guidetolerance="10"
     inkscape:pageopacity="0"
     inkscape:pageshadow="2"
     inkscape:window-width="1920"
     inkscape:window-height="1161"
     id="namedview43547"
     showgrid="false"
     inkscape:snap-bbox="true"
     inkscape:object-paths="true"
     inkscape:snap-intersection-paths="true"
     inkscape:object-nodes="true"
     inkscape:snap-smooth-nodes="true"
     inkscape:zoom="2"
     inkscape:cx="406.40565"
     inkscape:cy="154.15092"
     inkscape:window-x="1920"
     inkscape:window-y="0"
     inkscape:window-maximized="1"
     inkscape:current-layer="svg34386" />
  <defs
     id="defs34388" />
  <metadata
     id="metadata34391">
    <rdf:RDF>
      <cc:Work
         rdf:about="">
        <dc:format>image/svg+xml</dc:format>
        <dc:type
           rdf:resource="http://purl.org/dc/dcmitype/StillImage" />
        <dc:title></dc:title>
      </cc:Work>
    </rdf:RDF>
  </metadata>
  <rect
     y="8.3809937e-07"
     x="-5.5366215e-08"
     height="312.30469"
     width="658.71417"
     id="rect15653"
     style="color:#000000;clip-rule:nonzero;display:inline;overflow:visible;visibility:visible;opacity:1;isolation:auto;mix-blend-mode:normal;color-interpolation:sRGB;color-interpolation-filters:linearRGB;solid-color:#000000;solid-opacity:1;fill:#4e88d9;fill-opacity:1;fill-rule:evenodd;stroke:none;stroke-width:1px;stroke-linecap:butt;stroke-linejoin:miter;stroke-miterlimit:4;stroke-dasharray:none;stroke-dashoffset:0;stroke-opacity:1;marker:none;marker-start:none;marker-mid:none;marker-end:none;color-rendering:auto;image-rendering:auto;shape-rendering:auto;text-rendering:auto;enable-background:accumulate" />
  <rect
     style="color:#000000;clip-rule:nonzero;display:inline;overflow:visible;visibility:visible;opacity:1;isolation:auto;mix-blend-mode:normal;color-interpolation:sRGB;color-interpolation-filters:linearRGB;solid-color:#000000;solid-opacity:1;fill:#c0d3ee;fill-opacity:1;fill-rule:evenodd;stroke:none;stroke-width:1px;stroke-linecap:butt;stroke-linejoin:miter;stroke-miterlimit:4;stroke-dasharray:none;stroke-dashoffset:0;stroke-opacity:1;marker:none;marker-start:none;marker-mid:none;marker-end:none;color-rendering:auto;image-rendering:auto;shape-rendering:auto;text-rendering:auto;enable-background:accumulate"
     id="rect15655"
     width="449.06781"
     height="234.99672"
     x="67.825783"
     y="14.368679" />
  <path
     style="fill:#033b62;fill-opacity:1;fill-rule:evenodd;stroke:none;stroke-width:1px;stroke-linecap:butt;stroke-linejoin:miter;stroke-opacity:1"
     d="m 275.47656,54.296875 c -4.49034,0 -13.27756,2.34324 -18.54883,5.857422 -5.27127,3.514181 -10.83447,17.179352 -12.00585,25.867187 -1.17142,8.687829 -0.39063,27.624996 -0.39063,27.624996 0,0 -5.85736,3.80852 -10.44531,3.61329 -4.58796,-0.19524 -7.71094,-3.9043 -7.71094,-3.9043 0,0 1.7e-4,2.53755 0.39062,3.61133 0.39046,1.07378 4.09953,3.90441 3.9043,4.19726 -0.19523,0.29285 -5.66231,3.12325 -6.15039,3.61133 -0.48808,0.48809 -0.29297,0.58594 -0.29297,0.58594 0,0 -1.9521,2.63638 -4.19726,6.54101 -2.24518,3.90464 -5.75802,9.46732 -6.2461,10.73633 -0.48809,1.26901 0,1.26953 0,1.26953 0,0 -1.36795,3.90492 -3.22265,10.15235 -1.85471,6.24743 -9.27336,26.45337 -9.07813,31.82226 0.19523,5.36889 2.92802,7.61536 3.61133,7.90821 0.68332,0.29285 6.54098,1.75618 11.22656,2.5371 4.68557,0.78094 16.49805,0.97657 16.49805,0.97657 0,0 0.78105,4.48984 0.29297,8.29687 -0.48808,3.80702 -1.85547,7.61524 -1.85547,7.61524 0,0 -2.53735,-0.3921 -3.12305,0.77929 -0.5857,1.1714 0.87696,3.22266 0.87696,3.22266 0,0 1.95369,-1.46484 3.32031,-1.46484 1.36663,0 2.43945,9.37109 2.43945,9.37109 0,0 7.71123,-2.635 13.17774,-3.2207 5.4665,-0.58569 23.81839,-1.36703 33.38476,-0.97657 9.56638,0.39047 21.67056,1.36719 23.23242,1.36719 1.56185,0 3.51563,-0.0976 3.51563,-0.0976 l 0,-0.58594 c 0,0 -0.68375,-1.95361 -1.07422,-3.125 -0.39046,-1.17139 -1.26953,-1.75586 -1.26953,-1.75586 0,0 0.0976,-1.75822 0,-2.73438 -0.0976,-0.97616 -1.46289,-2.24414 -1.46289,-2.24414 0,0 -0.29297,-2.44037 -0.29297,-4.68554 0,-2.24517 -0.19531,-7.12696 -0.19531,-7.12696 0,0 0.58451,-0.19364 1.85351,-0.87695 1.26901,-0.68332 1.26953,-1.17187 1.26953,-1.17188 0,0 8.688,3.61049 14.64258,1.56055 5.95458,-2.04993 8.29679,-11.42105 8.10156,-14.15429 -0.19524,-2.73325 -6.83255,-18.44932 -8.10156,-23.42774 -1.26901,-4.97842 -2.73437,-16.88672 -2.73437,-16.88672 0,0 0.0976,-1.46508 0,-2.05078 -0.0976,-0.5857 -1.36608,-3.41586 -3.41602,-7.80859 -2.04993,-4.39272 -6.44141,-9.17578 -6.44141,-9.17578 l -2.92968,-0.87891 c 0,0 -4.19664,-3.12385 -7.41797,-5.07617 -3.22133,-1.95232 -5.85811,-3.51332 -7.51758,-7.41797 -1.65948,-3.90464 -1.6582,-7.9082 -1.6582,-7.9082 l -5.56446,4.10156 0.29297,6.92969 c 0,0 0.4866,0.58654 1.16992,2.05078 0.68331,1.46425 2.34375,6.05078 2.34375,6.05078 0,0 -3.80762,2.63691 -10.93359,3.125 -7.12598,0.48808 -12.68945,-1.5625 -12.68945,-1.5625 0,0 -0.97685,-5.07504 -1.66016,-11.81055 -0.68332,-6.73551 -4.29492,-18.937499 -4.29492,-18.937499 0,0 -3.61066,0.6831 -6.73438,-5.271484 -3.12372,-5.954583 0.38935,-7.810511 2.04883,-7.712891 1.65947,0.09761 5.27149,5.564453 5.27149,5.564453 0,0 0.78161,-4.196561 1.66015,-7.222656 0.87854,-3.026103 4.29411,-4.588735 7.02735,-6.638672 2.73326,-2.049938 3.70935,-5.270981 9.37109,-8.785156 5.66173,-3.514181 11.61719,-0.585937 11.61719,-0.585937 0,0 3.02579,5.271177 4.00195,9.273437 0.47548,1.949476 0.75179,3.420836 1.07422,5.365234 -0.0126,-0.395396 0,-0.679687 0,-0.679687 0,0 2.2453,-4.29502 0.29297,-9.273438 -1.95232,-4.978419 -4.00195,-5.955078 -4.00195,-5.955078 0,0 -0.29386,7.88e-4 -2.44141,-2.830078 -2.14755,-2.830867 -7.32021,-5.564453 -11.81055,-5.564453 z m -45.77929,116.800785 0.6914,0.82812 c 0,0 1.31055,1.17297 1.31055,2.27734 0,1.10443 -0.13867,4.07227 -0.13867,4.07227 0,0 -1.44904,-0.41466 -2.27735,-0.75977 -0.82829,-0.34513 -2.07031,-1.17187 -2.07031,-1.17187 0,0 0.69008,-0.001 0.82813,-0.69141 0.13805,-0.69024 -0.34571,-1.79492 -0.34571,-1.79492 0,0 0.69064,-0.61965 1.17383,-1.17187 0.48317,-0.55219 0.82813,-1.58789 0.82813,-1.58789 z"
     transform="translate(0,-1.5258789e-5)"
     id="path15612"
     inkscape:connector-curvature="0"
     sodipodi:nodetypes="ssscscssscsscsssscscscscsssccscscscscssscssccsscccscscscsscssscsccscssccscccccsc" />
  <path
     id="path15614"
     d="m 264.05465,125.36146 c 0,0 5.56412,2.04994 12.6901,1.56186 7.12597,-0.48809 10.933,-3.12372 10.933,-3.12372 0,0 -1.65948,-4.58795 -2.34279,-6.0522 -0.68332,-1.46424 -1.17139,-2.04993 -1.17139,-2.04993 l -0.29285,-6.93074 5.56411,-4.09988 c 0,0 6.89656,-8.86327 5.4665,-17.180435 -1.43005,-8.317159 -1.56185,-10.249687 -2.53801,-14.251948 -0.97616,-4.00226 -4.00226,-9.273529 -4.00226,-9.273529 0,0 -5.95458,-2.928481 -11.61631,0.5857 -5.66174,3.514175 -6.6379,6.735506 -9.37116,8.785444 -2.73324,2.049937 -6.14981,3.611795 -7.02835,6.637898 -0.87854,3.026095 -1.65947,7.223591 -1.65947,7.223591 0,0 -3.6118,-5.466504 -5.27127,-5.564118 -1.65948,-0.09762 -5.17366,1.757087 -2.04994,7.71167 3.12372,5.954584 6.73551,5.271269 6.73551,5.271269 0,0 3.61179,12.202008 4.29511,18.937518 0.68331,6.73551 1.65947,11.81155 1.65947,11.81155 z"
     style="fill:#837d81;fill-opacity:1;fill-rule:evenodd;stroke:none;stroke-width:1px;stroke-linecap:butt;stroke-linejoin:miter;stroke-opacity:1"
     inkscape:connector-curvature="0" />
  <path
     id="path15618"
     d="m 232.32944,215.75386 c -1.36662,0 -3.31894,1.46424 -3.31894,1.46424 0,0 -8.19975,19.52322 -9.76161,25.77065 -1.56186,6.24743 -8.59022,69.69789 -8.59022,69.69789 l 116.55362,0 c 0,0 -13.37341,-77.60479 -14.25196,-80.53327 -0.87854,-2.92849 -3.41656,-5.75936 -3.41656,-5.75936 0,0 0,-1.46424 -0.29285,-2.04994 -0.29285,-0.58569 -1.17139,-2.14755 -1.17139,-2.14755 l 0,0 c 0,0 -1.95233,0.0976 -3.51418,0.0976 -1.56186,0 -13.66625,-0.97616 -23.23263,-1.36663 -9.56637,-0.39046 -27.9182,0.39047 -33.3847,0.97616 -5.46651,0.5857 -13.17818,3.22133 -13.17818,3.22133 0,0 -1.07377,-9.37114 -2.4404,-9.37114 z"
     style="fill:#f94669;fill-opacity:1;fill-rule:evenodd;stroke:none;stroke-width:1px;stroke-linecap:butt;stroke-linejoin:miter;stroke-opacity:1"
     inkscape:connector-curvature="0"
     sodipodi:nodetypes="scsccscsccssscs" />
  <path
     id="path15624"
     d="m 336.63319,312.11516 -0.69025,-49.83604 1.38051,-0.96635 c 0,0 0.82829,-2.07075 1.10439,-10.4918 0.2761,-8.42105 -1.10439,-13.39085 -1.10439,-13.39085 l -1.51856,-0.2761 -0.8283,-46.6609 1.24245,-0.69025 -0.2761,-5.79809 -0.69026,-1.10441 -0.13805,-1.1044 3.17516,-5.10785 -2.76099,-11.73424 -3.03711,-0.13805 -3.00265,7.45969 -5.28035,-0.2811 c 0,0 -1.10439,1.10441 -0.96634,2.62295 0.13805,1.51855 1.79463,1.9327 1.79463,1.9327 l 4.56687,0.0598 c 0,0 0.39047,1.2202 0.63451,2.00113 0.24404,0.78093 0.92735,2.04994 0.92735,2.04994 l 0.0488,2.39161 -0.82974,0.6345 0.0488,6.0522 0.82974,0.82973 0.39046,46.80692 -1.61066,0.43927 c 0,0 -1.36662,6.29624 -1.41543,10.78658 -0.0488,4.49034 0.92735,12.54366 0.92735,12.54366 l 1.51305,0.92736 -0.29183,49.64994 z"
     style="fill:#4b4b4b;fill-opacity:1;fill-rule:evenodd;stroke:none;stroke-width:1px;stroke-linecap:butt;stroke-linejoin:miter;stroke-opacity:1"
     inkscape:connector-curvature="0" />
  <ellipse
     ry="5.9016371"
     rx="5.5910244"
     cy="97.930603"
     cx="305.5029"
     id="path15631"
     style="color:#000000;clip-rule:nonzero;display:inline;overflow:visible;visibility:visible;opacity:1;isolation:auto;mix-blend-mode:normal;color-interpolation:sRGB;color-interpolation-filters:linearRGB;solid-color:#000000;solid-opacity:1;fill:#585858;fill-opacity:1;fill-rule:nonzero;stroke:none;stroke-width:1;stroke-linecap:butt;stroke-linejoin:round;stroke-miterlimit:4;stroke-dasharray:none;stroke-dashoffset:0;stroke-opacity:1;marker:none;marker-start:none;marker-mid:none;marker-end:none;color-rendering:auto;image-rendering:auto;shape-rendering:auto;text-rendering:auto;enable-background:accumulate" />
  <path
     id="path15660"
     d="m 316.81197,113.0991 -2.97309,-0.33021 c 0,0 -1.75709,0.19523 -1.26901,3.90464 0.48808,3.70941 3.61179,1.75709 3.61179,1.75709 l 0.48809,0.78093 2.53801,0.29284 0.68331,1.7571 0.48809,0.87854 9.46876,33.28709 -1.26901,2.63563 5.56412,22.4517 2.04993,1.12259 4.19749,15.56976 c 0,0 0.19524,1.36663 2.34279,0.97617 2.14755,-0.39047 3.0261,-1.7571 2.83087,-2.53803 -0.19524,-0.78093 -4.29511,-16.20427 -4.29511,-16.20427 l 0.97616,-1.75709 -0.19523,-1.56185 -3.80703,-13.37341 1.65947,-0.19523 c 0,0 1.07378,-2.34278 0.68332,-4.19749 -0.39047,-1.8547 -1.65948,-1.65948 -1.65948,-1.65948 l -1.95232,0.0976 -0.78093,-1.95232 -2.63563,0 -8.88307,-33.87278 c 0,0 0.5857,0 0.39047,-0.87855 -0.19523,-0.87854 -1.65948,-5.66173 -1.65948,-5.66173 l -1.269,-0.87854 0,-0.5857 c 0,0 0.003,-0.0671 -0.0252,-0.1613 -0.0282,-0.0942 -0.0877,-0.21544 -0.21278,-0.32373 -0.0625,-0.0541 -0.14137,-0.10491 -0.24098,-0.14757 -0.0996,-0.0426 -0.22002,-0.0772 -0.36529,-0.0984 -0.1453,-0.0212 -0.31563,-0.029 -0.51516,-0.0187 -0.19953,0.0104 -0.4282,0.0389 -0.69056,0.0908 -0.52469,0.10371 -0.90599,0.21658 -1.18283,0.32755 -0.27684,0.11096 -0.44919,0.22001 -0.55594,0.31611 -0.10678,0.0961 -0.14797,0.17921 -0.16246,0.23831 -0.0144,0.0591 -0.003,0.0942 -0.003,0.0942 l -1.37082,-0.18189 0,-3.9e-4 z"
     style="fill:#585858;fill-opacity:1;fill-rule:evenodd;stroke:none;stroke-width:1px;stroke-linecap:butt;stroke-linejoin:miter;stroke-opacity:1"
     inkscape:connector-curvature="0" />
  <path
     id="path15626"
     d="m 316.81197,113.0991 0,4e-4 1.37082,0.18188 c 0,0 -0.0121,-0.0351 0.003,-0.0942 0.0144,-0.0591 0.0557,-0.14223 0.16245,-0.23832 0.10676,-0.0961 0.27911,-0.20515 0.55594,-0.31611 0.27684,-0.11096 0.65815,-0.22383 1.18284,-0.32755 0.26235,-0.0518 0.49102,-0.0804 0.69056,-0.0907 0.19952,-0.0104 0.36986,-0.003 0.51515,0.0187 0.14528,0.0212 0.26568,0.0557 0.3653,0.0984 0.0996,0.0427 0.17845,0.0934 0.24098,0.14757 0.12508,0.10829 0.18457,0.22955 0.21278,0.32373 0.0282,0.0942 0.0252,0.1613 0.0252,0.1613 0,0 0.68332,-0.48808 0.78093,-0.87854 0.0976,-0.39047 -0.39046,-2.63564 -0.39046,-2.63564 l -1.56186,-4.88081 1.07378,-1.65947 c 0,0 1.15749,-0.99074 2.45908,-1.48788 1.01105,-0.0148 2.69491,-0.992 3.00742,-1.26977 0.87854,-0.780931 1.82794,-1.530544 2.14755,-2.611232 0.40866,-1.381759 0.78093,-2.635638 -0.48808,-4.295111 -1.26901,-1.659473 -4.2951,-1.952323 -4.2951,-1.952323 l -5.07604,0.195236 c 0,0 -0.67283,-0.224032 -1.42955,-0.214683 -0.1081,0.002 -0.21772,0.0072 -0.32754,0.01942 -0.87855,0.09761 -1.36663,0.585693 -1.36663,0.585693 l -8.59022,0.878551 c 0,0 -5.13638,0.570577 -4.19864,5.345624 0.92956,4.733454 4.70051,3.755934 4.41752,3.796354 2.44548,-0.26767 4.74401,-0.38426 7.29757,-0.55176 l 2.34278,1.65947 -0.0976,0.97616 c -0.72999,0.41487 -0.89137,0.82973 -1.04937,1.24461 l 0.36606,7.44322 0.19523,0.48808 z"
     style="fill:#4b4b4b;fill-opacity:1;fill-rule:evenodd;stroke:none;stroke-width:1px;stroke-linecap:butt;stroke-linejoin:miter;stroke-opacity:1"
     inkscape:connector-curvature="0" />
  <path
     id="path15651"
     d="m 273.92184,183.60084 c 0,0 6.4347,-5.03863 8.97272,-7.67426 2.53801,-2.63564 5.27127,-5.36889 5.27127,-5.36889 l 1.36662,0.19523 1.46424,-2.04994 c 0,0 1.95233,1.07378 5.36889,1.36663 3.41656,0.29285 11.90916,-1.65948 14.15433,2.04993 2.24517,3.70941 -0.68332,3.90465 -0.68332,3.90465 0,0 0,0.48808 -0.58569,2.04994 -0.5857,1.56186 -13.47102,15.61858 -13.47102,15.61858 l -23.33025,-6.34505 z"
     style="fill:#ffffff;fill-opacity:1;fill-rule:evenodd;stroke:none;stroke-width:1px;stroke-linecap:butt;stroke-linejoin:miter;stroke-opacity:1"
     inkscape:connector-curvature="0" />
  <path
     id="path15633"
     d="m 252.54518,181.51987 c 0,0 2.07075,0.5522 3.86541,0 1.79465,-0.5522 6.21225,-3.5893 8.83519,-4.55566 2.62297,-0.96634 6.48835,-1.79463 6.48835,-1.79463 l 0.96636,0 1.79465,-3.17516 c 0,0 1.24244,-0.41414 1.79465,0.5522 0.5522,0.96636 0.41415,4.41761 -1.1044,5.93615 -1.51856,1.51855 -2.62295,1.51855 -3.3132,2.48491 -0.69026,0.96634 -1.1044,1.10439 -1.1044,1.10439 0,0 3.3132,1.93271 6.90249,2.76101 3.5893,0.8283 10.76791,2.62294 11.87231,2.76099 1.1044,0.13805 1.51854,0.8283 1.51854,0.8283 l 0.13805,0.5522 3.45126,0.13805 c 0,0 -0.27609,-1.3805 0.2761,-2.07074 0.55219,-0.69025 2.4849,-1.3805 2.4849,-1.3805 0,0 2.48489,0.8283 3.8654,0.5522 1.3805,-0.2761 5.24591,-5.79811 6.21224,-6.35031 0.96635,-0.55219 2.07075,-0.69024 2.07075,-0.69024 0,0 1.51856,1.65659 1.93271,2.89904 0.41414,1.24245 -0.69025,6.0742 -1.51856,8.97325 -0.82829,2.89905 -3.06585,6.8448 -3.06585,6.8448 0,0 0.5857,0.29284 -1.26901,1.17139 -1.8547,0.87854 -5.60474,2.13049 -8.43477,2.40659 -2.83,0.2761 -2.2088,-2.89905 -2.2088,-2.89905 0,0 -1.51853,-0.48317 -2.27781,-1.3805 -0.75928,-0.89733 -0.82831,-1.86368 -0.82831,-1.86368 l -2.34684,-0.89732 c 0,0 -1.72563,1.3805 -2.89905,1.9327 -1.17342,0.5522 -2.55393,1.24245 -2.55393,1.24245 0,0 0.75928,0.75927 0.41415,1.44952 -0.34512,0.69026 -3.79637,2.00173 -5.93615,2.2088 -2.13977,0.20708 -3.79637,-0.34512 -3.79637,-0.34512 0,0 -0.75928,1.58757 -2.2088,1.6566 -1.44952,0.069 -5.52201,-0.20708 -7.86885,-1.58758 -2.34685,-1.3805 -5.38396,-3.72735 -8.283,-3.93442 -2.89904,-0.20708 -5.10786,0 -5.10786,0 0,0 -2.62294,-1.51855 -2.07075,-8.14495 0.55221,-6.6264 3.3132,-7.38568 3.3132,-7.38568 z"
     style="fill:#837d81;fill-opacity:1;fill-rule:evenodd;stroke:none;stroke-width:1px;stroke-linecap:butt;stroke-linejoin:miter;stroke-opacity:1"
     inkscape:connector-curvature="0" />
</svg>
